%
M48
M72
T01C0.01969
T02C0.02559
T03C0.04000
T04C0.04331
T05C0.04700
T06C0.05512
T07C0.11614
%
T01
X26300Y45112
X26800Y76112
X40800Y87112
X30800Y106112
X23300Y129989
X14800Y113612
X42300Y159615
X45800Y120489
X52800Y64112
X78800Y77364
X79800Y56864
X111800Y61364
X120800Y49364
X115300Y135864
X100800Y148612
X92800Y138112
X94300Y204612
X94300Y220612
X97800Y234612
X115300Y234364
T02
X88989Y86316
X88989Y76316
X88989Y66316
X88989Y46316
X88989Y36316
T03
X23257Y141966
X13257Y141966
X108599Y157403
X108599Y167403
X108599Y188899
X108599Y198899
T04
X143926Y194072
X143926Y207852
X143926Y221631
X143926Y235411
X143926Y249190
X143926Y262970
X143926Y276749
X143926Y180293
X143926Y166513
X143926Y152734
X143926Y138954
X143926Y125175
X143926Y111395
X143926Y97615
X143926Y83836
X143926Y70056
X143926Y56277
X143926Y42497
X143926Y28718
X143926Y14938
T05
X20422Y195056
X20422Y214741
X20422Y234427
X20422Y254112
T06
X63347Y262206
X63347Y245671
X63347Y229135
X63347Y212600
X63347Y196064
X63347Y179529
X63347Y162993
X63347Y146458
X63347Y129923
X63347Y113387
X85001Y113387
X85001Y129923
X85001Y146458
X85001Y162993
X85001Y179529
X85001Y196064
X85001Y212600
X85001Y229135
X85001Y245671
X85001Y262206
T07
X11643Y13954
X110068Y13954
X110068Y277734
X11643Y277734
M30
