G75*
%MOIN*%
%OFA0B0*%
%FSLAX25Y25*%
%IPPOS*%
%LPD*%
%AMOC8*
5,1,8,0,0,1.08239X$1,22.5*
%
%ADD10C,0.12414*%
%ADD11C,0.06800*%
%ADD12C,0.07850*%
%ADD13R,0.09068X0.09068*%
%ADD14R,0.03950X0.05800*%
%ADD15R,0.04146X0.01981*%
%ADD16R,0.01981X0.04146*%
%ADD17C,0.05359*%
%ADD18R,0.07887X0.07099*%
%ADD19R,0.10249X0.06312*%
%ADD20R,0.08700X0.06700*%
%ADD21R,0.08700X0.15800*%
%ADD22R,0.05918X0.06706*%
%ADD23R,0.06706X0.05918*%
%ADD24R,0.03556X0.02375*%
%ADD25R,0.03400X0.08800*%
%ADD26R,0.04737X0.06312*%
%ADD27C,0.07493*%
%ADD28C,0.04369*%
D10*
X0011643Y0013954D03*
X0110068Y0013954D03*
X0110068Y0277734D03*
X0011643Y0277734D03*
D11*
X0013257Y0144966D02*
X0013257Y0138966D01*
X0023257Y0138966D02*
X0023257Y0144966D01*
X0105599Y0157403D02*
X0111599Y0157403D01*
X0111599Y0167403D02*
X0105599Y0167403D01*
X0105599Y0188899D02*
X0111599Y0188899D01*
X0111599Y0198899D02*
X0105599Y0198899D01*
D12*
X0023947Y0195056D02*
X0016897Y0195056D01*
X0016897Y0214741D02*
X0023947Y0214741D01*
X0023947Y0234427D02*
X0016897Y0234427D01*
X0016897Y0254112D02*
X0023947Y0254112D01*
D13*
X0063347Y0262206D03*
X0063347Y0245671D03*
X0063347Y0229135D03*
X0063347Y0212600D03*
X0063347Y0196064D03*
X0063347Y0179529D03*
X0063347Y0162993D03*
X0063347Y0146458D03*
X0063347Y0129923D03*
X0063347Y0113387D03*
X0085001Y0113387D03*
X0085001Y0129923D03*
X0085001Y0146458D03*
X0085001Y0162993D03*
X0085001Y0179529D03*
X0085001Y0196064D03*
X0085001Y0212600D03*
X0085001Y0229135D03*
X0085001Y0245671D03*
X0085001Y0262206D03*
D14*
X0102694Y0220080D03*
X0106631Y0220080D03*
X0106631Y0121655D03*
X0102694Y0121655D03*
D15*
X0098954Y0127954D03*
X0098954Y0129923D03*
X0110371Y0129923D03*
X0110371Y0127954D03*
X0110371Y0226379D03*
X0110371Y0228348D03*
X0098954Y0228348D03*
X0098954Y0226379D03*
D16*
X0101709Y0231104D03*
X0103678Y0231104D03*
X0105646Y0231104D03*
X0107615Y0231104D03*
X0107615Y0132678D03*
X0105646Y0132678D03*
X0103678Y0132678D03*
X0101709Y0132678D03*
D17*
X0088989Y0086316D03*
X0088989Y0076316D03*
X0088989Y0066316D03*
X0088989Y0046316D03*
X0088989Y0036316D03*
D18*
X0069438Y0034261D03*
X0069438Y0045285D03*
X0069713Y0077934D03*
X0069713Y0088958D03*
D19*
X0069398Y0066096D03*
X0069398Y0056647D03*
D20*
X0034672Y0159778D03*
X0034672Y0168778D03*
X0034672Y0177778D03*
D21*
X0009872Y0168678D03*
D22*
X0014391Y0123112D03*
X0021871Y0123112D03*
X0022040Y0106112D03*
X0014560Y0106112D03*
X0100922Y0142718D03*
X0108402Y0142718D03*
X0108402Y0241143D03*
X0100922Y0241143D03*
D23*
X0035300Y0096352D03*
X0035300Y0088871D03*
X0033127Y0076072D03*
X0033127Y0068592D03*
X0041973Y0068651D03*
X0041973Y0076131D03*
X0019627Y0076072D03*
X0019627Y0068592D03*
D24*
X0021973Y0089336D03*
X0021973Y0094454D03*
X0015280Y0094454D03*
X0015280Y0091895D03*
X0015280Y0089336D03*
D25*
X0013394Y0054948D03*
X0018394Y0054948D03*
X0023394Y0054948D03*
X0028394Y0054948D03*
X0033394Y0054948D03*
X0038394Y0054948D03*
X0043394Y0054948D03*
X0048394Y0054948D03*
X0048394Y0030748D03*
X0043394Y0030748D03*
X0038394Y0030748D03*
X0033394Y0030748D03*
X0028394Y0030748D03*
X0023394Y0030748D03*
X0018394Y0030748D03*
X0013394Y0030748D03*
D26*
X0038087Y0126655D03*
X0041828Y0135316D03*
X0045568Y0126655D03*
D27*
X0143926Y0125175D03*
X0143926Y0138954D03*
X0143926Y0152734D03*
X0143926Y0166513D03*
X0143926Y0180293D03*
X0143926Y0194072D03*
X0143926Y0207852D03*
X0143926Y0221631D03*
X0143926Y0235411D03*
X0143926Y0249190D03*
X0143926Y0262970D03*
X0143926Y0276749D03*
X0143926Y0111395D03*
X0143926Y0097615D03*
X0143926Y0083836D03*
X0143926Y0070056D03*
X0143926Y0056277D03*
X0143926Y0042497D03*
X0143926Y0028718D03*
X0143926Y0014938D03*
D28*
X0120800Y0049364D03*
X0111800Y0061364D03*
X0079800Y0056864D03*
X0078800Y0077364D03*
X0052800Y0064112D03*
X0040800Y0087112D03*
X0030800Y0106112D03*
X0023300Y0129989D03*
X0014800Y0113612D03*
X0026800Y0076112D03*
X0026300Y0045112D03*
X0045800Y0120489D03*
X0042300Y0159615D03*
X0092800Y0138112D03*
X0100800Y0148612D03*
X0115300Y0135864D03*
X0094300Y0204612D03*
X0094300Y0220612D03*
X0097800Y0234612D03*
X0115300Y0234364D03*
M02*
