G75*
%MOIN*%
%OFA0B0*%
%FSLAX25Y25*%
%IPPOS*%
%LPD*%
%AMOC8*
5,1,8,0,0,1.08239X$1,22.5*
%
%ADD10C,0.00600*%
%ADD11C,0.01600*%
%ADD12C,0.00500*%
%ADD13C,0.00400*%
%ADD14C,0.01000*%
%ADD15C,0.00200*%
D10*
X0012394Y0035148D02*
X0049394Y0035148D01*
X0049470Y0035150D01*
X0049546Y0035156D01*
X0049621Y0035165D01*
X0049696Y0035179D01*
X0049770Y0035196D01*
X0049843Y0035217D01*
X0049915Y0035241D01*
X0049986Y0035270D01*
X0050055Y0035301D01*
X0050122Y0035336D01*
X0050187Y0035375D01*
X0050251Y0035417D01*
X0050312Y0035462D01*
X0050371Y0035510D01*
X0050427Y0035561D01*
X0050481Y0035615D01*
X0050532Y0035671D01*
X0050580Y0035730D01*
X0050625Y0035791D01*
X0050667Y0035855D01*
X0050706Y0035920D01*
X0050741Y0035987D01*
X0050772Y0036056D01*
X0050801Y0036127D01*
X0050825Y0036199D01*
X0050846Y0036272D01*
X0050863Y0036346D01*
X0050877Y0036421D01*
X0050886Y0036496D01*
X0050892Y0036572D01*
X0050894Y0036648D01*
X0050894Y0040848D01*
X0050894Y0044848D01*
X0050894Y0049048D01*
X0050892Y0049124D01*
X0050886Y0049200D01*
X0050877Y0049275D01*
X0050863Y0049350D01*
X0050846Y0049424D01*
X0050825Y0049497D01*
X0050801Y0049569D01*
X0050772Y0049640D01*
X0050741Y0049709D01*
X0050706Y0049776D01*
X0050667Y0049841D01*
X0050625Y0049905D01*
X0050580Y0049966D01*
X0050532Y0050025D01*
X0050481Y0050081D01*
X0050427Y0050135D01*
X0050371Y0050186D01*
X0050312Y0050234D01*
X0050251Y0050279D01*
X0050187Y0050321D01*
X0050122Y0050360D01*
X0050055Y0050395D01*
X0049986Y0050426D01*
X0049915Y0050455D01*
X0049843Y0050479D01*
X0049770Y0050500D01*
X0049696Y0050517D01*
X0049621Y0050531D01*
X0049546Y0050540D01*
X0049470Y0050546D01*
X0049394Y0050548D01*
X0012394Y0050548D01*
X0012318Y0050546D01*
X0012242Y0050540D01*
X0012167Y0050531D01*
X0012092Y0050517D01*
X0012018Y0050500D01*
X0011945Y0050479D01*
X0011873Y0050455D01*
X0011802Y0050426D01*
X0011733Y0050395D01*
X0011666Y0050360D01*
X0011601Y0050321D01*
X0011537Y0050279D01*
X0011476Y0050234D01*
X0011417Y0050186D01*
X0011361Y0050135D01*
X0011307Y0050081D01*
X0011256Y0050025D01*
X0011208Y0049966D01*
X0011163Y0049905D01*
X0011121Y0049841D01*
X0011082Y0049776D01*
X0011047Y0049709D01*
X0011016Y0049640D01*
X0010987Y0049569D01*
X0010963Y0049497D01*
X0010942Y0049424D01*
X0010925Y0049350D01*
X0010911Y0049275D01*
X0010902Y0049200D01*
X0010896Y0049124D01*
X0010894Y0049048D01*
X0010894Y0036648D01*
X0010896Y0036572D01*
X0010902Y0036496D01*
X0010911Y0036421D01*
X0010925Y0036346D01*
X0010942Y0036272D01*
X0010963Y0036199D01*
X0010987Y0036127D01*
X0011016Y0036056D01*
X0011047Y0035987D01*
X0011082Y0035920D01*
X0011121Y0035855D01*
X0011163Y0035791D01*
X0011208Y0035730D01*
X0011256Y0035671D01*
X0011307Y0035615D01*
X0011361Y0035561D01*
X0011417Y0035510D01*
X0011476Y0035462D01*
X0011537Y0035417D01*
X0011601Y0035375D01*
X0011666Y0035336D01*
X0011733Y0035301D01*
X0011802Y0035270D01*
X0011873Y0035241D01*
X0011945Y0035217D01*
X0012018Y0035196D01*
X0012092Y0035179D01*
X0012167Y0035165D01*
X0012242Y0035156D01*
X0012318Y0035150D01*
X0012394Y0035148D01*
X0050894Y0040848D02*
X0050806Y0040850D01*
X0050717Y0040856D01*
X0050629Y0040866D01*
X0050542Y0040879D01*
X0050455Y0040897D01*
X0050369Y0040918D01*
X0050284Y0040943D01*
X0050201Y0040972D01*
X0050118Y0041005D01*
X0050038Y0041041D01*
X0049959Y0041080D01*
X0049881Y0041123D01*
X0049806Y0041170D01*
X0049733Y0041220D01*
X0049662Y0041273D01*
X0049593Y0041329D01*
X0049527Y0041388D01*
X0049464Y0041450D01*
X0049404Y0041514D01*
X0049346Y0041581D01*
X0049292Y0041651D01*
X0049240Y0041723D01*
X0049192Y0041797D01*
X0049147Y0041874D01*
X0049106Y0041952D01*
X0049068Y0042032D01*
X0049034Y0042113D01*
X0049003Y0042196D01*
X0048976Y0042281D01*
X0048953Y0042366D01*
X0048934Y0042452D01*
X0048918Y0042540D01*
X0048906Y0042627D01*
X0048898Y0042715D01*
X0048894Y0042804D01*
X0048894Y0042892D01*
X0048898Y0042981D01*
X0048906Y0043069D01*
X0048918Y0043156D01*
X0048934Y0043244D01*
X0048953Y0043330D01*
X0048976Y0043415D01*
X0049003Y0043500D01*
X0049034Y0043583D01*
X0049068Y0043664D01*
X0049106Y0043744D01*
X0049147Y0043822D01*
X0049192Y0043899D01*
X0049240Y0043973D01*
X0049292Y0044045D01*
X0049346Y0044115D01*
X0049404Y0044182D01*
X0049464Y0044246D01*
X0049527Y0044308D01*
X0049593Y0044367D01*
X0049662Y0044423D01*
X0049733Y0044476D01*
X0049806Y0044526D01*
X0049881Y0044573D01*
X0049959Y0044616D01*
X0050038Y0044655D01*
X0050118Y0044691D01*
X0050201Y0044724D01*
X0050284Y0044753D01*
X0050369Y0044778D01*
X0050455Y0044799D01*
X0050542Y0044817D01*
X0050629Y0044830D01*
X0050717Y0044840D01*
X0050806Y0044846D01*
X0050894Y0044848D01*
X0025757Y0136966D02*
X0020757Y0136966D01*
X0018257Y0139466D01*
X0015757Y0136966D01*
X0010757Y0136966D01*
X0008257Y0139466D01*
X0008257Y0144466D01*
X0010757Y0146966D01*
X0015757Y0146966D01*
X0018257Y0144466D01*
X0020757Y0146966D01*
X0025757Y0146966D01*
X0028257Y0144466D01*
X0028257Y0139466D01*
X0025757Y0136966D01*
X0018257Y0139466D02*
X0018257Y0144466D01*
X0015457Y0156379D02*
X0015457Y0180978D01*
X0029080Y0180978D01*
X0029080Y0156379D01*
X0015457Y0156379D01*
X0013324Y0185241D02*
X0003922Y0185241D01*
X0003922Y0224541D01*
X0013324Y0224541D01*
X0039324Y0224541D01*
X0040123Y0224541D01*
X0040123Y0185241D01*
X0039324Y0185241D01*
X0013324Y0185241D01*
X0013324Y0191541D01*
X0013324Y0198541D02*
X0013324Y0211241D01*
X0013324Y0218241D02*
X0013324Y0224541D01*
X0013324Y0224612D02*
X0039324Y0224612D01*
X0039324Y0263911D01*
X0040123Y0263911D01*
X0040123Y0224612D01*
X0039324Y0224612D01*
X0039324Y0224541D02*
X0039324Y0185241D01*
X0032122Y0195041D02*
X0032124Y0195130D01*
X0032130Y0195219D01*
X0032140Y0195308D01*
X0032154Y0195396D01*
X0032171Y0195483D01*
X0032193Y0195569D01*
X0032219Y0195655D01*
X0032248Y0195739D01*
X0032281Y0195822D01*
X0032317Y0195903D01*
X0032358Y0195983D01*
X0032401Y0196060D01*
X0032448Y0196136D01*
X0032499Y0196209D01*
X0032552Y0196280D01*
X0032609Y0196349D01*
X0032669Y0196415D01*
X0032732Y0196479D01*
X0032797Y0196539D01*
X0032865Y0196597D01*
X0032936Y0196651D01*
X0033009Y0196702D01*
X0033084Y0196750D01*
X0033161Y0196795D01*
X0033240Y0196836D01*
X0033321Y0196873D01*
X0033403Y0196907D01*
X0033487Y0196938D01*
X0033572Y0196964D01*
X0033658Y0196987D01*
X0033745Y0197005D01*
X0033833Y0197020D01*
X0033922Y0197031D01*
X0034011Y0197038D01*
X0034100Y0197041D01*
X0034189Y0197040D01*
X0034278Y0197035D01*
X0034366Y0197026D01*
X0034455Y0197013D01*
X0034542Y0196996D01*
X0034629Y0196976D01*
X0034715Y0196951D01*
X0034799Y0196923D01*
X0034882Y0196891D01*
X0034964Y0196855D01*
X0035044Y0196816D01*
X0035122Y0196773D01*
X0035198Y0196727D01*
X0035272Y0196677D01*
X0035344Y0196624D01*
X0035413Y0196568D01*
X0035480Y0196509D01*
X0035544Y0196447D01*
X0035605Y0196383D01*
X0035664Y0196315D01*
X0035719Y0196245D01*
X0035771Y0196173D01*
X0035820Y0196098D01*
X0035865Y0196022D01*
X0035907Y0195943D01*
X0035945Y0195863D01*
X0035980Y0195781D01*
X0036011Y0195697D01*
X0036039Y0195612D01*
X0036062Y0195526D01*
X0036082Y0195439D01*
X0036098Y0195352D01*
X0036110Y0195263D01*
X0036118Y0195175D01*
X0036122Y0195086D01*
X0036122Y0194996D01*
X0036118Y0194907D01*
X0036110Y0194819D01*
X0036098Y0194730D01*
X0036082Y0194643D01*
X0036062Y0194556D01*
X0036039Y0194470D01*
X0036011Y0194385D01*
X0035980Y0194301D01*
X0035945Y0194219D01*
X0035907Y0194139D01*
X0035865Y0194060D01*
X0035820Y0193984D01*
X0035771Y0193909D01*
X0035719Y0193837D01*
X0035664Y0193767D01*
X0035605Y0193699D01*
X0035544Y0193635D01*
X0035480Y0193573D01*
X0035413Y0193514D01*
X0035344Y0193458D01*
X0035272Y0193405D01*
X0035198Y0193355D01*
X0035122Y0193309D01*
X0035044Y0193266D01*
X0034964Y0193227D01*
X0034882Y0193191D01*
X0034799Y0193159D01*
X0034715Y0193131D01*
X0034629Y0193106D01*
X0034542Y0193086D01*
X0034455Y0193069D01*
X0034366Y0193056D01*
X0034278Y0193047D01*
X0034189Y0193042D01*
X0034100Y0193041D01*
X0034011Y0193044D01*
X0033922Y0193051D01*
X0033833Y0193062D01*
X0033745Y0193077D01*
X0033658Y0193095D01*
X0033572Y0193118D01*
X0033487Y0193144D01*
X0033403Y0193175D01*
X0033321Y0193209D01*
X0033240Y0193246D01*
X0033161Y0193287D01*
X0033084Y0193332D01*
X0033009Y0193380D01*
X0032936Y0193431D01*
X0032865Y0193485D01*
X0032797Y0193543D01*
X0032732Y0193603D01*
X0032669Y0193667D01*
X0032609Y0193733D01*
X0032552Y0193802D01*
X0032499Y0193873D01*
X0032448Y0193946D01*
X0032401Y0194022D01*
X0032358Y0194099D01*
X0032317Y0194179D01*
X0032281Y0194260D01*
X0032248Y0194343D01*
X0032219Y0194427D01*
X0032193Y0194513D01*
X0032171Y0194599D01*
X0032154Y0194686D01*
X0032140Y0194774D01*
X0032130Y0194863D01*
X0032124Y0194952D01*
X0032122Y0195041D01*
X0032122Y0214741D02*
X0032124Y0214830D01*
X0032130Y0214919D01*
X0032140Y0215008D01*
X0032154Y0215096D01*
X0032171Y0215183D01*
X0032193Y0215269D01*
X0032219Y0215355D01*
X0032248Y0215439D01*
X0032281Y0215522D01*
X0032317Y0215603D01*
X0032358Y0215683D01*
X0032401Y0215760D01*
X0032448Y0215836D01*
X0032499Y0215909D01*
X0032552Y0215980D01*
X0032609Y0216049D01*
X0032669Y0216115D01*
X0032732Y0216179D01*
X0032797Y0216239D01*
X0032865Y0216297D01*
X0032936Y0216351D01*
X0033009Y0216402D01*
X0033084Y0216450D01*
X0033161Y0216495D01*
X0033240Y0216536D01*
X0033321Y0216573D01*
X0033403Y0216607D01*
X0033487Y0216638D01*
X0033572Y0216664D01*
X0033658Y0216687D01*
X0033745Y0216705D01*
X0033833Y0216720D01*
X0033922Y0216731D01*
X0034011Y0216738D01*
X0034100Y0216741D01*
X0034189Y0216740D01*
X0034278Y0216735D01*
X0034366Y0216726D01*
X0034455Y0216713D01*
X0034542Y0216696D01*
X0034629Y0216676D01*
X0034715Y0216651D01*
X0034799Y0216623D01*
X0034882Y0216591D01*
X0034964Y0216555D01*
X0035044Y0216516D01*
X0035122Y0216473D01*
X0035198Y0216427D01*
X0035272Y0216377D01*
X0035344Y0216324D01*
X0035413Y0216268D01*
X0035480Y0216209D01*
X0035544Y0216147D01*
X0035605Y0216083D01*
X0035664Y0216015D01*
X0035719Y0215945D01*
X0035771Y0215873D01*
X0035820Y0215798D01*
X0035865Y0215722D01*
X0035907Y0215643D01*
X0035945Y0215563D01*
X0035980Y0215481D01*
X0036011Y0215397D01*
X0036039Y0215312D01*
X0036062Y0215226D01*
X0036082Y0215139D01*
X0036098Y0215052D01*
X0036110Y0214963D01*
X0036118Y0214875D01*
X0036122Y0214786D01*
X0036122Y0214696D01*
X0036118Y0214607D01*
X0036110Y0214519D01*
X0036098Y0214430D01*
X0036082Y0214343D01*
X0036062Y0214256D01*
X0036039Y0214170D01*
X0036011Y0214085D01*
X0035980Y0214001D01*
X0035945Y0213919D01*
X0035907Y0213839D01*
X0035865Y0213760D01*
X0035820Y0213684D01*
X0035771Y0213609D01*
X0035719Y0213537D01*
X0035664Y0213467D01*
X0035605Y0213399D01*
X0035544Y0213335D01*
X0035480Y0213273D01*
X0035413Y0213214D01*
X0035344Y0213158D01*
X0035272Y0213105D01*
X0035198Y0213055D01*
X0035122Y0213009D01*
X0035044Y0212966D01*
X0034964Y0212927D01*
X0034882Y0212891D01*
X0034799Y0212859D01*
X0034715Y0212831D01*
X0034629Y0212806D01*
X0034542Y0212786D01*
X0034455Y0212769D01*
X0034366Y0212756D01*
X0034278Y0212747D01*
X0034189Y0212742D01*
X0034100Y0212741D01*
X0034011Y0212744D01*
X0033922Y0212751D01*
X0033833Y0212762D01*
X0033745Y0212777D01*
X0033658Y0212795D01*
X0033572Y0212818D01*
X0033487Y0212844D01*
X0033403Y0212875D01*
X0033321Y0212909D01*
X0033240Y0212946D01*
X0033161Y0212987D01*
X0033084Y0213032D01*
X0033009Y0213080D01*
X0032936Y0213131D01*
X0032865Y0213185D01*
X0032797Y0213243D01*
X0032732Y0213303D01*
X0032669Y0213367D01*
X0032609Y0213433D01*
X0032552Y0213502D01*
X0032499Y0213573D01*
X0032448Y0213646D01*
X0032401Y0213722D01*
X0032358Y0213799D01*
X0032317Y0213879D01*
X0032281Y0213960D01*
X0032248Y0214043D01*
X0032219Y0214127D01*
X0032193Y0214213D01*
X0032171Y0214299D01*
X0032154Y0214386D01*
X0032140Y0214474D01*
X0032130Y0214563D01*
X0032124Y0214652D01*
X0032122Y0214741D01*
X0032122Y0234412D02*
X0032124Y0234501D01*
X0032130Y0234590D01*
X0032140Y0234679D01*
X0032154Y0234767D01*
X0032171Y0234854D01*
X0032193Y0234940D01*
X0032219Y0235026D01*
X0032248Y0235110D01*
X0032281Y0235193D01*
X0032317Y0235274D01*
X0032358Y0235354D01*
X0032401Y0235431D01*
X0032448Y0235507D01*
X0032499Y0235580D01*
X0032552Y0235651D01*
X0032609Y0235720D01*
X0032669Y0235786D01*
X0032732Y0235850D01*
X0032797Y0235910D01*
X0032865Y0235968D01*
X0032936Y0236022D01*
X0033009Y0236073D01*
X0033084Y0236121D01*
X0033161Y0236166D01*
X0033240Y0236207D01*
X0033321Y0236244D01*
X0033403Y0236278D01*
X0033487Y0236309D01*
X0033572Y0236335D01*
X0033658Y0236358D01*
X0033745Y0236376D01*
X0033833Y0236391D01*
X0033922Y0236402D01*
X0034011Y0236409D01*
X0034100Y0236412D01*
X0034189Y0236411D01*
X0034278Y0236406D01*
X0034366Y0236397D01*
X0034455Y0236384D01*
X0034542Y0236367D01*
X0034629Y0236347D01*
X0034715Y0236322D01*
X0034799Y0236294D01*
X0034882Y0236262D01*
X0034964Y0236226D01*
X0035044Y0236187D01*
X0035122Y0236144D01*
X0035198Y0236098D01*
X0035272Y0236048D01*
X0035344Y0235995D01*
X0035413Y0235939D01*
X0035480Y0235880D01*
X0035544Y0235818D01*
X0035605Y0235754D01*
X0035664Y0235686D01*
X0035719Y0235616D01*
X0035771Y0235544D01*
X0035820Y0235469D01*
X0035865Y0235393D01*
X0035907Y0235314D01*
X0035945Y0235234D01*
X0035980Y0235152D01*
X0036011Y0235068D01*
X0036039Y0234983D01*
X0036062Y0234897D01*
X0036082Y0234810D01*
X0036098Y0234723D01*
X0036110Y0234634D01*
X0036118Y0234546D01*
X0036122Y0234457D01*
X0036122Y0234367D01*
X0036118Y0234278D01*
X0036110Y0234190D01*
X0036098Y0234101D01*
X0036082Y0234014D01*
X0036062Y0233927D01*
X0036039Y0233841D01*
X0036011Y0233756D01*
X0035980Y0233672D01*
X0035945Y0233590D01*
X0035907Y0233510D01*
X0035865Y0233431D01*
X0035820Y0233355D01*
X0035771Y0233280D01*
X0035719Y0233208D01*
X0035664Y0233138D01*
X0035605Y0233070D01*
X0035544Y0233006D01*
X0035480Y0232944D01*
X0035413Y0232885D01*
X0035344Y0232829D01*
X0035272Y0232776D01*
X0035198Y0232726D01*
X0035122Y0232680D01*
X0035044Y0232637D01*
X0034964Y0232598D01*
X0034882Y0232562D01*
X0034799Y0232530D01*
X0034715Y0232502D01*
X0034629Y0232477D01*
X0034542Y0232457D01*
X0034455Y0232440D01*
X0034366Y0232427D01*
X0034278Y0232418D01*
X0034189Y0232413D01*
X0034100Y0232412D01*
X0034011Y0232415D01*
X0033922Y0232422D01*
X0033833Y0232433D01*
X0033745Y0232448D01*
X0033658Y0232466D01*
X0033572Y0232489D01*
X0033487Y0232515D01*
X0033403Y0232546D01*
X0033321Y0232580D01*
X0033240Y0232617D01*
X0033161Y0232658D01*
X0033084Y0232703D01*
X0033009Y0232751D01*
X0032936Y0232802D01*
X0032865Y0232856D01*
X0032797Y0232914D01*
X0032732Y0232974D01*
X0032669Y0233038D01*
X0032609Y0233104D01*
X0032552Y0233173D01*
X0032499Y0233244D01*
X0032448Y0233317D01*
X0032401Y0233393D01*
X0032358Y0233470D01*
X0032317Y0233550D01*
X0032281Y0233631D01*
X0032248Y0233714D01*
X0032219Y0233798D01*
X0032193Y0233884D01*
X0032171Y0233970D01*
X0032154Y0234057D01*
X0032140Y0234145D01*
X0032130Y0234234D01*
X0032124Y0234323D01*
X0032122Y0234412D01*
X0032122Y0254112D02*
X0032124Y0254201D01*
X0032130Y0254290D01*
X0032140Y0254379D01*
X0032154Y0254467D01*
X0032171Y0254554D01*
X0032193Y0254640D01*
X0032219Y0254726D01*
X0032248Y0254810D01*
X0032281Y0254893D01*
X0032317Y0254974D01*
X0032358Y0255054D01*
X0032401Y0255131D01*
X0032448Y0255207D01*
X0032499Y0255280D01*
X0032552Y0255351D01*
X0032609Y0255420D01*
X0032669Y0255486D01*
X0032732Y0255550D01*
X0032797Y0255610D01*
X0032865Y0255668D01*
X0032936Y0255722D01*
X0033009Y0255773D01*
X0033084Y0255821D01*
X0033161Y0255866D01*
X0033240Y0255907D01*
X0033321Y0255944D01*
X0033403Y0255978D01*
X0033487Y0256009D01*
X0033572Y0256035D01*
X0033658Y0256058D01*
X0033745Y0256076D01*
X0033833Y0256091D01*
X0033922Y0256102D01*
X0034011Y0256109D01*
X0034100Y0256112D01*
X0034189Y0256111D01*
X0034278Y0256106D01*
X0034366Y0256097D01*
X0034455Y0256084D01*
X0034542Y0256067D01*
X0034629Y0256047D01*
X0034715Y0256022D01*
X0034799Y0255994D01*
X0034882Y0255962D01*
X0034964Y0255926D01*
X0035044Y0255887D01*
X0035122Y0255844D01*
X0035198Y0255798D01*
X0035272Y0255748D01*
X0035344Y0255695D01*
X0035413Y0255639D01*
X0035480Y0255580D01*
X0035544Y0255518D01*
X0035605Y0255454D01*
X0035664Y0255386D01*
X0035719Y0255316D01*
X0035771Y0255244D01*
X0035820Y0255169D01*
X0035865Y0255093D01*
X0035907Y0255014D01*
X0035945Y0254934D01*
X0035980Y0254852D01*
X0036011Y0254768D01*
X0036039Y0254683D01*
X0036062Y0254597D01*
X0036082Y0254510D01*
X0036098Y0254423D01*
X0036110Y0254334D01*
X0036118Y0254246D01*
X0036122Y0254157D01*
X0036122Y0254067D01*
X0036118Y0253978D01*
X0036110Y0253890D01*
X0036098Y0253801D01*
X0036082Y0253714D01*
X0036062Y0253627D01*
X0036039Y0253541D01*
X0036011Y0253456D01*
X0035980Y0253372D01*
X0035945Y0253290D01*
X0035907Y0253210D01*
X0035865Y0253131D01*
X0035820Y0253055D01*
X0035771Y0252980D01*
X0035719Y0252908D01*
X0035664Y0252838D01*
X0035605Y0252770D01*
X0035544Y0252706D01*
X0035480Y0252644D01*
X0035413Y0252585D01*
X0035344Y0252529D01*
X0035272Y0252476D01*
X0035198Y0252426D01*
X0035122Y0252380D01*
X0035044Y0252337D01*
X0034964Y0252298D01*
X0034882Y0252262D01*
X0034799Y0252230D01*
X0034715Y0252202D01*
X0034629Y0252177D01*
X0034542Y0252157D01*
X0034455Y0252140D01*
X0034366Y0252127D01*
X0034278Y0252118D01*
X0034189Y0252113D01*
X0034100Y0252112D01*
X0034011Y0252115D01*
X0033922Y0252122D01*
X0033833Y0252133D01*
X0033745Y0252148D01*
X0033658Y0252166D01*
X0033572Y0252189D01*
X0033487Y0252215D01*
X0033403Y0252246D01*
X0033321Y0252280D01*
X0033240Y0252317D01*
X0033161Y0252358D01*
X0033084Y0252403D01*
X0033009Y0252451D01*
X0032936Y0252502D01*
X0032865Y0252556D01*
X0032797Y0252614D01*
X0032732Y0252674D01*
X0032669Y0252738D01*
X0032609Y0252804D01*
X0032552Y0252873D01*
X0032499Y0252944D01*
X0032448Y0253017D01*
X0032401Y0253093D01*
X0032358Y0253170D01*
X0032317Y0253250D01*
X0032281Y0253331D01*
X0032248Y0253414D01*
X0032219Y0253498D01*
X0032193Y0253584D01*
X0032171Y0253670D01*
X0032154Y0253757D01*
X0032140Y0253845D01*
X0032130Y0253934D01*
X0032124Y0254023D01*
X0032122Y0254112D01*
X0039324Y0263911D02*
X0013324Y0263911D01*
X0013324Y0257612D01*
X0013324Y0263911D02*
X0003922Y0263911D01*
X0003922Y0224612D01*
X0013324Y0224612D01*
X0013324Y0230911D01*
X0013324Y0237911D02*
X0013324Y0250612D01*
X0044298Y0254113D02*
X0047234Y0254113D01*
X0045766Y0255581D02*
X0045766Y0252645D01*
X0049022Y0248782D02*
X0050490Y0247314D01*
X0053426Y0247314D01*
X0053426Y0245646D02*
X0053426Y0244178D01*
X0053426Y0244912D02*
X0049022Y0244912D01*
X0049022Y0245646D02*
X0049022Y0244178D01*
X0049022Y0242577D02*
X0053426Y0242577D01*
X0049022Y0239641D01*
X0053426Y0239641D01*
X0049022Y0248782D02*
X0050490Y0250250D01*
X0053426Y0250250D01*
X0045798Y0235545D02*
X0045798Y0232610D01*
X0045766Y0216081D02*
X0045766Y0213145D01*
X0044298Y0214613D02*
X0047234Y0214613D01*
X0049022Y0211647D02*
X0051958Y0211647D01*
X0053426Y0210179D01*
X0051958Y0208712D01*
X0049022Y0208712D01*
X0051224Y0208712D02*
X0051224Y0211647D01*
X0053426Y0207043D02*
X0053426Y0204108D01*
X0053426Y0205576D02*
X0049022Y0205576D01*
X0049022Y0202440D02*
X0053426Y0199504D01*
X0053426Y0202440D02*
X0049022Y0199504D01*
X0045798Y0196545D02*
X0045798Y0193610D01*
X0103599Y0191399D02*
X0103599Y0186399D01*
X0106099Y0183899D01*
X0111099Y0183899D01*
X0113599Y0186399D01*
X0113599Y0191399D01*
X0111099Y0193899D01*
X0113599Y0196399D01*
X0113599Y0201399D01*
X0111099Y0203899D01*
X0106099Y0203899D01*
X0103599Y0201399D01*
X0103599Y0196399D01*
X0106099Y0193899D01*
X0111099Y0193899D01*
X0106099Y0193899D02*
X0103599Y0191399D01*
X0106099Y0172403D02*
X0111099Y0172403D01*
X0113599Y0169903D01*
X0113599Y0164903D01*
X0111099Y0162403D01*
X0113599Y0159903D01*
X0113599Y0154903D01*
X0111099Y0152403D01*
X0106099Y0152403D01*
X0103599Y0154903D01*
X0103599Y0159903D01*
X0106099Y0162403D01*
X0103599Y0164903D01*
X0103599Y0169903D01*
X0106099Y0172403D01*
X0106099Y0162403D02*
X0111099Y0162403D01*
X0124798Y0152613D02*
X0127734Y0152613D01*
X0126266Y0154081D02*
X0126266Y0151145D01*
X0126298Y0140545D02*
X0126298Y0137610D01*
X0126266Y0126581D02*
X0126266Y0123645D01*
X0124798Y0125113D02*
X0127734Y0125113D01*
X0123000Y0124149D02*
X0123000Y0121213D01*
X0120064Y0124149D01*
X0119330Y0124149D01*
X0118596Y0123415D01*
X0118596Y0121947D01*
X0119330Y0121213D01*
X0118596Y0118077D02*
X0123000Y0118077D01*
X0123000Y0116610D02*
X0123000Y0119545D01*
X0120064Y0116610D02*
X0118596Y0118077D01*
X0120798Y0114941D02*
X0120798Y0112006D01*
X0119330Y0113474D02*
X0122266Y0113474D01*
X0126298Y0113045D02*
X0126298Y0110110D01*
X0126266Y0099081D02*
X0126266Y0096145D01*
X0124798Y0097613D02*
X0127734Y0097613D01*
X0126298Y0085545D02*
X0126298Y0082610D01*
X0126266Y0071581D02*
X0126266Y0068645D01*
X0124798Y0070113D02*
X0127734Y0070113D01*
X0126298Y0057545D02*
X0126298Y0054610D01*
X0126266Y0043581D02*
X0126266Y0040645D01*
X0124798Y0042113D02*
X0127734Y0042113D01*
X0123000Y0040415D02*
X0118596Y0040415D01*
X0120798Y0038213D01*
X0120798Y0041149D01*
X0120064Y0036545D02*
X0119330Y0036545D01*
X0118596Y0035811D01*
X0118596Y0034344D01*
X0119330Y0033610D01*
X0120798Y0031941D02*
X0120798Y0029006D01*
X0119330Y0030474D02*
X0122266Y0030474D01*
X0123000Y0033610D02*
X0120064Y0036545D01*
X0123000Y0036545D02*
X0123000Y0033610D01*
X0126298Y0030545D02*
X0126298Y0027610D01*
X0126266Y0016581D02*
X0126266Y0013645D01*
X0124798Y0015113D02*
X0127734Y0015113D01*
X0126298Y0165110D02*
X0126298Y0168045D01*
X0126266Y0179145D02*
X0126266Y0182081D01*
X0124798Y0180613D02*
X0127734Y0180613D01*
X0126298Y0192610D02*
X0126298Y0195545D01*
X0126266Y0206145D02*
X0126266Y0209081D01*
X0124798Y0207613D02*
X0127734Y0207613D01*
X0126298Y0220110D02*
X0126298Y0223045D01*
X0122266Y0228912D02*
X0123000Y0229645D01*
X0123000Y0231113D01*
X0122266Y0231847D01*
X0120798Y0231847D01*
X0120064Y0231113D01*
X0120064Y0230379D01*
X0120798Y0228912D01*
X0118596Y0228912D01*
X0118596Y0231847D01*
X0120798Y0227243D02*
X0120798Y0224308D01*
X0119330Y0225776D02*
X0122266Y0225776D01*
X0126266Y0234145D02*
X0126266Y0237081D01*
X0124798Y0235613D02*
X0127734Y0235613D01*
X0126298Y0247610D02*
X0126298Y0250545D01*
X0126266Y0261645D02*
X0126266Y0264581D01*
X0124798Y0263113D02*
X0127734Y0263113D01*
X0126298Y0275110D02*
X0126298Y0278045D01*
D11*
X0115300Y0270612D02*
X0115300Y0021112D01*
X0115300Y0063112D02*
X0156300Y0063112D01*
X0156300Y0174112D02*
X0115300Y0174112D01*
D12*
X0110568Y0132875D02*
X0108599Y0132875D01*
X0110568Y0132875D02*
X0110568Y0130907D01*
X0110568Y0126970D02*
X0110568Y0121064D01*
X0108599Y0121064D01*
X0100725Y0121064D02*
X0098757Y0121064D01*
X0098757Y0126970D01*
X0098757Y0130907D02*
X0098757Y0132875D01*
X0100725Y0132875D01*
X0108989Y0095316D02*
X0108989Y0027316D01*
X0078989Y0027316D01*
X0078989Y0095316D01*
X0108989Y0095316D01*
X0065489Y0017365D02*
X0065489Y0013862D01*
X0063738Y0013862D01*
X0063154Y0014445D01*
X0063154Y0015613D01*
X0063738Y0016197D01*
X0065489Y0016197D01*
X0061836Y0016197D02*
X0061252Y0016197D01*
X0060084Y0015029D01*
X0060084Y0013862D02*
X0060084Y0016197D01*
X0058737Y0015613D02*
X0058737Y0013862D01*
X0056985Y0013862D01*
X0056401Y0014445D01*
X0056985Y0015029D01*
X0058737Y0015029D01*
X0058737Y0015613D02*
X0058153Y0016197D01*
X0056985Y0016197D01*
X0055053Y0015613D02*
X0055053Y0014445D01*
X0054470Y0013862D01*
X0053302Y0013862D01*
X0052718Y0014445D01*
X0052718Y0015613D01*
X0053302Y0016197D01*
X0054470Y0016197D01*
X0055053Y0015613D01*
X0055084Y0019862D02*
X0053916Y0019862D01*
X0053332Y0020445D01*
X0053332Y0021613D02*
X0054500Y0022197D01*
X0055084Y0022197D01*
X0055667Y0021613D01*
X0055667Y0020445D01*
X0055084Y0019862D01*
X0053332Y0021613D02*
X0053332Y0023365D01*
X0055667Y0023365D01*
X0051984Y0019862D02*
X0049649Y0019862D01*
X0050817Y0019862D02*
X0050817Y0023365D01*
X0049649Y0022197D01*
X0049035Y0017365D02*
X0050786Y0017365D01*
X0051370Y0016781D01*
X0051370Y0016197D01*
X0050786Y0015613D01*
X0049035Y0015613D01*
X0049035Y0013862D02*
X0050786Y0013862D01*
X0051370Y0014445D01*
X0051370Y0015029D01*
X0050786Y0015613D01*
X0049035Y0013862D02*
X0049035Y0017365D01*
X0044618Y0019862D02*
X0044618Y0022197D01*
X0043450Y0023365D01*
X0042283Y0022197D01*
X0042283Y0019862D01*
X0040935Y0020445D02*
X0040935Y0023365D01*
X0042283Y0021613D02*
X0044618Y0021613D01*
X0040935Y0020445D02*
X0040351Y0019862D01*
X0039183Y0019862D01*
X0038599Y0020445D01*
X0038599Y0023365D01*
X0037252Y0023365D02*
X0037252Y0021029D01*
X0036084Y0019862D01*
X0034916Y0021029D01*
X0034916Y0023365D01*
X0033568Y0023365D02*
X0033568Y0020445D01*
X0032985Y0019862D01*
X0031817Y0019862D01*
X0031233Y0020445D01*
X0031233Y0023365D01*
X0029885Y0022197D02*
X0029885Y0019862D01*
X0029885Y0021613D02*
X0027550Y0021613D01*
X0027550Y0022197D02*
X0028718Y0023365D01*
X0029885Y0022197D01*
X0027550Y0022197D02*
X0027550Y0019862D01*
X0027550Y0017365D02*
X0029301Y0017365D01*
X0029885Y0016781D01*
X0029885Y0015613D01*
X0029301Y0015029D01*
X0027550Y0015029D01*
X0027550Y0013862D02*
X0027550Y0017365D01*
X0031233Y0015613D02*
X0031233Y0014445D01*
X0031817Y0013862D01*
X0032985Y0013862D01*
X0033568Y0014445D01*
X0033568Y0015613D01*
X0032985Y0016197D01*
X0031817Y0016197D01*
X0031233Y0015613D01*
X0034916Y0016197D02*
X0034916Y0014445D01*
X0035500Y0013862D01*
X0036084Y0014445D01*
X0036668Y0013862D01*
X0037252Y0014445D01*
X0037252Y0016197D01*
X0038599Y0015613D02*
X0039183Y0016197D01*
X0040351Y0016197D01*
X0040935Y0015613D01*
X0040935Y0015029D01*
X0038599Y0015029D01*
X0038599Y0014445D02*
X0038599Y0015613D01*
X0038599Y0014445D02*
X0039183Y0013862D01*
X0040351Y0013862D01*
X0042283Y0013862D02*
X0042283Y0016197D01*
X0043450Y0016197D02*
X0044034Y0016197D01*
X0043450Y0016197D02*
X0042283Y0015029D01*
X0042253Y0011365D02*
X0041669Y0010781D01*
X0042253Y0011365D02*
X0043420Y0011365D01*
X0044004Y0010781D01*
X0044004Y0010197D01*
X0041669Y0007862D01*
X0044004Y0007862D01*
X0036638Y0010197D02*
X0035470Y0007862D01*
X0034302Y0010197D01*
X0032955Y0009613D02*
X0032955Y0009029D01*
X0030619Y0009029D01*
X0030619Y0008445D02*
X0030619Y0009613D01*
X0031203Y0010197D01*
X0032371Y0010197D01*
X0032955Y0009613D01*
X0032371Y0007862D02*
X0031203Y0007862D01*
X0030619Y0008445D01*
X0029301Y0010197D02*
X0028718Y0010197D01*
X0027550Y0009029D01*
X0027550Y0007862D02*
X0027550Y0010197D01*
X0020792Y0087958D02*
X0016461Y0087958D01*
X0016461Y0095832D02*
X0020792Y0095832D01*
X0028919Y0198888D02*
X0028168Y0199638D01*
X0028168Y0201139D01*
X0028919Y0201890D01*
X0029669Y0201890D01*
X0032672Y0198888D01*
X0032672Y0201890D01*
X0032672Y0218388D02*
X0032672Y0221390D01*
X0032672Y0219889D02*
X0028168Y0219889D01*
X0029669Y0218388D01*
X0028919Y0238258D02*
X0028168Y0239008D01*
X0028168Y0240510D01*
X0028919Y0241260D01*
X0029669Y0241260D01*
X0032672Y0238258D01*
X0032672Y0241260D01*
X0032672Y0257758D02*
X0032672Y0260760D01*
X0032672Y0259259D02*
X0028168Y0259259D01*
X0029669Y0257758D01*
X0028967Y0280359D02*
X0027799Y0280359D01*
X0027215Y0280942D01*
X0027215Y0281526D01*
X0028383Y0282694D01*
X0028383Y0283278D02*
X0028383Y0283862D01*
X0029550Y0280942D02*
X0028967Y0280359D01*
X0030898Y0281526D02*
X0030898Y0283278D01*
X0031482Y0283862D01*
X0032066Y0283278D01*
X0032650Y0283862D01*
X0033234Y0283278D01*
X0033234Y0281526D01*
X0034581Y0282110D02*
X0035165Y0281526D01*
X0036333Y0281526D01*
X0036917Y0282110D01*
X0036917Y0283278D01*
X0036333Y0283862D01*
X0035165Y0283862D01*
X0034581Y0283278D01*
X0034581Y0282110D01*
X0038265Y0281526D02*
X0040016Y0281526D01*
X0040600Y0282110D01*
X0040600Y0283278D01*
X0040016Y0283862D01*
X0038265Y0283862D01*
X0045631Y0283862D02*
X0045631Y0282110D01*
X0046215Y0281526D01*
X0047966Y0281526D01*
X0047966Y0283862D01*
X0049314Y0283278D02*
X0049314Y0281526D01*
X0049314Y0283278D02*
X0049898Y0283862D01*
X0050482Y0283278D01*
X0051065Y0283862D01*
X0051649Y0283278D01*
X0051649Y0281526D01*
X0052997Y0282110D02*
X0053581Y0281526D01*
X0054749Y0281526D01*
X0055332Y0282110D01*
X0055332Y0283278D01*
X0054749Y0283862D01*
X0053581Y0283862D01*
X0052997Y0283278D01*
X0052997Y0282110D01*
X0056650Y0281526D02*
X0057234Y0281526D01*
X0058402Y0282694D01*
X0058402Y0283862D02*
X0058402Y0281526D01*
X0059750Y0282110D02*
X0060333Y0281526D01*
X0062085Y0281526D01*
X0062085Y0280359D02*
X0062085Y0283862D01*
X0060333Y0283862D01*
X0059750Y0283278D01*
X0059750Y0282110D01*
X0067116Y0281526D02*
X0067116Y0283278D01*
X0067700Y0283862D01*
X0068283Y0283278D01*
X0068867Y0283862D01*
X0069451Y0283278D01*
X0069451Y0281526D01*
X0070799Y0282110D02*
X0071383Y0281526D01*
X0072550Y0281526D01*
X0073134Y0282110D01*
X0073134Y0283278D01*
X0072550Y0283862D01*
X0071383Y0283862D01*
X0070799Y0283278D01*
X0070799Y0282110D01*
X0074482Y0282110D02*
X0074482Y0283862D01*
X0074482Y0282110D02*
X0075066Y0281526D01*
X0076817Y0281526D01*
X0076817Y0283862D01*
X0081848Y0283278D02*
X0081848Y0281526D01*
X0081848Y0283278D02*
X0082432Y0283862D01*
X0083016Y0283278D01*
X0083600Y0283862D01*
X0084184Y0283278D01*
X0084184Y0281526D01*
X0085532Y0282110D02*
X0086115Y0281526D01*
X0087283Y0281526D01*
X0087867Y0282110D01*
X0087867Y0283278D01*
X0087283Y0283862D01*
X0086115Y0283862D01*
X0085532Y0283278D01*
X0085532Y0282110D01*
X0089215Y0282110D02*
X0089215Y0283862D01*
X0089215Y0282110D02*
X0089799Y0281526D01*
X0090966Y0281526D01*
X0091550Y0282110D01*
X0091550Y0280359D02*
X0091550Y0283862D01*
X0098757Y0231301D02*
X0100725Y0231301D01*
X0098757Y0231301D02*
X0098757Y0229332D01*
X0098757Y0225395D02*
X0098757Y0219489D01*
X0100725Y0219489D01*
X0108599Y0219489D02*
X0110568Y0219489D01*
X0110568Y0225395D01*
X0110568Y0229332D02*
X0110568Y0231301D01*
X0108599Y0231301D01*
D13*
X0109602Y0245343D02*
X0109085Y0245860D01*
X0109602Y0245343D02*
X0110636Y0245343D01*
X0111153Y0245860D01*
X0111153Y0246894D01*
X0110636Y0247411D01*
X0110119Y0247411D01*
X0109085Y0246894D01*
X0109085Y0248446D01*
X0111153Y0248446D01*
X0107931Y0247929D02*
X0107414Y0248446D01*
X0106379Y0248446D01*
X0105862Y0247929D01*
X0105862Y0245860D01*
X0106379Y0245343D01*
X0107414Y0245343D01*
X0107931Y0245860D01*
X0107738Y0216009D02*
X0106704Y0216009D01*
X0106187Y0215492D01*
X0105032Y0215492D02*
X0104515Y0216009D01*
X0103481Y0216009D01*
X0102964Y0215492D01*
X0102964Y0213423D01*
X0103481Y0212906D01*
X0104515Y0212906D01*
X0105032Y0213423D01*
X0106187Y0212906D02*
X0108255Y0214974D01*
X0108255Y0215492D01*
X0107738Y0216009D01*
X0108255Y0212906D02*
X0106187Y0212906D01*
X0101850Y0212906D02*
X0100815Y0212906D01*
X0101333Y0212906D02*
X0101333Y0216009D01*
X0101850Y0216009D02*
X0100815Y0216009D01*
X0098682Y0200036D02*
X0098165Y0200036D01*
X0097648Y0199519D01*
X0097648Y0198484D01*
X0097131Y0197967D01*
X0096614Y0197967D01*
X0096097Y0198484D01*
X0096097Y0199519D01*
X0096614Y0200036D01*
X0096614Y0196813D02*
X0096097Y0196296D01*
X0096097Y0195262D01*
X0096614Y0194744D01*
X0098682Y0194744D01*
X0099199Y0195262D01*
X0099199Y0196296D01*
X0098682Y0196813D01*
X0098682Y0197967D02*
X0099199Y0198484D01*
X0099199Y0199519D01*
X0098682Y0200036D01*
X0098165Y0193590D02*
X0096097Y0193590D01*
X0098165Y0193590D02*
X0099199Y0192556D01*
X0098165Y0191522D01*
X0096097Y0191522D01*
X0096097Y0190367D02*
X0096097Y0188299D01*
X0097648Y0188299D01*
X0097131Y0189333D01*
X0097131Y0189850D01*
X0097648Y0190367D01*
X0098682Y0190367D01*
X0099199Y0189850D01*
X0099199Y0188816D01*
X0098682Y0188299D01*
X0098682Y0169762D02*
X0098165Y0169762D01*
X0097648Y0169245D01*
X0097648Y0168211D01*
X0097131Y0167694D01*
X0096614Y0167694D01*
X0096097Y0168211D01*
X0096097Y0169245D01*
X0096614Y0169762D01*
X0096614Y0166540D02*
X0096097Y0166022D01*
X0096097Y0164988D01*
X0096614Y0164471D01*
X0098682Y0164471D01*
X0099199Y0164988D01*
X0099199Y0166022D01*
X0098682Y0166540D01*
X0098682Y0167694D02*
X0099199Y0168211D01*
X0099199Y0169245D01*
X0098682Y0169762D01*
X0098165Y0163317D02*
X0096097Y0163317D01*
X0098165Y0163317D02*
X0099199Y0162283D01*
X0098165Y0161248D01*
X0096097Y0161248D01*
X0096614Y0160094D02*
X0096097Y0159577D01*
X0096097Y0158543D01*
X0096614Y0158026D01*
X0096614Y0160094D02*
X0097131Y0160094D01*
X0099199Y0158026D01*
X0099199Y0160094D01*
X0099199Y0156871D02*
X0099199Y0154803D01*
X0099199Y0155837D02*
X0096097Y0155837D01*
X0097131Y0154803D01*
X0105362Y0149503D02*
X0105362Y0147435D01*
X0105879Y0146918D01*
X0106914Y0146918D01*
X0107431Y0147435D01*
X0108585Y0147435D02*
X0109102Y0146918D01*
X0110136Y0146918D01*
X0110653Y0147435D01*
X0110653Y0147952D01*
X0110136Y0148469D01*
X0108585Y0148469D01*
X0108585Y0147435D01*
X0108585Y0148469D02*
X0109619Y0149503D01*
X0110653Y0150020D01*
X0107431Y0149503D02*
X0106914Y0150020D01*
X0105879Y0150020D01*
X0105362Y0149503D01*
X0104440Y0117509D02*
X0103406Y0117509D01*
X0102889Y0116992D01*
X0102889Y0114923D01*
X0103406Y0114406D01*
X0104440Y0114406D01*
X0104958Y0114923D01*
X0106112Y0114406D02*
X0108180Y0114406D01*
X0107146Y0114406D02*
X0107146Y0117509D01*
X0106112Y0116474D01*
X0104958Y0116992D02*
X0104440Y0117509D01*
X0101775Y0117509D02*
X0100741Y0117509D01*
X0101258Y0117509D02*
X0101258Y0114406D01*
X0100741Y0114406D02*
X0101775Y0114406D01*
X0129162Y0117301D02*
X0136004Y0117301D01*
X0136004Y0146828D01*
X0129162Y0146828D01*
X0129162Y0117301D01*
X0129162Y0119269D02*
X0136004Y0119269D01*
X0137876Y0119269D01*
X0137876Y0089741D01*
X0149896Y0089741D01*
X0151797Y0089741D01*
X0154993Y0089741D01*
X0156721Y0089741D01*
X0157902Y0089741D01*
X0157902Y0119269D01*
X0156721Y0119269D01*
X0154993Y0119269D01*
X0154993Y0089741D01*
X0156721Y0089741D02*
X0156721Y0119269D01*
X0154993Y0119269D02*
X0151797Y0119269D01*
X0149896Y0119269D01*
X0149896Y0089741D01*
X0150088Y0088146D02*
X0149054Y0088146D01*
X0148537Y0087629D01*
X0147382Y0088146D02*
X0145314Y0085044D01*
X0138217Y0083836D02*
X0138219Y0083987D01*
X0138225Y0084137D01*
X0138235Y0084288D01*
X0138249Y0084438D01*
X0138267Y0084587D01*
X0138288Y0084737D01*
X0138314Y0084885D01*
X0138344Y0085033D01*
X0138377Y0085180D01*
X0138415Y0085326D01*
X0138456Y0085471D01*
X0138501Y0085615D01*
X0138550Y0085757D01*
X0138603Y0085898D01*
X0138659Y0086038D01*
X0138719Y0086176D01*
X0138782Y0086313D01*
X0138850Y0086448D01*
X0138920Y0086581D01*
X0138994Y0086712D01*
X0139072Y0086841D01*
X0139153Y0086968D01*
X0139237Y0087093D01*
X0139325Y0087216D01*
X0139416Y0087336D01*
X0139510Y0087454D01*
X0139607Y0087569D01*
X0139707Y0087682D01*
X0139810Y0087792D01*
X0139916Y0087899D01*
X0140025Y0088004D01*
X0140136Y0088105D01*
X0140250Y0088204D01*
X0140366Y0088299D01*
X0140486Y0088392D01*
X0140607Y0088481D01*
X0140731Y0088567D01*
X0140857Y0088650D01*
X0140985Y0088729D01*
X0141115Y0088805D01*
X0141247Y0088878D01*
X0141381Y0088946D01*
X0141517Y0089012D01*
X0141655Y0089074D01*
X0141794Y0089132D01*
X0141934Y0089186D01*
X0142076Y0089237D01*
X0142219Y0089284D01*
X0142364Y0089327D01*
X0142509Y0089366D01*
X0142656Y0089402D01*
X0142803Y0089433D01*
X0142951Y0089461D01*
X0143100Y0089485D01*
X0143249Y0089505D01*
X0143399Y0089521D01*
X0143549Y0089533D01*
X0143700Y0089541D01*
X0143851Y0089545D01*
X0144001Y0089545D01*
X0144152Y0089541D01*
X0144303Y0089533D01*
X0144453Y0089521D01*
X0144603Y0089505D01*
X0144752Y0089485D01*
X0144901Y0089461D01*
X0145049Y0089433D01*
X0145196Y0089402D01*
X0145343Y0089366D01*
X0145488Y0089327D01*
X0145633Y0089284D01*
X0145776Y0089237D01*
X0145918Y0089186D01*
X0146058Y0089132D01*
X0146197Y0089074D01*
X0146335Y0089012D01*
X0146471Y0088946D01*
X0146605Y0088878D01*
X0146737Y0088805D01*
X0146867Y0088729D01*
X0146995Y0088650D01*
X0147121Y0088567D01*
X0147245Y0088481D01*
X0147366Y0088392D01*
X0147486Y0088299D01*
X0147602Y0088204D01*
X0147716Y0088105D01*
X0147827Y0088004D01*
X0147936Y0087899D01*
X0148042Y0087792D01*
X0148145Y0087682D01*
X0148245Y0087569D01*
X0148342Y0087454D01*
X0148436Y0087336D01*
X0148527Y0087216D01*
X0148615Y0087093D01*
X0148699Y0086968D01*
X0148780Y0086841D01*
X0148858Y0086712D01*
X0148932Y0086581D01*
X0149002Y0086448D01*
X0149070Y0086313D01*
X0149133Y0086176D01*
X0149193Y0086038D01*
X0149249Y0085898D01*
X0149302Y0085757D01*
X0149351Y0085615D01*
X0149396Y0085471D01*
X0149437Y0085326D01*
X0149475Y0085180D01*
X0149508Y0085033D01*
X0149538Y0084885D01*
X0149564Y0084737D01*
X0149585Y0084587D01*
X0149603Y0084438D01*
X0149617Y0084288D01*
X0149627Y0084137D01*
X0149633Y0083987D01*
X0149635Y0083836D01*
X0149633Y0083685D01*
X0149627Y0083535D01*
X0149617Y0083384D01*
X0149603Y0083234D01*
X0149585Y0083085D01*
X0149564Y0082935D01*
X0149538Y0082787D01*
X0149508Y0082639D01*
X0149475Y0082492D01*
X0149437Y0082346D01*
X0149396Y0082201D01*
X0149351Y0082057D01*
X0149302Y0081915D01*
X0149249Y0081774D01*
X0149193Y0081634D01*
X0149133Y0081496D01*
X0149070Y0081359D01*
X0149002Y0081224D01*
X0148932Y0081091D01*
X0148858Y0080960D01*
X0148780Y0080831D01*
X0148699Y0080704D01*
X0148615Y0080579D01*
X0148527Y0080456D01*
X0148436Y0080336D01*
X0148342Y0080218D01*
X0148245Y0080103D01*
X0148145Y0079990D01*
X0148042Y0079880D01*
X0147936Y0079773D01*
X0147827Y0079668D01*
X0147716Y0079567D01*
X0147602Y0079468D01*
X0147486Y0079373D01*
X0147366Y0079280D01*
X0147245Y0079191D01*
X0147121Y0079105D01*
X0146995Y0079022D01*
X0146867Y0078943D01*
X0146737Y0078867D01*
X0146605Y0078794D01*
X0146471Y0078726D01*
X0146335Y0078660D01*
X0146197Y0078598D01*
X0146058Y0078540D01*
X0145918Y0078486D01*
X0145776Y0078435D01*
X0145633Y0078388D01*
X0145488Y0078345D01*
X0145343Y0078306D01*
X0145196Y0078270D01*
X0145049Y0078239D01*
X0144901Y0078211D01*
X0144752Y0078187D01*
X0144603Y0078167D01*
X0144453Y0078151D01*
X0144303Y0078139D01*
X0144152Y0078131D01*
X0144001Y0078127D01*
X0143851Y0078127D01*
X0143700Y0078131D01*
X0143549Y0078139D01*
X0143399Y0078151D01*
X0143249Y0078167D01*
X0143100Y0078187D01*
X0142951Y0078211D01*
X0142803Y0078239D01*
X0142656Y0078270D01*
X0142509Y0078306D01*
X0142364Y0078345D01*
X0142219Y0078388D01*
X0142076Y0078435D01*
X0141934Y0078486D01*
X0141794Y0078540D01*
X0141655Y0078598D01*
X0141517Y0078660D01*
X0141381Y0078726D01*
X0141247Y0078794D01*
X0141115Y0078867D01*
X0140985Y0078943D01*
X0140857Y0079022D01*
X0140731Y0079105D01*
X0140607Y0079191D01*
X0140486Y0079280D01*
X0140366Y0079373D01*
X0140250Y0079468D01*
X0140136Y0079567D01*
X0140025Y0079668D01*
X0139916Y0079773D01*
X0139810Y0079880D01*
X0139707Y0079990D01*
X0139607Y0080103D01*
X0139510Y0080218D01*
X0139416Y0080336D01*
X0139325Y0080456D01*
X0139237Y0080579D01*
X0139153Y0080704D01*
X0139072Y0080831D01*
X0138994Y0080960D01*
X0138920Y0081091D01*
X0138850Y0081224D01*
X0138782Y0081359D01*
X0138719Y0081496D01*
X0138659Y0081634D01*
X0138603Y0081774D01*
X0138550Y0081915D01*
X0138501Y0082057D01*
X0138456Y0082201D01*
X0138415Y0082346D01*
X0138377Y0082492D01*
X0138344Y0082639D01*
X0138314Y0082787D01*
X0138288Y0082935D01*
X0138267Y0083085D01*
X0138249Y0083234D01*
X0138235Y0083384D01*
X0138225Y0083535D01*
X0138219Y0083685D01*
X0138217Y0083836D01*
X0134582Y0085304D02*
X0134582Y0082235D01*
X0131513Y0085304D01*
X0130746Y0085304D01*
X0129978Y0084537D01*
X0129978Y0083002D01*
X0130746Y0082235D01*
X0129162Y0089741D02*
X0136004Y0089741D01*
X0136004Y0119269D01*
X0137876Y0119269D02*
X0149896Y0119269D01*
X0149896Y0117301D02*
X0151797Y0117301D01*
X0154993Y0117301D01*
X0156721Y0117301D01*
X0157902Y0117301D01*
X0157902Y0146828D01*
X0156721Y0146828D01*
X0154993Y0146828D01*
X0154993Y0117301D01*
X0156721Y0117301D02*
X0156721Y0146828D01*
X0154993Y0146828D02*
X0151797Y0146828D01*
X0149896Y0146828D01*
X0149896Y0117301D01*
X0137876Y0117301D01*
X0137876Y0146828D01*
X0136004Y0146828D01*
X0137876Y0146828D02*
X0149896Y0146828D01*
X0149896Y0144860D02*
X0151797Y0144860D01*
X0154993Y0144860D01*
X0156721Y0144860D01*
X0157902Y0144860D01*
X0157902Y0174387D01*
X0156721Y0174387D01*
X0154993Y0174387D01*
X0154993Y0144860D01*
X0156721Y0144860D02*
X0156721Y0174387D01*
X0154993Y0174387D02*
X0151797Y0174387D01*
X0149896Y0174387D01*
X0149896Y0144860D01*
X0137876Y0144860D01*
X0137876Y0174387D01*
X0136004Y0174387D01*
X0129162Y0174387D01*
X0129162Y0144860D01*
X0136004Y0144860D01*
X0136004Y0174387D01*
X0137876Y0174387D02*
X0149896Y0174387D01*
X0149896Y0172419D02*
X0151797Y0172419D01*
X0154993Y0172419D01*
X0156721Y0172419D01*
X0157902Y0172419D01*
X0157902Y0201946D01*
X0156721Y0201946D01*
X0154993Y0201946D01*
X0154993Y0172419D01*
X0156721Y0172419D02*
X0156721Y0201946D01*
X0154993Y0201946D02*
X0151797Y0201946D01*
X0149896Y0201946D01*
X0149896Y0172419D01*
X0137876Y0172419D01*
X0137876Y0201946D01*
X0136004Y0201946D01*
X0129162Y0201946D01*
X0129162Y0172419D01*
X0136004Y0172419D01*
X0136004Y0201946D01*
X0137876Y0201946D02*
X0149896Y0201946D01*
X0149896Y0199978D02*
X0151797Y0199978D01*
X0154993Y0199978D01*
X0156721Y0199978D01*
X0157902Y0199978D01*
X0157902Y0229505D01*
X0156721Y0229505D01*
X0154993Y0229505D01*
X0154993Y0199978D01*
X0156721Y0199978D02*
X0156721Y0229505D01*
X0154993Y0229505D02*
X0151797Y0229505D01*
X0149896Y0229505D01*
X0149896Y0199978D01*
X0137876Y0199978D01*
X0137876Y0229505D01*
X0136004Y0229505D01*
X0129162Y0229505D01*
X0129162Y0199978D01*
X0136004Y0199978D01*
X0136004Y0229505D01*
X0137876Y0229505D02*
X0149896Y0229505D01*
X0149896Y0227537D02*
X0151797Y0227537D01*
X0154993Y0227537D01*
X0156721Y0227537D01*
X0157902Y0227537D01*
X0157902Y0257064D01*
X0156721Y0257064D01*
X0154993Y0257064D01*
X0154993Y0227537D01*
X0156721Y0227537D02*
X0156721Y0257064D01*
X0154993Y0257064D02*
X0151797Y0257064D01*
X0149896Y0257064D01*
X0149896Y0227537D01*
X0137876Y0227537D01*
X0137876Y0257064D01*
X0136004Y0257064D01*
X0129162Y0257064D01*
X0129162Y0227537D01*
X0136004Y0227537D01*
X0136004Y0257064D01*
X0137876Y0257064D02*
X0149896Y0257064D01*
X0149896Y0255096D02*
X0151797Y0255096D01*
X0154993Y0255096D01*
X0156721Y0255096D01*
X0157902Y0255096D01*
X0157902Y0284623D01*
X0156721Y0284623D01*
X0154993Y0284623D01*
X0154993Y0255096D01*
X0156721Y0255096D02*
X0156721Y0284623D01*
X0154993Y0284623D02*
X0151797Y0284623D01*
X0149896Y0284623D01*
X0149896Y0255096D01*
X0137876Y0255096D01*
X0137876Y0284623D01*
X0136004Y0284623D01*
X0129162Y0284623D01*
X0129162Y0255096D01*
X0136004Y0255096D01*
X0136004Y0284623D01*
X0137876Y0284623D02*
X0149896Y0284623D01*
X0151797Y0284623D02*
X0151797Y0255096D01*
X0152282Y0256198D02*
X0152282Y0258698D01*
X0154782Y0257448D01*
X0152282Y0256198D01*
X0152282Y0256369D02*
X0152624Y0256369D01*
X0152282Y0256768D02*
X0153421Y0256768D01*
X0154218Y0257166D02*
X0152282Y0257166D01*
X0152282Y0257565D02*
X0154549Y0257565D01*
X0153752Y0257963D02*
X0152282Y0257963D01*
X0152282Y0258362D02*
X0152955Y0258362D01*
X0151797Y0257064D02*
X0151797Y0227537D01*
X0152282Y0228639D02*
X0152282Y0231139D01*
X0154782Y0229889D01*
X0152282Y0228639D01*
X0152282Y0228872D02*
X0152748Y0228872D01*
X0152282Y0229270D02*
X0153545Y0229270D01*
X0154342Y0229669D02*
X0152282Y0229669D01*
X0152282Y0230067D02*
X0154426Y0230067D01*
X0153629Y0230466D02*
X0152282Y0230466D01*
X0152282Y0230864D02*
X0152832Y0230864D01*
X0151797Y0229505D02*
X0151797Y0199978D01*
X0152282Y0201080D02*
X0152282Y0203580D01*
X0154782Y0202330D01*
X0152282Y0201080D01*
X0152282Y0201375D02*
X0152871Y0201375D01*
X0152282Y0201773D02*
X0153669Y0201773D01*
X0154466Y0202172D02*
X0152282Y0202172D01*
X0152282Y0202570D02*
X0154302Y0202570D01*
X0153505Y0202969D02*
X0152282Y0202969D01*
X0152282Y0203367D02*
X0152708Y0203367D01*
X0151797Y0201946D02*
X0151797Y0172419D01*
X0152282Y0173521D02*
X0152282Y0176021D01*
X0154782Y0174771D01*
X0152282Y0173521D01*
X0152282Y0173877D02*
X0152995Y0173877D01*
X0152282Y0174276D02*
X0153792Y0174276D01*
X0154178Y0175073D02*
X0152282Y0175073D01*
X0152282Y0175471D02*
X0153381Y0175471D01*
X0152584Y0175870D02*
X0152282Y0175870D01*
X0152282Y0174674D02*
X0154589Y0174674D01*
X0151797Y0174387D02*
X0151797Y0144860D01*
X0152282Y0145962D02*
X0152282Y0148462D01*
X0154782Y0147212D01*
X0152282Y0145962D01*
X0152282Y0145982D02*
X0152322Y0145982D01*
X0152282Y0146380D02*
X0153119Y0146380D01*
X0153916Y0146779D02*
X0152282Y0146779D01*
X0152282Y0147177D02*
X0154713Y0147177D01*
X0154055Y0147576D02*
X0152282Y0147576D01*
X0152282Y0147974D02*
X0153258Y0147974D01*
X0152461Y0148373D02*
X0152282Y0148373D01*
X0151797Y0146828D02*
X0151797Y0117301D01*
X0152282Y0118403D02*
X0152282Y0120903D01*
X0154782Y0119653D01*
X0152282Y0118403D01*
X0152282Y0118484D02*
X0152445Y0118484D01*
X0152282Y0118883D02*
X0153242Y0118883D01*
X0154039Y0119281D02*
X0152282Y0119281D01*
X0152282Y0119680D02*
X0154728Y0119680D01*
X0153931Y0120078D02*
X0152282Y0120078D01*
X0152282Y0120477D02*
X0153134Y0120477D01*
X0152337Y0120875D02*
X0152282Y0120875D01*
X0151797Y0119269D02*
X0151797Y0089741D01*
X0152282Y0090844D02*
X0152282Y0093344D01*
X0154782Y0092094D01*
X0152282Y0090844D01*
X0152282Y0090987D02*
X0152569Y0090987D01*
X0152282Y0091386D02*
X0153366Y0091386D01*
X0154163Y0091784D02*
X0152282Y0091784D01*
X0152282Y0092183D02*
X0154605Y0092183D01*
X0154993Y0091710D02*
X0151797Y0091710D01*
X0149896Y0091710D01*
X0149896Y0062182D01*
X0151797Y0062182D01*
X0154993Y0062182D01*
X0156721Y0062182D01*
X0157902Y0062182D01*
X0157902Y0091710D01*
X0156721Y0091710D01*
X0154993Y0091710D01*
X0154993Y0062182D01*
X0156721Y0062182D02*
X0156721Y0091710D01*
X0153808Y0092581D02*
X0152282Y0092581D01*
X0152282Y0092980D02*
X0153011Y0092980D01*
X0151797Y0091710D02*
X0151797Y0062182D01*
X0152282Y0063285D02*
X0152282Y0065785D01*
X0154782Y0064535D01*
X0152282Y0063285D01*
X0152282Y0063490D02*
X0152692Y0063490D01*
X0152282Y0063888D02*
X0153489Y0063888D01*
X0154286Y0064287D02*
X0152282Y0064287D01*
X0152282Y0064685D02*
X0154481Y0064685D01*
X0154993Y0064151D02*
X0151797Y0064151D01*
X0149896Y0064151D01*
X0149896Y0034623D01*
X0151797Y0034623D01*
X0154993Y0034623D01*
X0156721Y0034623D01*
X0157902Y0034623D01*
X0157902Y0064151D01*
X0156721Y0064151D01*
X0154993Y0064151D01*
X0154993Y0034623D01*
X0156721Y0034623D02*
X0156721Y0064151D01*
X0153684Y0065084D02*
X0152282Y0065084D01*
X0152282Y0065482D02*
X0152887Y0065482D01*
X0151797Y0064151D02*
X0151797Y0034623D01*
X0152282Y0035726D02*
X0152282Y0038226D01*
X0154782Y0036976D01*
X0152282Y0035726D01*
X0152282Y0035992D02*
X0152816Y0035992D01*
X0152282Y0036391D02*
X0153613Y0036391D01*
X0154410Y0036789D02*
X0152282Y0036789D01*
X0152282Y0037188D02*
X0154358Y0037188D01*
X0154993Y0036592D02*
X0151797Y0036592D01*
X0149896Y0036592D01*
X0149896Y0007064D01*
X0151797Y0007064D01*
X0154993Y0007064D01*
X0156721Y0007064D01*
X0157902Y0007064D01*
X0157902Y0036592D01*
X0156721Y0036592D01*
X0154993Y0036592D01*
X0154993Y0007064D01*
X0156721Y0007064D02*
X0156721Y0036592D01*
X0153561Y0037586D02*
X0152282Y0037586D01*
X0152282Y0037985D02*
X0152764Y0037985D01*
X0151797Y0036592D02*
X0151797Y0007064D01*
X0152282Y0008167D02*
X0152282Y0010667D01*
X0154782Y0009417D01*
X0152282Y0008167D01*
X0152282Y0008495D02*
X0152939Y0008495D01*
X0152282Y0008894D02*
X0153736Y0008894D01*
X0154533Y0009292D02*
X0152282Y0009292D01*
X0152282Y0009691D02*
X0154234Y0009691D01*
X0153437Y0010089D02*
X0152282Y0010089D01*
X0152282Y0010488D02*
X0152640Y0010488D01*
X0149896Y0007064D02*
X0137876Y0007064D01*
X0137876Y0036592D01*
X0136004Y0036592D01*
X0129162Y0036592D01*
X0129162Y0007064D01*
X0136004Y0007064D01*
X0136004Y0036592D01*
X0137876Y0036592D02*
X0149896Y0036592D01*
X0149896Y0034623D02*
X0137876Y0034623D01*
X0137876Y0064151D01*
X0136004Y0064151D01*
X0129162Y0064151D01*
X0129162Y0034623D01*
X0136004Y0034623D01*
X0136004Y0064151D01*
X0137876Y0064151D02*
X0149896Y0064151D01*
X0149896Y0062182D02*
X0137876Y0062182D01*
X0137876Y0091710D01*
X0136004Y0091710D01*
X0129162Y0091710D01*
X0129162Y0062182D01*
X0136004Y0062182D01*
X0136004Y0091710D01*
X0137876Y0091710D02*
X0149896Y0091710D01*
X0150088Y0088146D02*
X0150605Y0087629D01*
X0150605Y0087112D01*
X0148537Y0085044D01*
X0150605Y0085044D01*
X0151760Y0085561D02*
X0151760Y0087629D01*
X0152277Y0088146D01*
X0153311Y0088146D01*
X0153828Y0087629D01*
X0151760Y0085561D01*
X0152277Y0085044D01*
X0153311Y0085044D01*
X0153828Y0085561D01*
X0153828Y0087629D01*
X0147382Y0085044D02*
X0145314Y0088146D01*
X0141150Y0088560D02*
X0141127Y0088584D01*
X0137876Y0089741D02*
X0136004Y0089741D01*
X0134582Y0096044D02*
X0134582Y0099113D01*
X0134582Y0097578D02*
X0129978Y0097578D01*
X0131513Y0096044D01*
X0129162Y0089741D02*
X0129162Y0119269D01*
X0131513Y0123603D02*
X0129978Y0125138D01*
X0134582Y0125138D01*
X0134582Y0126672D02*
X0134582Y0123603D01*
X0136004Y0117301D02*
X0137876Y0117301D01*
X0141127Y0116143D02*
X0141150Y0116119D01*
X0138217Y0111395D02*
X0138219Y0111546D01*
X0138225Y0111696D01*
X0138235Y0111847D01*
X0138249Y0111997D01*
X0138267Y0112146D01*
X0138288Y0112296D01*
X0138314Y0112444D01*
X0138344Y0112592D01*
X0138377Y0112739D01*
X0138415Y0112885D01*
X0138456Y0113030D01*
X0138501Y0113174D01*
X0138550Y0113316D01*
X0138603Y0113457D01*
X0138659Y0113597D01*
X0138719Y0113735D01*
X0138782Y0113872D01*
X0138850Y0114007D01*
X0138920Y0114140D01*
X0138994Y0114271D01*
X0139072Y0114400D01*
X0139153Y0114527D01*
X0139237Y0114652D01*
X0139325Y0114775D01*
X0139416Y0114895D01*
X0139510Y0115013D01*
X0139607Y0115128D01*
X0139707Y0115241D01*
X0139810Y0115351D01*
X0139916Y0115458D01*
X0140025Y0115563D01*
X0140136Y0115664D01*
X0140250Y0115763D01*
X0140366Y0115858D01*
X0140486Y0115951D01*
X0140607Y0116040D01*
X0140731Y0116126D01*
X0140857Y0116209D01*
X0140985Y0116288D01*
X0141115Y0116364D01*
X0141247Y0116437D01*
X0141381Y0116505D01*
X0141517Y0116571D01*
X0141655Y0116633D01*
X0141794Y0116691D01*
X0141934Y0116745D01*
X0142076Y0116796D01*
X0142219Y0116843D01*
X0142364Y0116886D01*
X0142509Y0116925D01*
X0142656Y0116961D01*
X0142803Y0116992D01*
X0142951Y0117020D01*
X0143100Y0117044D01*
X0143249Y0117064D01*
X0143399Y0117080D01*
X0143549Y0117092D01*
X0143700Y0117100D01*
X0143851Y0117104D01*
X0144001Y0117104D01*
X0144152Y0117100D01*
X0144303Y0117092D01*
X0144453Y0117080D01*
X0144603Y0117064D01*
X0144752Y0117044D01*
X0144901Y0117020D01*
X0145049Y0116992D01*
X0145196Y0116961D01*
X0145343Y0116925D01*
X0145488Y0116886D01*
X0145633Y0116843D01*
X0145776Y0116796D01*
X0145918Y0116745D01*
X0146058Y0116691D01*
X0146197Y0116633D01*
X0146335Y0116571D01*
X0146471Y0116505D01*
X0146605Y0116437D01*
X0146737Y0116364D01*
X0146867Y0116288D01*
X0146995Y0116209D01*
X0147121Y0116126D01*
X0147245Y0116040D01*
X0147366Y0115951D01*
X0147486Y0115858D01*
X0147602Y0115763D01*
X0147716Y0115664D01*
X0147827Y0115563D01*
X0147936Y0115458D01*
X0148042Y0115351D01*
X0148145Y0115241D01*
X0148245Y0115128D01*
X0148342Y0115013D01*
X0148436Y0114895D01*
X0148527Y0114775D01*
X0148615Y0114652D01*
X0148699Y0114527D01*
X0148780Y0114400D01*
X0148858Y0114271D01*
X0148932Y0114140D01*
X0149002Y0114007D01*
X0149070Y0113872D01*
X0149133Y0113735D01*
X0149193Y0113597D01*
X0149249Y0113457D01*
X0149302Y0113316D01*
X0149351Y0113174D01*
X0149396Y0113030D01*
X0149437Y0112885D01*
X0149475Y0112739D01*
X0149508Y0112592D01*
X0149538Y0112444D01*
X0149564Y0112296D01*
X0149585Y0112146D01*
X0149603Y0111997D01*
X0149617Y0111847D01*
X0149627Y0111696D01*
X0149633Y0111546D01*
X0149635Y0111395D01*
X0149633Y0111244D01*
X0149627Y0111094D01*
X0149617Y0110943D01*
X0149603Y0110793D01*
X0149585Y0110644D01*
X0149564Y0110494D01*
X0149538Y0110346D01*
X0149508Y0110198D01*
X0149475Y0110051D01*
X0149437Y0109905D01*
X0149396Y0109760D01*
X0149351Y0109616D01*
X0149302Y0109474D01*
X0149249Y0109333D01*
X0149193Y0109193D01*
X0149133Y0109055D01*
X0149070Y0108918D01*
X0149002Y0108783D01*
X0148932Y0108650D01*
X0148858Y0108519D01*
X0148780Y0108390D01*
X0148699Y0108263D01*
X0148615Y0108138D01*
X0148527Y0108015D01*
X0148436Y0107895D01*
X0148342Y0107777D01*
X0148245Y0107662D01*
X0148145Y0107549D01*
X0148042Y0107439D01*
X0147936Y0107332D01*
X0147827Y0107227D01*
X0147716Y0107126D01*
X0147602Y0107027D01*
X0147486Y0106932D01*
X0147366Y0106839D01*
X0147245Y0106750D01*
X0147121Y0106664D01*
X0146995Y0106581D01*
X0146867Y0106502D01*
X0146737Y0106426D01*
X0146605Y0106353D01*
X0146471Y0106285D01*
X0146335Y0106219D01*
X0146197Y0106157D01*
X0146058Y0106099D01*
X0145918Y0106045D01*
X0145776Y0105994D01*
X0145633Y0105947D01*
X0145488Y0105904D01*
X0145343Y0105865D01*
X0145196Y0105829D01*
X0145049Y0105798D01*
X0144901Y0105770D01*
X0144752Y0105746D01*
X0144603Y0105726D01*
X0144453Y0105710D01*
X0144303Y0105698D01*
X0144152Y0105690D01*
X0144001Y0105686D01*
X0143851Y0105686D01*
X0143700Y0105690D01*
X0143549Y0105698D01*
X0143399Y0105710D01*
X0143249Y0105726D01*
X0143100Y0105746D01*
X0142951Y0105770D01*
X0142803Y0105798D01*
X0142656Y0105829D01*
X0142509Y0105865D01*
X0142364Y0105904D01*
X0142219Y0105947D01*
X0142076Y0105994D01*
X0141934Y0106045D01*
X0141794Y0106099D01*
X0141655Y0106157D01*
X0141517Y0106219D01*
X0141381Y0106285D01*
X0141247Y0106353D01*
X0141115Y0106426D01*
X0140985Y0106502D01*
X0140857Y0106581D01*
X0140731Y0106664D01*
X0140607Y0106750D01*
X0140486Y0106839D01*
X0140366Y0106932D01*
X0140250Y0107027D01*
X0140136Y0107126D01*
X0140025Y0107227D01*
X0139916Y0107332D01*
X0139810Y0107439D01*
X0139707Y0107549D01*
X0139607Y0107662D01*
X0139510Y0107777D01*
X0139416Y0107895D01*
X0139325Y0108015D01*
X0139237Y0108138D01*
X0139153Y0108263D01*
X0139072Y0108390D01*
X0138994Y0108519D01*
X0138920Y0108650D01*
X0138850Y0108783D01*
X0138782Y0108918D01*
X0138719Y0109055D01*
X0138659Y0109193D01*
X0138603Y0109333D01*
X0138550Y0109474D01*
X0138501Y0109616D01*
X0138456Y0109760D01*
X0138415Y0109905D01*
X0138377Y0110051D01*
X0138344Y0110198D01*
X0138314Y0110346D01*
X0138288Y0110494D01*
X0138267Y0110644D01*
X0138249Y0110793D01*
X0138235Y0110943D01*
X0138225Y0111094D01*
X0138219Y0111244D01*
X0138217Y0111395D01*
X0134582Y0112863D02*
X0134582Y0109794D01*
X0131513Y0112863D01*
X0130746Y0112863D01*
X0129978Y0112096D01*
X0129978Y0110561D01*
X0130746Y0109794D01*
X0141127Y0102364D02*
X0141150Y0102340D01*
X0138217Y0097615D02*
X0138219Y0097766D01*
X0138225Y0097916D01*
X0138235Y0098067D01*
X0138249Y0098217D01*
X0138267Y0098366D01*
X0138288Y0098516D01*
X0138314Y0098664D01*
X0138344Y0098812D01*
X0138377Y0098959D01*
X0138415Y0099105D01*
X0138456Y0099250D01*
X0138501Y0099394D01*
X0138550Y0099536D01*
X0138603Y0099677D01*
X0138659Y0099817D01*
X0138719Y0099955D01*
X0138782Y0100092D01*
X0138850Y0100227D01*
X0138920Y0100360D01*
X0138994Y0100491D01*
X0139072Y0100620D01*
X0139153Y0100747D01*
X0139237Y0100872D01*
X0139325Y0100995D01*
X0139416Y0101115D01*
X0139510Y0101233D01*
X0139607Y0101348D01*
X0139707Y0101461D01*
X0139810Y0101571D01*
X0139916Y0101678D01*
X0140025Y0101783D01*
X0140136Y0101884D01*
X0140250Y0101983D01*
X0140366Y0102078D01*
X0140486Y0102171D01*
X0140607Y0102260D01*
X0140731Y0102346D01*
X0140857Y0102429D01*
X0140985Y0102508D01*
X0141115Y0102584D01*
X0141247Y0102657D01*
X0141381Y0102725D01*
X0141517Y0102791D01*
X0141655Y0102853D01*
X0141794Y0102911D01*
X0141934Y0102965D01*
X0142076Y0103016D01*
X0142219Y0103063D01*
X0142364Y0103106D01*
X0142509Y0103145D01*
X0142656Y0103181D01*
X0142803Y0103212D01*
X0142951Y0103240D01*
X0143100Y0103264D01*
X0143249Y0103284D01*
X0143399Y0103300D01*
X0143549Y0103312D01*
X0143700Y0103320D01*
X0143851Y0103324D01*
X0144001Y0103324D01*
X0144152Y0103320D01*
X0144303Y0103312D01*
X0144453Y0103300D01*
X0144603Y0103284D01*
X0144752Y0103264D01*
X0144901Y0103240D01*
X0145049Y0103212D01*
X0145196Y0103181D01*
X0145343Y0103145D01*
X0145488Y0103106D01*
X0145633Y0103063D01*
X0145776Y0103016D01*
X0145918Y0102965D01*
X0146058Y0102911D01*
X0146197Y0102853D01*
X0146335Y0102791D01*
X0146471Y0102725D01*
X0146605Y0102657D01*
X0146737Y0102584D01*
X0146867Y0102508D01*
X0146995Y0102429D01*
X0147121Y0102346D01*
X0147245Y0102260D01*
X0147366Y0102171D01*
X0147486Y0102078D01*
X0147602Y0101983D01*
X0147716Y0101884D01*
X0147827Y0101783D01*
X0147936Y0101678D01*
X0148042Y0101571D01*
X0148145Y0101461D01*
X0148245Y0101348D01*
X0148342Y0101233D01*
X0148436Y0101115D01*
X0148527Y0100995D01*
X0148615Y0100872D01*
X0148699Y0100747D01*
X0148780Y0100620D01*
X0148858Y0100491D01*
X0148932Y0100360D01*
X0149002Y0100227D01*
X0149070Y0100092D01*
X0149133Y0099955D01*
X0149193Y0099817D01*
X0149249Y0099677D01*
X0149302Y0099536D01*
X0149351Y0099394D01*
X0149396Y0099250D01*
X0149437Y0099105D01*
X0149475Y0098959D01*
X0149508Y0098812D01*
X0149538Y0098664D01*
X0149564Y0098516D01*
X0149585Y0098366D01*
X0149603Y0098217D01*
X0149617Y0098067D01*
X0149627Y0097916D01*
X0149633Y0097766D01*
X0149635Y0097615D01*
X0149633Y0097464D01*
X0149627Y0097314D01*
X0149617Y0097163D01*
X0149603Y0097013D01*
X0149585Y0096864D01*
X0149564Y0096714D01*
X0149538Y0096566D01*
X0149508Y0096418D01*
X0149475Y0096271D01*
X0149437Y0096125D01*
X0149396Y0095980D01*
X0149351Y0095836D01*
X0149302Y0095694D01*
X0149249Y0095553D01*
X0149193Y0095413D01*
X0149133Y0095275D01*
X0149070Y0095138D01*
X0149002Y0095003D01*
X0148932Y0094870D01*
X0148858Y0094739D01*
X0148780Y0094610D01*
X0148699Y0094483D01*
X0148615Y0094358D01*
X0148527Y0094235D01*
X0148436Y0094115D01*
X0148342Y0093997D01*
X0148245Y0093882D01*
X0148145Y0093769D01*
X0148042Y0093659D01*
X0147936Y0093552D01*
X0147827Y0093447D01*
X0147716Y0093346D01*
X0147602Y0093247D01*
X0147486Y0093152D01*
X0147366Y0093059D01*
X0147245Y0092970D01*
X0147121Y0092884D01*
X0146995Y0092801D01*
X0146867Y0092722D01*
X0146737Y0092646D01*
X0146605Y0092573D01*
X0146471Y0092505D01*
X0146335Y0092439D01*
X0146197Y0092377D01*
X0146058Y0092319D01*
X0145918Y0092265D01*
X0145776Y0092214D01*
X0145633Y0092167D01*
X0145488Y0092124D01*
X0145343Y0092085D01*
X0145196Y0092049D01*
X0145049Y0092018D01*
X0144901Y0091990D01*
X0144752Y0091966D01*
X0144603Y0091946D01*
X0144453Y0091930D01*
X0144303Y0091918D01*
X0144152Y0091910D01*
X0144001Y0091906D01*
X0143851Y0091906D01*
X0143700Y0091910D01*
X0143549Y0091918D01*
X0143399Y0091930D01*
X0143249Y0091946D01*
X0143100Y0091966D01*
X0142951Y0091990D01*
X0142803Y0092018D01*
X0142656Y0092049D01*
X0142509Y0092085D01*
X0142364Y0092124D01*
X0142219Y0092167D01*
X0142076Y0092214D01*
X0141934Y0092265D01*
X0141794Y0092319D01*
X0141655Y0092377D01*
X0141517Y0092439D01*
X0141381Y0092505D01*
X0141247Y0092573D01*
X0141115Y0092646D01*
X0140985Y0092722D01*
X0140857Y0092801D01*
X0140731Y0092884D01*
X0140607Y0092970D01*
X0140486Y0093059D01*
X0140366Y0093152D01*
X0140250Y0093247D01*
X0140136Y0093346D01*
X0140025Y0093447D01*
X0139916Y0093552D01*
X0139810Y0093659D01*
X0139707Y0093769D01*
X0139607Y0093882D01*
X0139510Y0093997D01*
X0139416Y0094115D01*
X0139325Y0094235D01*
X0139237Y0094358D01*
X0139153Y0094483D01*
X0139072Y0094610D01*
X0138994Y0094739D01*
X0138920Y0094870D01*
X0138850Y0095003D01*
X0138782Y0095138D01*
X0138719Y0095275D01*
X0138659Y0095413D01*
X0138603Y0095553D01*
X0138550Y0095694D01*
X0138501Y0095836D01*
X0138456Y0095980D01*
X0138415Y0096125D01*
X0138377Y0096271D01*
X0138344Y0096418D01*
X0138314Y0096566D01*
X0138288Y0096714D01*
X0138267Y0096864D01*
X0138249Y0097013D01*
X0138235Y0097163D01*
X0138225Y0097314D01*
X0138219Y0097464D01*
X0138217Y0097615D01*
X0145314Y0112603D02*
X0147382Y0115706D01*
X0148537Y0114671D02*
X0149571Y0115706D01*
X0149571Y0112603D01*
X0148537Y0112603D02*
X0150605Y0112603D01*
X0151760Y0113120D02*
X0152277Y0112603D01*
X0153311Y0112603D01*
X0153828Y0113120D01*
X0153828Y0115188D01*
X0153311Y0115706D01*
X0152277Y0115706D01*
X0151760Y0115188D01*
X0151760Y0114671D01*
X0152277Y0114154D01*
X0153828Y0114154D01*
X0147382Y0112603D02*
X0145314Y0115706D01*
X0138217Y0125175D02*
X0138219Y0125326D01*
X0138225Y0125476D01*
X0138235Y0125627D01*
X0138249Y0125777D01*
X0138267Y0125926D01*
X0138288Y0126076D01*
X0138314Y0126224D01*
X0138344Y0126372D01*
X0138377Y0126519D01*
X0138415Y0126665D01*
X0138456Y0126810D01*
X0138501Y0126954D01*
X0138550Y0127096D01*
X0138603Y0127237D01*
X0138659Y0127377D01*
X0138719Y0127515D01*
X0138782Y0127652D01*
X0138850Y0127787D01*
X0138920Y0127920D01*
X0138994Y0128051D01*
X0139072Y0128180D01*
X0139153Y0128307D01*
X0139237Y0128432D01*
X0139325Y0128555D01*
X0139416Y0128675D01*
X0139510Y0128793D01*
X0139607Y0128908D01*
X0139707Y0129021D01*
X0139810Y0129131D01*
X0139916Y0129238D01*
X0140025Y0129343D01*
X0140136Y0129444D01*
X0140250Y0129543D01*
X0140366Y0129638D01*
X0140486Y0129731D01*
X0140607Y0129820D01*
X0140731Y0129906D01*
X0140857Y0129989D01*
X0140985Y0130068D01*
X0141115Y0130144D01*
X0141247Y0130217D01*
X0141381Y0130285D01*
X0141517Y0130351D01*
X0141655Y0130413D01*
X0141794Y0130471D01*
X0141934Y0130525D01*
X0142076Y0130576D01*
X0142219Y0130623D01*
X0142364Y0130666D01*
X0142509Y0130705D01*
X0142656Y0130741D01*
X0142803Y0130772D01*
X0142951Y0130800D01*
X0143100Y0130824D01*
X0143249Y0130844D01*
X0143399Y0130860D01*
X0143549Y0130872D01*
X0143700Y0130880D01*
X0143851Y0130884D01*
X0144001Y0130884D01*
X0144152Y0130880D01*
X0144303Y0130872D01*
X0144453Y0130860D01*
X0144603Y0130844D01*
X0144752Y0130824D01*
X0144901Y0130800D01*
X0145049Y0130772D01*
X0145196Y0130741D01*
X0145343Y0130705D01*
X0145488Y0130666D01*
X0145633Y0130623D01*
X0145776Y0130576D01*
X0145918Y0130525D01*
X0146058Y0130471D01*
X0146197Y0130413D01*
X0146335Y0130351D01*
X0146471Y0130285D01*
X0146605Y0130217D01*
X0146737Y0130144D01*
X0146867Y0130068D01*
X0146995Y0129989D01*
X0147121Y0129906D01*
X0147245Y0129820D01*
X0147366Y0129731D01*
X0147486Y0129638D01*
X0147602Y0129543D01*
X0147716Y0129444D01*
X0147827Y0129343D01*
X0147936Y0129238D01*
X0148042Y0129131D01*
X0148145Y0129021D01*
X0148245Y0128908D01*
X0148342Y0128793D01*
X0148436Y0128675D01*
X0148527Y0128555D01*
X0148615Y0128432D01*
X0148699Y0128307D01*
X0148780Y0128180D01*
X0148858Y0128051D01*
X0148932Y0127920D01*
X0149002Y0127787D01*
X0149070Y0127652D01*
X0149133Y0127515D01*
X0149193Y0127377D01*
X0149249Y0127237D01*
X0149302Y0127096D01*
X0149351Y0126954D01*
X0149396Y0126810D01*
X0149437Y0126665D01*
X0149475Y0126519D01*
X0149508Y0126372D01*
X0149538Y0126224D01*
X0149564Y0126076D01*
X0149585Y0125926D01*
X0149603Y0125777D01*
X0149617Y0125627D01*
X0149627Y0125476D01*
X0149633Y0125326D01*
X0149635Y0125175D01*
X0149633Y0125024D01*
X0149627Y0124874D01*
X0149617Y0124723D01*
X0149603Y0124573D01*
X0149585Y0124424D01*
X0149564Y0124274D01*
X0149538Y0124126D01*
X0149508Y0123978D01*
X0149475Y0123831D01*
X0149437Y0123685D01*
X0149396Y0123540D01*
X0149351Y0123396D01*
X0149302Y0123254D01*
X0149249Y0123113D01*
X0149193Y0122973D01*
X0149133Y0122835D01*
X0149070Y0122698D01*
X0149002Y0122563D01*
X0148932Y0122430D01*
X0148858Y0122299D01*
X0148780Y0122170D01*
X0148699Y0122043D01*
X0148615Y0121918D01*
X0148527Y0121795D01*
X0148436Y0121675D01*
X0148342Y0121557D01*
X0148245Y0121442D01*
X0148145Y0121329D01*
X0148042Y0121219D01*
X0147936Y0121112D01*
X0147827Y0121007D01*
X0147716Y0120906D01*
X0147602Y0120807D01*
X0147486Y0120712D01*
X0147366Y0120619D01*
X0147245Y0120530D01*
X0147121Y0120444D01*
X0146995Y0120361D01*
X0146867Y0120282D01*
X0146737Y0120206D01*
X0146605Y0120133D01*
X0146471Y0120065D01*
X0146335Y0119999D01*
X0146197Y0119937D01*
X0146058Y0119879D01*
X0145918Y0119825D01*
X0145776Y0119774D01*
X0145633Y0119727D01*
X0145488Y0119684D01*
X0145343Y0119645D01*
X0145196Y0119609D01*
X0145049Y0119578D01*
X0144901Y0119550D01*
X0144752Y0119526D01*
X0144603Y0119506D01*
X0144453Y0119490D01*
X0144303Y0119478D01*
X0144152Y0119470D01*
X0144001Y0119466D01*
X0143851Y0119466D01*
X0143700Y0119470D01*
X0143549Y0119478D01*
X0143399Y0119490D01*
X0143249Y0119506D01*
X0143100Y0119526D01*
X0142951Y0119550D01*
X0142803Y0119578D01*
X0142656Y0119609D01*
X0142509Y0119645D01*
X0142364Y0119684D01*
X0142219Y0119727D01*
X0142076Y0119774D01*
X0141934Y0119825D01*
X0141794Y0119879D01*
X0141655Y0119937D01*
X0141517Y0119999D01*
X0141381Y0120065D01*
X0141247Y0120133D01*
X0141115Y0120206D01*
X0140985Y0120282D01*
X0140857Y0120361D01*
X0140731Y0120444D01*
X0140607Y0120530D01*
X0140486Y0120619D01*
X0140366Y0120712D01*
X0140250Y0120807D01*
X0140136Y0120906D01*
X0140025Y0121007D01*
X0139916Y0121112D01*
X0139810Y0121219D01*
X0139707Y0121329D01*
X0139607Y0121442D01*
X0139510Y0121557D01*
X0139416Y0121675D01*
X0139325Y0121795D01*
X0139237Y0121918D01*
X0139153Y0122043D01*
X0139072Y0122170D01*
X0138994Y0122299D01*
X0138920Y0122430D01*
X0138850Y0122563D01*
X0138782Y0122698D01*
X0138719Y0122835D01*
X0138659Y0122973D01*
X0138603Y0123113D01*
X0138550Y0123254D01*
X0138501Y0123396D01*
X0138456Y0123540D01*
X0138415Y0123685D01*
X0138377Y0123831D01*
X0138344Y0123978D01*
X0138314Y0124126D01*
X0138288Y0124274D01*
X0138267Y0124424D01*
X0138249Y0124573D01*
X0138235Y0124723D01*
X0138225Y0124874D01*
X0138219Y0125024D01*
X0138217Y0125175D01*
X0141150Y0129899D02*
X0141127Y0129923D01*
X0138217Y0138954D02*
X0138219Y0139105D01*
X0138225Y0139255D01*
X0138235Y0139406D01*
X0138249Y0139556D01*
X0138267Y0139705D01*
X0138288Y0139855D01*
X0138314Y0140003D01*
X0138344Y0140151D01*
X0138377Y0140298D01*
X0138415Y0140444D01*
X0138456Y0140589D01*
X0138501Y0140733D01*
X0138550Y0140875D01*
X0138603Y0141016D01*
X0138659Y0141156D01*
X0138719Y0141294D01*
X0138782Y0141431D01*
X0138850Y0141566D01*
X0138920Y0141699D01*
X0138994Y0141830D01*
X0139072Y0141959D01*
X0139153Y0142086D01*
X0139237Y0142211D01*
X0139325Y0142334D01*
X0139416Y0142454D01*
X0139510Y0142572D01*
X0139607Y0142687D01*
X0139707Y0142800D01*
X0139810Y0142910D01*
X0139916Y0143017D01*
X0140025Y0143122D01*
X0140136Y0143223D01*
X0140250Y0143322D01*
X0140366Y0143417D01*
X0140486Y0143510D01*
X0140607Y0143599D01*
X0140731Y0143685D01*
X0140857Y0143768D01*
X0140985Y0143847D01*
X0141115Y0143923D01*
X0141247Y0143996D01*
X0141381Y0144064D01*
X0141517Y0144130D01*
X0141655Y0144192D01*
X0141794Y0144250D01*
X0141934Y0144304D01*
X0142076Y0144355D01*
X0142219Y0144402D01*
X0142364Y0144445D01*
X0142509Y0144484D01*
X0142656Y0144520D01*
X0142803Y0144551D01*
X0142951Y0144579D01*
X0143100Y0144603D01*
X0143249Y0144623D01*
X0143399Y0144639D01*
X0143549Y0144651D01*
X0143700Y0144659D01*
X0143851Y0144663D01*
X0144001Y0144663D01*
X0144152Y0144659D01*
X0144303Y0144651D01*
X0144453Y0144639D01*
X0144603Y0144623D01*
X0144752Y0144603D01*
X0144901Y0144579D01*
X0145049Y0144551D01*
X0145196Y0144520D01*
X0145343Y0144484D01*
X0145488Y0144445D01*
X0145633Y0144402D01*
X0145776Y0144355D01*
X0145918Y0144304D01*
X0146058Y0144250D01*
X0146197Y0144192D01*
X0146335Y0144130D01*
X0146471Y0144064D01*
X0146605Y0143996D01*
X0146737Y0143923D01*
X0146867Y0143847D01*
X0146995Y0143768D01*
X0147121Y0143685D01*
X0147245Y0143599D01*
X0147366Y0143510D01*
X0147486Y0143417D01*
X0147602Y0143322D01*
X0147716Y0143223D01*
X0147827Y0143122D01*
X0147936Y0143017D01*
X0148042Y0142910D01*
X0148145Y0142800D01*
X0148245Y0142687D01*
X0148342Y0142572D01*
X0148436Y0142454D01*
X0148527Y0142334D01*
X0148615Y0142211D01*
X0148699Y0142086D01*
X0148780Y0141959D01*
X0148858Y0141830D01*
X0148932Y0141699D01*
X0149002Y0141566D01*
X0149070Y0141431D01*
X0149133Y0141294D01*
X0149193Y0141156D01*
X0149249Y0141016D01*
X0149302Y0140875D01*
X0149351Y0140733D01*
X0149396Y0140589D01*
X0149437Y0140444D01*
X0149475Y0140298D01*
X0149508Y0140151D01*
X0149538Y0140003D01*
X0149564Y0139855D01*
X0149585Y0139705D01*
X0149603Y0139556D01*
X0149617Y0139406D01*
X0149627Y0139255D01*
X0149633Y0139105D01*
X0149635Y0138954D01*
X0149633Y0138803D01*
X0149627Y0138653D01*
X0149617Y0138502D01*
X0149603Y0138352D01*
X0149585Y0138203D01*
X0149564Y0138053D01*
X0149538Y0137905D01*
X0149508Y0137757D01*
X0149475Y0137610D01*
X0149437Y0137464D01*
X0149396Y0137319D01*
X0149351Y0137175D01*
X0149302Y0137033D01*
X0149249Y0136892D01*
X0149193Y0136752D01*
X0149133Y0136614D01*
X0149070Y0136477D01*
X0149002Y0136342D01*
X0148932Y0136209D01*
X0148858Y0136078D01*
X0148780Y0135949D01*
X0148699Y0135822D01*
X0148615Y0135697D01*
X0148527Y0135574D01*
X0148436Y0135454D01*
X0148342Y0135336D01*
X0148245Y0135221D01*
X0148145Y0135108D01*
X0148042Y0134998D01*
X0147936Y0134891D01*
X0147827Y0134786D01*
X0147716Y0134685D01*
X0147602Y0134586D01*
X0147486Y0134491D01*
X0147366Y0134398D01*
X0147245Y0134309D01*
X0147121Y0134223D01*
X0146995Y0134140D01*
X0146867Y0134061D01*
X0146737Y0133985D01*
X0146605Y0133912D01*
X0146471Y0133844D01*
X0146335Y0133778D01*
X0146197Y0133716D01*
X0146058Y0133658D01*
X0145918Y0133604D01*
X0145776Y0133553D01*
X0145633Y0133506D01*
X0145488Y0133463D01*
X0145343Y0133424D01*
X0145196Y0133388D01*
X0145049Y0133357D01*
X0144901Y0133329D01*
X0144752Y0133305D01*
X0144603Y0133285D01*
X0144453Y0133269D01*
X0144303Y0133257D01*
X0144152Y0133249D01*
X0144001Y0133245D01*
X0143851Y0133245D01*
X0143700Y0133249D01*
X0143549Y0133257D01*
X0143399Y0133269D01*
X0143249Y0133285D01*
X0143100Y0133305D01*
X0142951Y0133329D01*
X0142803Y0133357D01*
X0142656Y0133388D01*
X0142509Y0133424D01*
X0142364Y0133463D01*
X0142219Y0133506D01*
X0142076Y0133553D01*
X0141934Y0133604D01*
X0141794Y0133658D01*
X0141655Y0133716D01*
X0141517Y0133778D01*
X0141381Y0133844D01*
X0141247Y0133912D01*
X0141115Y0133985D01*
X0140985Y0134061D01*
X0140857Y0134140D01*
X0140731Y0134223D01*
X0140607Y0134309D01*
X0140486Y0134398D01*
X0140366Y0134491D01*
X0140250Y0134586D01*
X0140136Y0134685D01*
X0140025Y0134786D01*
X0139916Y0134891D01*
X0139810Y0134998D01*
X0139707Y0135108D01*
X0139607Y0135221D01*
X0139510Y0135336D01*
X0139416Y0135454D01*
X0139325Y0135574D01*
X0139237Y0135697D01*
X0139153Y0135822D01*
X0139072Y0135949D01*
X0138994Y0136078D01*
X0138920Y0136209D01*
X0138850Y0136342D01*
X0138782Y0136477D01*
X0138719Y0136614D01*
X0138659Y0136752D01*
X0138603Y0136892D01*
X0138550Y0137033D01*
X0138501Y0137175D01*
X0138456Y0137319D01*
X0138415Y0137464D01*
X0138377Y0137610D01*
X0138344Y0137757D01*
X0138314Y0137905D01*
X0138288Y0138053D01*
X0138267Y0138203D01*
X0138249Y0138352D01*
X0138235Y0138502D01*
X0138225Y0138653D01*
X0138219Y0138803D01*
X0138217Y0138954D01*
X0134582Y0140422D02*
X0134582Y0137353D01*
X0131513Y0140422D01*
X0130746Y0140422D01*
X0129978Y0139655D01*
X0129978Y0138120D01*
X0130746Y0137353D01*
X0136004Y0144860D02*
X0137876Y0144860D01*
X0141127Y0143702D02*
X0141150Y0143678D01*
X0145314Y0143265D02*
X0147382Y0140162D01*
X0148537Y0140162D02*
X0150605Y0140162D01*
X0149571Y0140162D02*
X0149571Y0143265D01*
X0148537Y0142230D01*
X0147382Y0143265D02*
X0145314Y0140162D01*
X0151760Y0140679D02*
X0151760Y0141196D01*
X0152277Y0141713D01*
X0153311Y0141713D01*
X0153828Y0141196D01*
X0153828Y0140679D01*
X0153311Y0140162D01*
X0152277Y0140162D01*
X0151760Y0140679D01*
X0152277Y0141713D02*
X0151760Y0142230D01*
X0151760Y0142747D01*
X0152277Y0143265D01*
X0153311Y0143265D01*
X0153828Y0142747D01*
X0153828Y0142230D01*
X0153311Y0141713D01*
X0138217Y0152734D02*
X0138219Y0152885D01*
X0138225Y0153035D01*
X0138235Y0153186D01*
X0138249Y0153336D01*
X0138267Y0153485D01*
X0138288Y0153635D01*
X0138314Y0153783D01*
X0138344Y0153931D01*
X0138377Y0154078D01*
X0138415Y0154224D01*
X0138456Y0154369D01*
X0138501Y0154513D01*
X0138550Y0154655D01*
X0138603Y0154796D01*
X0138659Y0154936D01*
X0138719Y0155074D01*
X0138782Y0155211D01*
X0138850Y0155346D01*
X0138920Y0155479D01*
X0138994Y0155610D01*
X0139072Y0155739D01*
X0139153Y0155866D01*
X0139237Y0155991D01*
X0139325Y0156114D01*
X0139416Y0156234D01*
X0139510Y0156352D01*
X0139607Y0156467D01*
X0139707Y0156580D01*
X0139810Y0156690D01*
X0139916Y0156797D01*
X0140025Y0156902D01*
X0140136Y0157003D01*
X0140250Y0157102D01*
X0140366Y0157197D01*
X0140486Y0157290D01*
X0140607Y0157379D01*
X0140731Y0157465D01*
X0140857Y0157548D01*
X0140985Y0157627D01*
X0141115Y0157703D01*
X0141247Y0157776D01*
X0141381Y0157844D01*
X0141517Y0157910D01*
X0141655Y0157972D01*
X0141794Y0158030D01*
X0141934Y0158084D01*
X0142076Y0158135D01*
X0142219Y0158182D01*
X0142364Y0158225D01*
X0142509Y0158264D01*
X0142656Y0158300D01*
X0142803Y0158331D01*
X0142951Y0158359D01*
X0143100Y0158383D01*
X0143249Y0158403D01*
X0143399Y0158419D01*
X0143549Y0158431D01*
X0143700Y0158439D01*
X0143851Y0158443D01*
X0144001Y0158443D01*
X0144152Y0158439D01*
X0144303Y0158431D01*
X0144453Y0158419D01*
X0144603Y0158403D01*
X0144752Y0158383D01*
X0144901Y0158359D01*
X0145049Y0158331D01*
X0145196Y0158300D01*
X0145343Y0158264D01*
X0145488Y0158225D01*
X0145633Y0158182D01*
X0145776Y0158135D01*
X0145918Y0158084D01*
X0146058Y0158030D01*
X0146197Y0157972D01*
X0146335Y0157910D01*
X0146471Y0157844D01*
X0146605Y0157776D01*
X0146737Y0157703D01*
X0146867Y0157627D01*
X0146995Y0157548D01*
X0147121Y0157465D01*
X0147245Y0157379D01*
X0147366Y0157290D01*
X0147486Y0157197D01*
X0147602Y0157102D01*
X0147716Y0157003D01*
X0147827Y0156902D01*
X0147936Y0156797D01*
X0148042Y0156690D01*
X0148145Y0156580D01*
X0148245Y0156467D01*
X0148342Y0156352D01*
X0148436Y0156234D01*
X0148527Y0156114D01*
X0148615Y0155991D01*
X0148699Y0155866D01*
X0148780Y0155739D01*
X0148858Y0155610D01*
X0148932Y0155479D01*
X0149002Y0155346D01*
X0149070Y0155211D01*
X0149133Y0155074D01*
X0149193Y0154936D01*
X0149249Y0154796D01*
X0149302Y0154655D01*
X0149351Y0154513D01*
X0149396Y0154369D01*
X0149437Y0154224D01*
X0149475Y0154078D01*
X0149508Y0153931D01*
X0149538Y0153783D01*
X0149564Y0153635D01*
X0149585Y0153485D01*
X0149603Y0153336D01*
X0149617Y0153186D01*
X0149627Y0153035D01*
X0149633Y0152885D01*
X0149635Y0152734D01*
X0149633Y0152583D01*
X0149627Y0152433D01*
X0149617Y0152282D01*
X0149603Y0152132D01*
X0149585Y0151983D01*
X0149564Y0151833D01*
X0149538Y0151685D01*
X0149508Y0151537D01*
X0149475Y0151390D01*
X0149437Y0151244D01*
X0149396Y0151099D01*
X0149351Y0150955D01*
X0149302Y0150813D01*
X0149249Y0150672D01*
X0149193Y0150532D01*
X0149133Y0150394D01*
X0149070Y0150257D01*
X0149002Y0150122D01*
X0148932Y0149989D01*
X0148858Y0149858D01*
X0148780Y0149729D01*
X0148699Y0149602D01*
X0148615Y0149477D01*
X0148527Y0149354D01*
X0148436Y0149234D01*
X0148342Y0149116D01*
X0148245Y0149001D01*
X0148145Y0148888D01*
X0148042Y0148778D01*
X0147936Y0148671D01*
X0147827Y0148566D01*
X0147716Y0148465D01*
X0147602Y0148366D01*
X0147486Y0148271D01*
X0147366Y0148178D01*
X0147245Y0148089D01*
X0147121Y0148003D01*
X0146995Y0147920D01*
X0146867Y0147841D01*
X0146737Y0147765D01*
X0146605Y0147692D01*
X0146471Y0147624D01*
X0146335Y0147558D01*
X0146197Y0147496D01*
X0146058Y0147438D01*
X0145918Y0147384D01*
X0145776Y0147333D01*
X0145633Y0147286D01*
X0145488Y0147243D01*
X0145343Y0147204D01*
X0145196Y0147168D01*
X0145049Y0147137D01*
X0144901Y0147109D01*
X0144752Y0147085D01*
X0144603Y0147065D01*
X0144453Y0147049D01*
X0144303Y0147037D01*
X0144152Y0147029D01*
X0144001Y0147025D01*
X0143851Y0147025D01*
X0143700Y0147029D01*
X0143549Y0147037D01*
X0143399Y0147049D01*
X0143249Y0147065D01*
X0143100Y0147085D01*
X0142951Y0147109D01*
X0142803Y0147137D01*
X0142656Y0147168D01*
X0142509Y0147204D01*
X0142364Y0147243D01*
X0142219Y0147286D01*
X0142076Y0147333D01*
X0141934Y0147384D01*
X0141794Y0147438D01*
X0141655Y0147496D01*
X0141517Y0147558D01*
X0141381Y0147624D01*
X0141247Y0147692D01*
X0141115Y0147765D01*
X0140985Y0147841D01*
X0140857Y0147920D01*
X0140731Y0148003D01*
X0140607Y0148089D01*
X0140486Y0148178D01*
X0140366Y0148271D01*
X0140250Y0148366D01*
X0140136Y0148465D01*
X0140025Y0148566D01*
X0139916Y0148671D01*
X0139810Y0148778D01*
X0139707Y0148888D01*
X0139607Y0149001D01*
X0139510Y0149116D01*
X0139416Y0149234D01*
X0139325Y0149354D01*
X0139237Y0149477D01*
X0139153Y0149602D01*
X0139072Y0149729D01*
X0138994Y0149858D01*
X0138920Y0149989D01*
X0138850Y0150122D01*
X0138782Y0150257D01*
X0138719Y0150394D01*
X0138659Y0150532D01*
X0138603Y0150672D01*
X0138550Y0150813D01*
X0138501Y0150955D01*
X0138456Y0151099D01*
X0138415Y0151244D01*
X0138377Y0151390D01*
X0138344Y0151537D01*
X0138314Y0151685D01*
X0138288Y0151833D01*
X0138267Y0151983D01*
X0138249Y0152132D01*
X0138235Y0152282D01*
X0138225Y0152433D01*
X0138219Y0152583D01*
X0138217Y0152734D01*
X0134582Y0152697D02*
X0129978Y0152697D01*
X0131513Y0151162D01*
X0134582Y0151162D02*
X0134582Y0154231D01*
X0141127Y0157482D02*
X0141150Y0157458D01*
X0138217Y0166513D02*
X0138219Y0166664D01*
X0138225Y0166814D01*
X0138235Y0166965D01*
X0138249Y0167115D01*
X0138267Y0167264D01*
X0138288Y0167414D01*
X0138314Y0167562D01*
X0138344Y0167710D01*
X0138377Y0167857D01*
X0138415Y0168003D01*
X0138456Y0168148D01*
X0138501Y0168292D01*
X0138550Y0168434D01*
X0138603Y0168575D01*
X0138659Y0168715D01*
X0138719Y0168853D01*
X0138782Y0168990D01*
X0138850Y0169125D01*
X0138920Y0169258D01*
X0138994Y0169389D01*
X0139072Y0169518D01*
X0139153Y0169645D01*
X0139237Y0169770D01*
X0139325Y0169893D01*
X0139416Y0170013D01*
X0139510Y0170131D01*
X0139607Y0170246D01*
X0139707Y0170359D01*
X0139810Y0170469D01*
X0139916Y0170576D01*
X0140025Y0170681D01*
X0140136Y0170782D01*
X0140250Y0170881D01*
X0140366Y0170976D01*
X0140486Y0171069D01*
X0140607Y0171158D01*
X0140731Y0171244D01*
X0140857Y0171327D01*
X0140985Y0171406D01*
X0141115Y0171482D01*
X0141247Y0171555D01*
X0141381Y0171623D01*
X0141517Y0171689D01*
X0141655Y0171751D01*
X0141794Y0171809D01*
X0141934Y0171863D01*
X0142076Y0171914D01*
X0142219Y0171961D01*
X0142364Y0172004D01*
X0142509Y0172043D01*
X0142656Y0172079D01*
X0142803Y0172110D01*
X0142951Y0172138D01*
X0143100Y0172162D01*
X0143249Y0172182D01*
X0143399Y0172198D01*
X0143549Y0172210D01*
X0143700Y0172218D01*
X0143851Y0172222D01*
X0144001Y0172222D01*
X0144152Y0172218D01*
X0144303Y0172210D01*
X0144453Y0172198D01*
X0144603Y0172182D01*
X0144752Y0172162D01*
X0144901Y0172138D01*
X0145049Y0172110D01*
X0145196Y0172079D01*
X0145343Y0172043D01*
X0145488Y0172004D01*
X0145633Y0171961D01*
X0145776Y0171914D01*
X0145918Y0171863D01*
X0146058Y0171809D01*
X0146197Y0171751D01*
X0146335Y0171689D01*
X0146471Y0171623D01*
X0146605Y0171555D01*
X0146737Y0171482D01*
X0146867Y0171406D01*
X0146995Y0171327D01*
X0147121Y0171244D01*
X0147245Y0171158D01*
X0147366Y0171069D01*
X0147486Y0170976D01*
X0147602Y0170881D01*
X0147716Y0170782D01*
X0147827Y0170681D01*
X0147936Y0170576D01*
X0148042Y0170469D01*
X0148145Y0170359D01*
X0148245Y0170246D01*
X0148342Y0170131D01*
X0148436Y0170013D01*
X0148527Y0169893D01*
X0148615Y0169770D01*
X0148699Y0169645D01*
X0148780Y0169518D01*
X0148858Y0169389D01*
X0148932Y0169258D01*
X0149002Y0169125D01*
X0149070Y0168990D01*
X0149133Y0168853D01*
X0149193Y0168715D01*
X0149249Y0168575D01*
X0149302Y0168434D01*
X0149351Y0168292D01*
X0149396Y0168148D01*
X0149437Y0168003D01*
X0149475Y0167857D01*
X0149508Y0167710D01*
X0149538Y0167562D01*
X0149564Y0167414D01*
X0149585Y0167264D01*
X0149603Y0167115D01*
X0149617Y0166965D01*
X0149627Y0166814D01*
X0149633Y0166664D01*
X0149635Y0166513D01*
X0149633Y0166362D01*
X0149627Y0166212D01*
X0149617Y0166061D01*
X0149603Y0165911D01*
X0149585Y0165762D01*
X0149564Y0165612D01*
X0149538Y0165464D01*
X0149508Y0165316D01*
X0149475Y0165169D01*
X0149437Y0165023D01*
X0149396Y0164878D01*
X0149351Y0164734D01*
X0149302Y0164592D01*
X0149249Y0164451D01*
X0149193Y0164311D01*
X0149133Y0164173D01*
X0149070Y0164036D01*
X0149002Y0163901D01*
X0148932Y0163768D01*
X0148858Y0163637D01*
X0148780Y0163508D01*
X0148699Y0163381D01*
X0148615Y0163256D01*
X0148527Y0163133D01*
X0148436Y0163013D01*
X0148342Y0162895D01*
X0148245Y0162780D01*
X0148145Y0162667D01*
X0148042Y0162557D01*
X0147936Y0162450D01*
X0147827Y0162345D01*
X0147716Y0162244D01*
X0147602Y0162145D01*
X0147486Y0162050D01*
X0147366Y0161957D01*
X0147245Y0161868D01*
X0147121Y0161782D01*
X0146995Y0161699D01*
X0146867Y0161620D01*
X0146737Y0161544D01*
X0146605Y0161471D01*
X0146471Y0161403D01*
X0146335Y0161337D01*
X0146197Y0161275D01*
X0146058Y0161217D01*
X0145918Y0161163D01*
X0145776Y0161112D01*
X0145633Y0161065D01*
X0145488Y0161022D01*
X0145343Y0160983D01*
X0145196Y0160947D01*
X0145049Y0160916D01*
X0144901Y0160888D01*
X0144752Y0160864D01*
X0144603Y0160844D01*
X0144453Y0160828D01*
X0144303Y0160816D01*
X0144152Y0160808D01*
X0144001Y0160804D01*
X0143851Y0160804D01*
X0143700Y0160808D01*
X0143549Y0160816D01*
X0143399Y0160828D01*
X0143249Y0160844D01*
X0143100Y0160864D01*
X0142951Y0160888D01*
X0142803Y0160916D01*
X0142656Y0160947D01*
X0142509Y0160983D01*
X0142364Y0161022D01*
X0142219Y0161065D01*
X0142076Y0161112D01*
X0141934Y0161163D01*
X0141794Y0161217D01*
X0141655Y0161275D01*
X0141517Y0161337D01*
X0141381Y0161403D01*
X0141247Y0161471D01*
X0141115Y0161544D01*
X0140985Y0161620D01*
X0140857Y0161699D01*
X0140731Y0161782D01*
X0140607Y0161868D01*
X0140486Y0161957D01*
X0140366Y0162050D01*
X0140250Y0162145D01*
X0140136Y0162244D01*
X0140025Y0162345D01*
X0139916Y0162450D01*
X0139810Y0162557D01*
X0139707Y0162667D01*
X0139607Y0162780D01*
X0139510Y0162895D01*
X0139416Y0163013D01*
X0139325Y0163133D01*
X0139237Y0163256D01*
X0139153Y0163381D01*
X0139072Y0163508D01*
X0138994Y0163637D01*
X0138920Y0163768D01*
X0138850Y0163901D01*
X0138782Y0164036D01*
X0138719Y0164173D01*
X0138659Y0164311D01*
X0138603Y0164451D01*
X0138550Y0164592D01*
X0138501Y0164734D01*
X0138456Y0164878D01*
X0138415Y0165023D01*
X0138377Y0165169D01*
X0138344Y0165316D01*
X0138314Y0165464D01*
X0138288Y0165612D01*
X0138267Y0165762D01*
X0138249Y0165911D01*
X0138235Y0166061D01*
X0138225Y0166212D01*
X0138219Y0166362D01*
X0138217Y0166513D01*
X0134582Y0167981D02*
X0134582Y0164912D01*
X0131513Y0167981D01*
X0130746Y0167981D01*
X0129978Y0167214D01*
X0129978Y0165679D01*
X0130746Y0164912D01*
X0136004Y0172419D02*
X0137876Y0172419D01*
X0141127Y0171261D02*
X0141150Y0171238D01*
X0145314Y0170824D02*
X0147382Y0167721D01*
X0148537Y0167721D02*
X0150605Y0167721D01*
X0149571Y0167721D02*
X0149571Y0170824D01*
X0148537Y0169789D01*
X0147382Y0170824D02*
X0145314Y0167721D01*
X0151760Y0167721D02*
X0151760Y0168238D01*
X0153828Y0170307D01*
X0153828Y0170824D01*
X0151760Y0170824D01*
X0138217Y0180293D02*
X0138219Y0180444D01*
X0138225Y0180594D01*
X0138235Y0180745D01*
X0138249Y0180895D01*
X0138267Y0181044D01*
X0138288Y0181194D01*
X0138314Y0181342D01*
X0138344Y0181490D01*
X0138377Y0181637D01*
X0138415Y0181783D01*
X0138456Y0181928D01*
X0138501Y0182072D01*
X0138550Y0182214D01*
X0138603Y0182355D01*
X0138659Y0182495D01*
X0138719Y0182633D01*
X0138782Y0182770D01*
X0138850Y0182905D01*
X0138920Y0183038D01*
X0138994Y0183169D01*
X0139072Y0183298D01*
X0139153Y0183425D01*
X0139237Y0183550D01*
X0139325Y0183673D01*
X0139416Y0183793D01*
X0139510Y0183911D01*
X0139607Y0184026D01*
X0139707Y0184139D01*
X0139810Y0184249D01*
X0139916Y0184356D01*
X0140025Y0184461D01*
X0140136Y0184562D01*
X0140250Y0184661D01*
X0140366Y0184756D01*
X0140486Y0184849D01*
X0140607Y0184938D01*
X0140731Y0185024D01*
X0140857Y0185107D01*
X0140985Y0185186D01*
X0141115Y0185262D01*
X0141247Y0185335D01*
X0141381Y0185403D01*
X0141517Y0185469D01*
X0141655Y0185531D01*
X0141794Y0185589D01*
X0141934Y0185643D01*
X0142076Y0185694D01*
X0142219Y0185741D01*
X0142364Y0185784D01*
X0142509Y0185823D01*
X0142656Y0185859D01*
X0142803Y0185890D01*
X0142951Y0185918D01*
X0143100Y0185942D01*
X0143249Y0185962D01*
X0143399Y0185978D01*
X0143549Y0185990D01*
X0143700Y0185998D01*
X0143851Y0186002D01*
X0144001Y0186002D01*
X0144152Y0185998D01*
X0144303Y0185990D01*
X0144453Y0185978D01*
X0144603Y0185962D01*
X0144752Y0185942D01*
X0144901Y0185918D01*
X0145049Y0185890D01*
X0145196Y0185859D01*
X0145343Y0185823D01*
X0145488Y0185784D01*
X0145633Y0185741D01*
X0145776Y0185694D01*
X0145918Y0185643D01*
X0146058Y0185589D01*
X0146197Y0185531D01*
X0146335Y0185469D01*
X0146471Y0185403D01*
X0146605Y0185335D01*
X0146737Y0185262D01*
X0146867Y0185186D01*
X0146995Y0185107D01*
X0147121Y0185024D01*
X0147245Y0184938D01*
X0147366Y0184849D01*
X0147486Y0184756D01*
X0147602Y0184661D01*
X0147716Y0184562D01*
X0147827Y0184461D01*
X0147936Y0184356D01*
X0148042Y0184249D01*
X0148145Y0184139D01*
X0148245Y0184026D01*
X0148342Y0183911D01*
X0148436Y0183793D01*
X0148527Y0183673D01*
X0148615Y0183550D01*
X0148699Y0183425D01*
X0148780Y0183298D01*
X0148858Y0183169D01*
X0148932Y0183038D01*
X0149002Y0182905D01*
X0149070Y0182770D01*
X0149133Y0182633D01*
X0149193Y0182495D01*
X0149249Y0182355D01*
X0149302Y0182214D01*
X0149351Y0182072D01*
X0149396Y0181928D01*
X0149437Y0181783D01*
X0149475Y0181637D01*
X0149508Y0181490D01*
X0149538Y0181342D01*
X0149564Y0181194D01*
X0149585Y0181044D01*
X0149603Y0180895D01*
X0149617Y0180745D01*
X0149627Y0180594D01*
X0149633Y0180444D01*
X0149635Y0180293D01*
X0149633Y0180142D01*
X0149627Y0179992D01*
X0149617Y0179841D01*
X0149603Y0179691D01*
X0149585Y0179542D01*
X0149564Y0179392D01*
X0149538Y0179244D01*
X0149508Y0179096D01*
X0149475Y0178949D01*
X0149437Y0178803D01*
X0149396Y0178658D01*
X0149351Y0178514D01*
X0149302Y0178372D01*
X0149249Y0178231D01*
X0149193Y0178091D01*
X0149133Y0177953D01*
X0149070Y0177816D01*
X0149002Y0177681D01*
X0148932Y0177548D01*
X0148858Y0177417D01*
X0148780Y0177288D01*
X0148699Y0177161D01*
X0148615Y0177036D01*
X0148527Y0176913D01*
X0148436Y0176793D01*
X0148342Y0176675D01*
X0148245Y0176560D01*
X0148145Y0176447D01*
X0148042Y0176337D01*
X0147936Y0176230D01*
X0147827Y0176125D01*
X0147716Y0176024D01*
X0147602Y0175925D01*
X0147486Y0175830D01*
X0147366Y0175737D01*
X0147245Y0175648D01*
X0147121Y0175562D01*
X0146995Y0175479D01*
X0146867Y0175400D01*
X0146737Y0175324D01*
X0146605Y0175251D01*
X0146471Y0175183D01*
X0146335Y0175117D01*
X0146197Y0175055D01*
X0146058Y0174997D01*
X0145918Y0174943D01*
X0145776Y0174892D01*
X0145633Y0174845D01*
X0145488Y0174802D01*
X0145343Y0174763D01*
X0145196Y0174727D01*
X0145049Y0174696D01*
X0144901Y0174668D01*
X0144752Y0174644D01*
X0144603Y0174624D01*
X0144453Y0174608D01*
X0144303Y0174596D01*
X0144152Y0174588D01*
X0144001Y0174584D01*
X0143851Y0174584D01*
X0143700Y0174588D01*
X0143549Y0174596D01*
X0143399Y0174608D01*
X0143249Y0174624D01*
X0143100Y0174644D01*
X0142951Y0174668D01*
X0142803Y0174696D01*
X0142656Y0174727D01*
X0142509Y0174763D01*
X0142364Y0174802D01*
X0142219Y0174845D01*
X0142076Y0174892D01*
X0141934Y0174943D01*
X0141794Y0174997D01*
X0141655Y0175055D01*
X0141517Y0175117D01*
X0141381Y0175183D01*
X0141247Y0175251D01*
X0141115Y0175324D01*
X0140985Y0175400D01*
X0140857Y0175479D01*
X0140731Y0175562D01*
X0140607Y0175648D01*
X0140486Y0175737D01*
X0140366Y0175830D01*
X0140250Y0175925D01*
X0140136Y0176024D01*
X0140025Y0176125D01*
X0139916Y0176230D01*
X0139810Y0176337D01*
X0139707Y0176447D01*
X0139607Y0176560D01*
X0139510Y0176675D01*
X0139416Y0176793D01*
X0139325Y0176913D01*
X0139237Y0177036D01*
X0139153Y0177161D01*
X0139072Y0177288D01*
X0138994Y0177417D01*
X0138920Y0177548D01*
X0138850Y0177681D01*
X0138782Y0177816D01*
X0138719Y0177953D01*
X0138659Y0178091D01*
X0138603Y0178231D01*
X0138550Y0178372D01*
X0138501Y0178514D01*
X0138456Y0178658D01*
X0138415Y0178803D01*
X0138377Y0178949D01*
X0138344Y0179096D01*
X0138314Y0179244D01*
X0138288Y0179392D01*
X0138267Y0179542D01*
X0138249Y0179691D01*
X0138235Y0179841D01*
X0138225Y0179992D01*
X0138219Y0180142D01*
X0138217Y0180293D01*
X0134582Y0180256D02*
X0129978Y0180256D01*
X0131513Y0178721D01*
X0134582Y0178721D02*
X0134582Y0181790D01*
X0141127Y0185041D02*
X0141150Y0185017D01*
X0138217Y0194072D02*
X0138219Y0194223D01*
X0138225Y0194373D01*
X0138235Y0194524D01*
X0138249Y0194674D01*
X0138267Y0194823D01*
X0138288Y0194973D01*
X0138314Y0195121D01*
X0138344Y0195269D01*
X0138377Y0195416D01*
X0138415Y0195562D01*
X0138456Y0195707D01*
X0138501Y0195851D01*
X0138550Y0195993D01*
X0138603Y0196134D01*
X0138659Y0196274D01*
X0138719Y0196412D01*
X0138782Y0196549D01*
X0138850Y0196684D01*
X0138920Y0196817D01*
X0138994Y0196948D01*
X0139072Y0197077D01*
X0139153Y0197204D01*
X0139237Y0197329D01*
X0139325Y0197452D01*
X0139416Y0197572D01*
X0139510Y0197690D01*
X0139607Y0197805D01*
X0139707Y0197918D01*
X0139810Y0198028D01*
X0139916Y0198135D01*
X0140025Y0198240D01*
X0140136Y0198341D01*
X0140250Y0198440D01*
X0140366Y0198535D01*
X0140486Y0198628D01*
X0140607Y0198717D01*
X0140731Y0198803D01*
X0140857Y0198886D01*
X0140985Y0198965D01*
X0141115Y0199041D01*
X0141247Y0199114D01*
X0141381Y0199182D01*
X0141517Y0199248D01*
X0141655Y0199310D01*
X0141794Y0199368D01*
X0141934Y0199422D01*
X0142076Y0199473D01*
X0142219Y0199520D01*
X0142364Y0199563D01*
X0142509Y0199602D01*
X0142656Y0199638D01*
X0142803Y0199669D01*
X0142951Y0199697D01*
X0143100Y0199721D01*
X0143249Y0199741D01*
X0143399Y0199757D01*
X0143549Y0199769D01*
X0143700Y0199777D01*
X0143851Y0199781D01*
X0144001Y0199781D01*
X0144152Y0199777D01*
X0144303Y0199769D01*
X0144453Y0199757D01*
X0144603Y0199741D01*
X0144752Y0199721D01*
X0144901Y0199697D01*
X0145049Y0199669D01*
X0145196Y0199638D01*
X0145343Y0199602D01*
X0145488Y0199563D01*
X0145633Y0199520D01*
X0145776Y0199473D01*
X0145918Y0199422D01*
X0146058Y0199368D01*
X0146197Y0199310D01*
X0146335Y0199248D01*
X0146471Y0199182D01*
X0146605Y0199114D01*
X0146737Y0199041D01*
X0146867Y0198965D01*
X0146995Y0198886D01*
X0147121Y0198803D01*
X0147245Y0198717D01*
X0147366Y0198628D01*
X0147486Y0198535D01*
X0147602Y0198440D01*
X0147716Y0198341D01*
X0147827Y0198240D01*
X0147936Y0198135D01*
X0148042Y0198028D01*
X0148145Y0197918D01*
X0148245Y0197805D01*
X0148342Y0197690D01*
X0148436Y0197572D01*
X0148527Y0197452D01*
X0148615Y0197329D01*
X0148699Y0197204D01*
X0148780Y0197077D01*
X0148858Y0196948D01*
X0148932Y0196817D01*
X0149002Y0196684D01*
X0149070Y0196549D01*
X0149133Y0196412D01*
X0149193Y0196274D01*
X0149249Y0196134D01*
X0149302Y0195993D01*
X0149351Y0195851D01*
X0149396Y0195707D01*
X0149437Y0195562D01*
X0149475Y0195416D01*
X0149508Y0195269D01*
X0149538Y0195121D01*
X0149564Y0194973D01*
X0149585Y0194823D01*
X0149603Y0194674D01*
X0149617Y0194524D01*
X0149627Y0194373D01*
X0149633Y0194223D01*
X0149635Y0194072D01*
X0149633Y0193921D01*
X0149627Y0193771D01*
X0149617Y0193620D01*
X0149603Y0193470D01*
X0149585Y0193321D01*
X0149564Y0193171D01*
X0149538Y0193023D01*
X0149508Y0192875D01*
X0149475Y0192728D01*
X0149437Y0192582D01*
X0149396Y0192437D01*
X0149351Y0192293D01*
X0149302Y0192151D01*
X0149249Y0192010D01*
X0149193Y0191870D01*
X0149133Y0191732D01*
X0149070Y0191595D01*
X0149002Y0191460D01*
X0148932Y0191327D01*
X0148858Y0191196D01*
X0148780Y0191067D01*
X0148699Y0190940D01*
X0148615Y0190815D01*
X0148527Y0190692D01*
X0148436Y0190572D01*
X0148342Y0190454D01*
X0148245Y0190339D01*
X0148145Y0190226D01*
X0148042Y0190116D01*
X0147936Y0190009D01*
X0147827Y0189904D01*
X0147716Y0189803D01*
X0147602Y0189704D01*
X0147486Y0189609D01*
X0147366Y0189516D01*
X0147245Y0189427D01*
X0147121Y0189341D01*
X0146995Y0189258D01*
X0146867Y0189179D01*
X0146737Y0189103D01*
X0146605Y0189030D01*
X0146471Y0188962D01*
X0146335Y0188896D01*
X0146197Y0188834D01*
X0146058Y0188776D01*
X0145918Y0188722D01*
X0145776Y0188671D01*
X0145633Y0188624D01*
X0145488Y0188581D01*
X0145343Y0188542D01*
X0145196Y0188506D01*
X0145049Y0188475D01*
X0144901Y0188447D01*
X0144752Y0188423D01*
X0144603Y0188403D01*
X0144453Y0188387D01*
X0144303Y0188375D01*
X0144152Y0188367D01*
X0144001Y0188363D01*
X0143851Y0188363D01*
X0143700Y0188367D01*
X0143549Y0188375D01*
X0143399Y0188387D01*
X0143249Y0188403D01*
X0143100Y0188423D01*
X0142951Y0188447D01*
X0142803Y0188475D01*
X0142656Y0188506D01*
X0142509Y0188542D01*
X0142364Y0188581D01*
X0142219Y0188624D01*
X0142076Y0188671D01*
X0141934Y0188722D01*
X0141794Y0188776D01*
X0141655Y0188834D01*
X0141517Y0188896D01*
X0141381Y0188962D01*
X0141247Y0189030D01*
X0141115Y0189103D01*
X0140985Y0189179D01*
X0140857Y0189258D01*
X0140731Y0189341D01*
X0140607Y0189427D01*
X0140486Y0189516D01*
X0140366Y0189609D01*
X0140250Y0189704D01*
X0140136Y0189803D01*
X0140025Y0189904D01*
X0139916Y0190009D01*
X0139810Y0190116D01*
X0139707Y0190226D01*
X0139607Y0190339D01*
X0139510Y0190454D01*
X0139416Y0190572D01*
X0139325Y0190692D01*
X0139237Y0190815D01*
X0139153Y0190940D01*
X0139072Y0191067D01*
X0138994Y0191196D01*
X0138920Y0191327D01*
X0138850Y0191460D01*
X0138782Y0191595D01*
X0138719Y0191732D01*
X0138659Y0191870D01*
X0138603Y0192010D01*
X0138550Y0192151D01*
X0138501Y0192293D01*
X0138456Y0192437D01*
X0138415Y0192582D01*
X0138377Y0192728D01*
X0138344Y0192875D01*
X0138314Y0193023D01*
X0138288Y0193171D01*
X0138267Y0193321D01*
X0138249Y0193470D01*
X0138235Y0193620D01*
X0138225Y0193771D01*
X0138219Y0193921D01*
X0138217Y0194072D01*
X0134582Y0195540D02*
X0134582Y0192471D01*
X0131513Y0195540D01*
X0130746Y0195540D01*
X0129978Y0194773D01*
X0129978Y0193238D01*
X0130746Y0192471D01*
X0136004Y0199978D02*
X0137876Y0199978D01*
X0141127Y0198820D02*
X0141150Y0198797D01*
X0145314Y0198383D02*
X0147382Y0195280D01*
X0148537Y0195280D02*
X0150605Y0195280D01*
X0149571Y0195280D02*
X0149571Y0198383D01*
X0148537Y0197348D01*
X0147382Y0198383D02*
X0145314Y0195280D01*
X0151760Y0195797D02*
X0152277Y0195280D01*
X0153311Y0195280D01*
X0153828Y0195797D01*
X0153828Y0196314D01*
X0153311Y0196831D01*
X0151760Y0196831D01*
X0151760Y0195797D01*
X0151760Y0196831D02*
X0152794Y0197866D01*
X0153828Y0198383D01*
X0138217Y0207852D02*
X0138219Y0208003D01*
X0138225Y0208153D01*
X0138235Y0208304D01*
X0138249Y0208454D01*
X0138267Y0208603D01*
X0138288Y0208753D01*
X0138314Y0208901D01*
X0138344Y0209049D01*
X0138377Y0209196D01*
X0138415Y0209342D01*
X0138456Y0209487D01*
X0138501Y0209631D01*
X0138550Y0209773D01*
X0138603Y0209914D01*
X0138659Y0210054D01*
X0138719Y0210192D01*
X0138782Y0210329D01*
X0138850Y0210464D01*
X0138920Y0210597D01*
X0138994Y0210728D01*
X0139072Y0210857D01*
X0139153Y0210984D01*
X0139237Y0211109D01*
X0139325Y0211232D01*
X0139416Y0211352D01*
X0139510Y0211470D01*
X0139607Y0211585D01*
X0139707Y0211698D01*
X0139810Y0211808D01*
X0139916Y0211915D01*
X0140025Y0212020D01*
X0140136Y0212121D01*
X0140250Y0212220D01*
X0140366Y0212315D01*
X0140486Y0212408D01*
X0140607Y0212497D01*
X0140731Y0212583D01*
X0140857Y0212666D01*
X0140985Y0212745D01*
X0141115Y0212821D01*
X0141247Y0212894D01*
X0141381Y0212962D01*
X0141517Y0213028D01*
X0141655Y0213090D01*
X0141794Y0213148D01*
X0141934Y0213202D01*
X0142076Y0213253D01*
X0142219Y0213300D01*
X0142364Y0213343D01*
X0142509Y0213382D01*
X0142656Y0213418D01*
X0142803Y0213449D01*
X0142951Y0213477D01*
X0143100Y0213501D01*
X0143249Y0213521D01*
X0143399Y0213537D01*
X0143549Y0213549D01*
X0143700Y0213557D01*
X0143851Y0213561D01*
X0144001Y0213561D01*
X0144152Y0213557D01*
X0144303Y0213549D01*
X0144453Y0213537D01*
X0144603Y0213521D01*
X0144752Y0213501D01*
X0144901Y0213477D01*
X0145049Y0213449D01*
X0145196Y0213418D01*
X0145343Y0213382D01*
X0145488Y0213343D01*
X0145633Y0213300D01*
X0145776Y0213253D01*
X0145918Y0213202D01*
X0146058Y0213148D01*
X0146197Y0213090D01*
X0146335Y0213028D01*
X0146471Y0212962D01*
X0146605Y0212894D01*
X0146737Y0212821D01*
X0146867Y0212745D01*
X0146995Y0212666D01*
X0147121Y0212583D01*
X0147245Y0212497D01*
X0147366Y0212408D01*
X0147486Y0212315D01*
X0147602Y0212220D01*
X0147716Y0212121D01*
X0147827Y0212020D01*
X0147936Y0211915D01*
X0148042Y0211808D01*
X0148145Y0211698D01*
X0148245Y0211585D01*
X0148342Y0211470D01*
X0148436Y0211352D01*
X0148527Y0211232D01*
X0148615Y0211109D01*
X0148699Y0210984D01*
X0148780Y0210857D01*
X0148858Y0210728D01*
X0148932Y0210597D01*
X0149002Y0210464D01*
X0149070Y0210329D01*
X0149133Y0210192D01*
X0149193Y0210054D01*
X0149249Y0209914D01*
X0149302Y0209773D01*
X0149351Y0209631D01*
X0149396Y0209487D01*
X0149437Y0209342D01*
X0149475Y0209196D01*
X0149508Y0209049D01*
X0149538Y0208901D01*
X0149564Y0208753D01*
X0149585Y0208603D01*
X0149603Y0208454D01*
X0149617Y0208304D01*
X0149627Y0208153D01*
X0149633Y0208003D01*
X0149635Y0207852D01*
X0149633Y0207701D01*
X0149627Y0207551D01*
X0149617Y0207400D01*
X0149603Y0207250D01*
X0149585Y0207101D01*
X0149564Y0206951D01*
X0149538Y0206803D01*
X0149508Y0206655D01*
X0149475Y0206508D01*
X0149437Y0206362D01*
X0149396Y0206217D01*
X0149351Y0206073D01*
X0149302Y0205931D01*
X0149249Y0205790D01*
X0149193Y0205650D01*
X0149133Y0205512D01*
X0149070Y0205375D01*
X0149002Y0205240D01*
X0148932Y0205107D01*
X0148858Y0204976D01*
X0148780Y0204847D01*
X0148699Y0204720D01*
X0148615Y0204595D01*
X0148527Y0204472D01*
X0148436Y0204352D01*
X0148342Y0204234D01*
X0148245Y0204119D01*
X0148145Y0204006D01*
X0148042Y0203896D01*
X0147936Y0203789D01*
X0147827Y0203684D01*
X0147716Y0203583D01*
X0147602Y0203484D01*
X0147486Y0203389D01*
X0147366Y0203296D01*
X0147245Y0203207D01*
X0147121Y0203121D01*
X0146995Y0203038D01*
X0146867Y0202959D01*
X0146737Y0202883D01*
X0146605Y0202810D01*
X0146471Y0202742D01*
X0146335Y0202676D01*
X0146197Y0202614D01*
X0146058Y0202556D01*
X0145918Y0202502D01*
X0145776Y0202451D01*
X0145633Y0202404D01*
X0145488Y0202361D01*
X0145343Y0202322D01*
X0145196Y0202286D01*
X0145049Y0202255D01*
X0144901Y0202227D01*
X0144752Y0202203D01*
X0144603Y0202183D01*
X0144453Y0202167D01*
X0144303Y0202155D01*
X0144152Y0202147D01*
X0144001Y0202143D01*
X0143851Y0202143D01*
X0143700Y0202147D01*
X0143549Y0202155D01*
X0143399Y0202167D01*
X0143249Y0202183D01*
X0143100Y0202203D01*
X0142951Y0202227D01*
X0142803Y0202255D01*
X0142656Y0202286D01*
X0142509Y0202322D01*
X0142364Y0202361D01*
X0142219Y0202404D01*
X0142076Y0202451D01*
X0141934Y0202502D01*
X0141794Y0202556D01*
X0141655Y0202614D01*
X0141517Y0202676D01*
X0141381Y0202742D01*
X0141247Y0202810D01*
X0141115Y0202883D01*
X0140985Y0202959D01*
X0140857Y0203038D01*
X0140731Y0203121D01*
X0140607Y0203207D01*
X0140486Y0203296D01*
X0140366Y0203389D01*
X0140250Y0203484D01*
X0140136Y0203583D01*
X0140025Y0203684D01*
X0139916Y0203789D01*
X0139810Y0203896D01*
X0139707Y0204006D01*
X0139607Y0204119D01*
X0139510Y0204234D01*
X0139416Y0204352D01*
X0139325Y0204472D01*
X0139237Y0204595D01*
X0139153Y0204720D01*
X0139072Y0204847D01*
X0138994Y0204976D01*
X0138920Y0205107D01*
X0138850Y0205240D01*
X0138782Y0205375D01*
X0138719Y0205512D01*
X0138659Y0205650D01*
X0138603Y0205790D01*
X0138550Y0205931D01*
X0138501Y0206073D01*
X0138456Y0206217D01*
X0138415Y0206362D01*
X0138377Y0206508D01*
X0138344Y0206655D01*
X0138314Y0206803D01*
X0138288Y0206951D01*
X0138267Y0207101D01*
X0138249Y0207250D01*
X0138235Y0207400D01*
X0138225Y0207551D01*
X0138219Y0207701D01*
X0138217Y0207852D01*
X0134582Y0207815D02*
X0129978Y0207815D01*
X0131513Y0206280D01*
X0134582Y0206280D02*
X0134582Y0209349D01*
X0141127Y0212600D02*
X0141150Y0212576D01*
X0138217Y0221631D02*
X0138219Y0221782D01*
X0138225Y0221932D01*
X0138235Y0222083D01*
X0138249Y0222233D01*
X0138267Y0222382D01*
X0138288Y0222532D01*
X0138314Y0222680D01*
X0138344Y0222828D01*
X0138377Y0222975D01*
X0138415Y0223121D01*
X0138456Y0223266D01*
X0138501Y0223410D01*
X0138550Y0223552D01*
X0138603Y0223693D01*
X0138659Y0223833D01*
X0138719Y0223971D01*
X0138782Y0224108D01*
X0138850Y0224243D01*
X0138920Y0224376D01*
X0138994Y0224507D01*
X0139072Y0224636D01*
X0139153Y0224763D01*
X0139237Y0224888D01*
X0139325Y0225011D01*
X0139416Y0225131D01*
X0139510Y0225249D01*
X0139607Y0225364D01*
X0139707Y0225477D01*
X0139810Y0225587D01*
X0139916Y0225694D01*
X0140025Y0225799D01*
X0140136Y0225900D01*
X0140250Y0225999D01*
X0140366Y0226094D01*
X0140486Y0226187D01*
X0140607Y0226276D01*
X0140731Y0226362D01*
X0140857Y0226445D01*
X0140985Y0226524D01*
X0141115Y0226600D01*
X0141247Y0226673D01*
X0141381Y0226741D01*
X0141517Y0226807D01*
X0141655Y0226869D01*
X0141794Y0226927D01*
X0141934Y0226981D01*
X0142076Y0227032D01*
X0142219Y0227079D01*
X0142364Y0227122D01*
X0142509Y0227161D01*
X0142656Y0227197D01*
X0142803Y0227228D01*
X0142951Y0227256D01*
X0143100Y0227280D01*
X0143249Y0227300D01*
X0143399Y0227316D01*
X0143549Y0227328D01*
X0143700Y0227336D01*
X0143851Y0227340D01*
X0144001Y0227340D01*
X0144152Y0227336D01*
X0144303Y0227328D01*
X0144453Y0227316D01*
X0144603Y0227300D01*
X0144752Y0227280D01*
X0144901Y0227256D01*
X0145049Y0227228D01*
X0145196Y0227197D01*
X0145343Y0227161D01*
X0145488Y0227122D01*
X0145633Y0227079D01*
X0145776Y0227032D01*
X0145918Y0226981D01*
X0146058Y0226927D01*
X0146197Y0226869D01*
X0146335Y0226807D01*
X0146471Y0226741D01*
X0146605Y0226673D01*
X0146737Y0226600D01*
X0146867Y0226524D01*
X0146995Y0226445D01*
X0147121Y0226362D01*
X0147245Y0226276D01*
X0147366Y0226187D01*
X0147486Y0226094D01*
X0147602Y0225999D01*
X0147716Y0225900D01*
X0147827Y0225799D01*
X0147936Y0225694D01*
X0148042Y0225587D01*
X0148145Y0225477D01*
X0148245Y0225364D01*
X0148342Y0225249D01*
X0148436Y0225131D01*
X0148527Y0225011D01*
X0148615Y0224888D01*
X0148699Y0224763D01*
X0148780Y0224636D01*
X0148858Y0224507D01*
X0148932Y0224376D01*
X0149002Y0224243D01*
X0149070Y0224108D01*
X0149133Y0223971D01*
X0149193Y0223833D01*
X0149249Y0223693D01*
X0149302Y0223552D01*
X0149351Y0223410D01*
X0149396Y0223266D01*
X0149437Y0223121D01*
X0149475Y0222975D01*
X0149508Y0222828D01*
X0149538Y0222680D01*
X0149564Y0222532D01*
X0149585Y0222382D01*
X0149603Y0222233D01*
X0149617Y0222083D01*
X0149627Y0221932D01*
X0149633Y0221782D01*
X0149635Y0221631D01*
X0149633Y0221480D01*
X0149627Y0221330D01*
X0149617Y0221179D01*
X0149603Y0221029D01*
X0149585Y0220880D01*
X0149564Y0220730D01*
X0149538Y0220582D01*
X0149508Y0220434D01*
X0149475Y0220287D01*
X0149437Y0220141D01*
X0149396Y0219996D01*
X0149351Y0219852D01*
X0149302Y0219710D01*
X0149249Y0219569D01*
X0149193Y0219429D01*
X0149133Y0219291D01*
X0149070Y0219154D01*
X0149002Y0219019D01*
X0148932Y0218886D01*
X0148858Y0218755D01*
X0148780Y0218626D01*
X0148699Y0218499D01*
X0148615Y0218374D01*
X0148527Y0218251D01*
X0148436Y0218131D01*
X0148342Y0218013D01*
X0148245Y0217898D01*
X0148145Y0217785D01*
X0148042Y0217675D01*
X0147936Y0217568D01*
X0147827Y0217463D01*
X0147716Y0217362D01*
X0147602Y0217263D01*
X0147486Y0217168D01*
X0147366Y0217075D01*
X0147245Y0216986D01*
X0147121Y0216900D01*
X0146995Y0216817D01*
X0146867Y0216738D01*
X0146737Y0216662D01*
X0146605Y0216589D01*
X0146471Y0216521D01*
X0146335Y0216455D01*
X0146197Y0216393D01*
X0146058Y0216335D01*
X0145918Y0216281D01*
X0145776Y0216230D01*
X0145633Y0216183D01*
X0145488Y0216140D01*
X0145343Y0216101D01*
X0145196Y0216065D01*
X0145049Y0216034D01*
X0144901Y0216006D01*
X0144752Y0215982D01*
X0144603Y0215962D01*
X0144453Y0215946D01*
X0144303Y0215934D01*
X0144152Y0215926D01*
X0144001Y0215922D01*
X0143851Y0215922D01*
X0143700Y0215926D01*
X0143549Y0215934D01*
X0143399Y0215946D01*
X0143249Y0215962D01*
X0143100Y0215982D01*
X0142951Y0216006D01*
X0142803Y0216034D01*
X0142656Y0216065D01*
X0142509Y0216101D01*
X0142364Y0216140D01*
X0142219Y0216183D01*
X0142076Y0216230D01*
X0141934Y0216281D01*
X0141794Y0216335D01*
X0141655Y0216393D01*
X0141517Y0216455D01*
X0141381Y0216521D01*
X0141247Y0216589D01*
X0141115Y0216662D01*
X0140985Y0216738D01*
X0140857Y0216817D01*
X0140731Y0216900D01*
X0140607Y0216986D01*
X0140486Y0217075D01*
X0140366Y0217168D01*
X0140250Y0217263D01*
X0140136Y0217362D01*
X0140025Y0217463D01*
X0139916Y0217568D01*
X0139810Y0217675D01*
X0139707Y0217785D01*
X0139607Y0217898D01*
X0139510Y0218013D01*
X0139416Y0218131D01*
X0139325Y0218251D01*
X0139237Y0218374D01*
X0139153Y0218499D01*
X0139072Y0218626D01*
X0138994Y0218755D01*
X0138920Y0218886D01*
X0138850Y0219019D01*
X0138782Y0219154D01*
X0138719Y0219291D01*
X0138659Y0219429D01*
X0138603Y0219569D01*
X0138550Y0219710D01*
X0138501Y0219852D01*
X0138456Y0219996D01*
X0138415Y0220141D01*
X0138377Y0220287D01*
X0138344Y0220434D01*
X0138314Y0220582D01*
X0138288Y0220730D01*
X0138267Y0220880D01*
X0138249Y0221029D01*
X0138235Y0221179D01*
X0138225Y0221330D01*
X0138219Y0221480D01*
X0138217Y0221631D01*
X0134582Y0223099D02*
X0134582Y0220030D01*
X0131513Y0223099D01*
X0130746Y0223099D01*
X0129978Y0222332D01*
X0129978Y0220797D01*
X0130746Y0220030D01*
X0136004Y0227537D02*
X0137876Y0227537D01*
X0141127Y0226379D02*
X0141150Y0226356D01*
X0145314Y0225942D02*
X0147382Y0222839D01*
X0148537Y0222839D02*
X0150605Y0222839D01*
X0149571Y0222839D02*
X0149571Y0225942D01*
X0148537Y0224908D01*
X0147382Y0225942D02*
X0145314Y0222839D01*
X0151760Y0223356D02*
X0152277Y0222839D01*
X0153311Y0222839D01*
X0153828Y0223356D01*
X0153828Y0224390D01*
X0153311Y0224908D01*
X0152794Y0224908D01*
X0151760Y0224390D01*
X0151760Y0225942D01*
X0153828Y0225942D01*
X0138217Y0235411D02*
X0138219Y0235562D01*
X0138225Y0235712D01*
X0138235Y0235863D01*
X0138249Y0236013D01*
X0138267Y0236162D01*
X0138288Y0236312D01*
X0138314Y0236460D01*
X0138344Y0236608D01*
X0138377Y0236755D01*
X0138415Y0236901D01*
X0138456Y0237046D01*
X0138501Y0237190D01*
X0138550Y0237332D01*
X0138603Y0237473D01*
X0138659Y0237613D01*
X0138719Y0237751D01*
X0138782Y0237888D01*
X0138850Y0238023D01*
X0138920Y0238156D01*
X0138994Y0238287D01*
X0139072Y0238416D01*
X0139153Y0238543D01*
X0139237Y0238668D01*
X0139325Y0238791D01*
X0139416Y0238911D01*
X0139510Y0239029D01*
X0139607Y0239144D01*
X0139707Y0239257D01*
X0139810Y0239367D01*
X0139916Y0239474D01*
X0140025Y0239579D01*
X0140136Y0239680D01*
X0140250Y0239779D01*
X0140366Y0239874D01*
X0140486Y0239967D01*
X0140607Y0240056D01*
X0140731Y0240142D01*
X0140857Y0240225D01*
X0140985Y0240304D01*
X0141115Y0240380D01*
X0141247Y0240453D01*
X0141381Y0240521D01*
X0141517Y0240587D01*
X0141655Y0240649D01*
X0141794Y0240707D01*
X0141934Y0240761D01*
X0142076Y0240812D01*
X0142219Y0240859D01*
X0142364Y0240902D01*
X0142509Y0240941D01*
X0142656Y0240977D01*
X0142803Y0241008D01*
X0142951Y0241036D01*
X0143100Y0241060D01*
X0143249Y0241080D01*
X0143399Y0241096D01*
X0143549Y0241108D01*
X0143700Y0241116D01*
X0143851Y0241120D01*
X0144001Y0241120D01*
X0144152Y0241116D01*
X0144303Y0241108D01*
X0144453Y0241096D01*
X0144603Y0241080D01*
X0144752Y0241060D01*
X0144901Y0241036D01*
X0145049Y0241008D01*
X0145196Y0240977D01*
X0145343Y0240941D01*
X0145488Y0240902D01*
X0145633Y0240859D01*
X0145776Y0240812D01*
X0145918Y0240761D01*
X0146058Y0240707D01*
X0146197Y0240649D01*
X0146335Y0240587D01*
X0146471Y0240521D01*
X0146605Y0240453D01*
X0146737Y0240380D01*
X0146867Y0240304D01*
X0146995Y0240225D01*
X0147121Y0240142D01*
X0147245Y0240056D01*
X0147366Y0239967D01*
X0147486Y0239874D01*
X0147602Y0239779D01*
X0147716Y0239680D01*
X0147827Y0239579D01*
X0147936Y0239474D01*
X0148042Y0239367D01*
X0148145Y0239257D01*
X0148245Y0239144D01*
X0148342Y0239029D01*
X0148436Y0238911D01*
X0148527Y0238791D01*
X0148615Y0238668D01*
X0148699Y0238543D01*
X0148780Y0238416D01*
X0148858Y0238287D01*
X0148932Y0238156D01*
X0149002Y0238023D01*
X0149070Y0237888D01*
X0149133Y0237751D01*
X0149193Y0237613D01*
X0149249Y0237473D01*
X0149302Y0237332D01*
X0149351Y0237190D01*
X0149396Y0237046D01*
X0149437Y0236901D01*
X0149475Y0236755D01*
X0149508Y0236608D01*
X0149538Y0236460D01*
X0149564Y0236312D01*
X0149585Y0236162D01*
X0149603Y0236013D01*
X0149617Y0235863D01*
X0149627Y0235712D01*
X0149633Y0235562D01*
X0149635Y0235411D01*
X0149633Y0235260D01*
X0149627Y0235110D01*
X0149617Y0234959D01*
X0149603Y0234809D01*
X0149585Y0234660D01*
X0149564Y0234510D01*
X0149538Y0234362D01*
X0149508Y0234214D01*
X0149475Y0234067D01*
X0149437Y0233921D01*
X0149396Y0233776D01*
X0149351Y0233632D01*
X0149302Y0233490D01*
X0149249Y0233349D01*
X0149193Y0233209D01*
X0149133Y0233071D01*
X0149070Y0232934D01*
X0149002Y0232799D01*
X0148932Y0232666D01*
X0148858Y0232535D01*
X0148780Y0232406D01*
X0148699Y0232279D01*
X0148615Y0232154D01*
X0148527Y0232031D01*
X0148436Y0231911D01*
X0148342Y0231793D01*
X0148245Y0231678D01*
X0148145Y0231565D01*
X0148042Y0231455D01*
X0147936Y0231348D01*
X0147827Y0231243D01*
X0147716Y0231142D01*
X0147602Y0231043D01*
X0147486Y0230948D01*
X0147366Y0230855D01*
X0147245Y0230766D01*
X0147121Y0230680D01*
X0146995Y0230597D01*
X0146867Y0230518D01*
X0146737Y0230442D01*
X0146605Y0230369D01*
X0146471Y0230301D01*
X0146335Y0230235D01*
X0146197Y0230173D01*
X0146058Y0230115D01*
X0145918Y0230061D01*
X0145776Y0230010D01*
X0145633Y0229963D01*
X0145488Y0229920D01*
X0145343Y0229881D01*
X0145196Y0229845D01*
X0145049Y0229814D01*
X0144901Y0229786D01*
X0144752Y0229762D01*
X0144603Y0229742D01*
X0144453Y0229726D01*
X0144303Y0229714D01*
X0144152Y0229706D01*
X0144001Y0229702D01*
X0143851Y0229702D01*
X0143700Y0229706D01*
X0143549Y0229714D01*
X0143399Y0229726D01*
X0143249Y0229742D01*
X0143100Y0229762D01*
X0142951Y0229786D01*
X0142803Y0229814D01*
X0142656Y0229845D01*
X0142509Y0229881D01*
X0142364Y0229920D01*
X0142219Y0229963D01*
X0142076Y0230010D01*
X0141934Y0230061D01*
X0141794Y0230115D01*
X0141655Y0230173D01*
X0141517Y0230235D01*
X0141381Y0230301D01*
X0141247Y0230369D01*
X0141115Y0230442D01*
X0140985Y0230518D01*
X0140857Y0230597D01*
X0140731Y0230680D01*
X0140607Y0230766D01*
X0140486Y0230855D01*
X0140366Y0230948D01*
X0140250Y0231043D01*
X0140136Y0231142D01*
X0140025Y0231243D01*
X0139916Y0231348D01*
X0139810Y0231455D01*
X0139707Y0231565D01*
X0139607Y0231678D01*
X0139510Y0231793D01*
X0139416Y0231911D01*
X0139325Y0232031D01*
X0139237Y0232154D01*
X0139153Y0232279D01*
X0139072Y0232406D01*
X0138994Y0232535D01*
X0138920Y0232666D01*
X0138850Y0232799D01*
X0138782Y0232934D01*
X0138719Y0233071D01*
X0138659Y0233209D01*
X0138603Y0233349D01*
X0138550Y0233490D01*
X0138501Y0233632D01*
X0138456Y0233776D01*
X0138415Y0233921D01*
X0138377Y0234067D01*
X0138344Y0234214D01*
X0138314Y0234362D01*
X0138288Y0234510D01*
X0138267Y0234660D01*
X0138249Y0234809D01*
X0138235Y0234959D01*
X0138225Y0235110D01*
X0138219Y0235260D01*
X0138217Y0235411D01*
X0134582Y0235374D02*
X0129978Y0235374D01*
X0131513Y0233839D01*
X0134582Y0233839D02*
X0134582Y0236908D01*
X0141127Y0240159D02*
X0141150Y0240135D01*
X0138217Y0249190D02*
X0138219Y0249341D01*
X0138225Y0249491D01*
X0138235Y0249642D01*
X0138249Y0249792D01*
X0138267Y0249941D01*
X0138288Y0250091D01*
X0138314Y0250239D01*
X0138344Y0250387D01*
X0138377Y0250534D01*
X0138415Y0250680D01*
X0138456Y0250825D01*
X0138501Y0250969D01*
X0138550Y0251111D01*
X0138603Y0251252D01*
X0138659Y0251392D01*
X0138719Y0251530D01*
X0138782Y0251667D01*
X0138850Y0251802D01*
X0138920Y0251935D01*
X0138994Y0252066D01*
X0139072Y0252195D01*
X0139153Y0252322D01*
X0139237Y0252447D01*
X0139325Y0252570D01*
X0139416Y0252690D01*
X0139510Y0252808D01*
X0139607Y0252923D01*
X0139707Y0253036D01*
X0139810Y0253146D01*
X0139916Y0253253D01*
X0140025Y0253358D01*
X0140136Y0253459D01*
X0140250Y0253558D01*
X0140366Y0253653D01*
X0140486Y0253746D01*
X0140607Y0253835D01*
X0140731Y0253921D01*
X0140857Y0254004D01*
X0140985Y0254083D01*
X0141115Y0254159D01*
X0141247Y0254232D01*
X0141381Y0254300D01*
X0141517Y0254366D01*
X0141655Y0254428D01*
X0141794Y0254486D01*
X0141934Y0254540D01*
X0142076Y0254591D01*
X0142219Y0254638D01*
X0142364Y0254681D01*
X0142509Y0254720D01*
X0142656Y0254756D01*
X0142803Y0254787D01*
X0142951Y0254815D01*
X0143100Y0254839D01*
X0143249Y0254859D01*
X0143399Y0254875D01*
X0143549Y0254887D01*
X0143700Y0254895D01*
X0143851Y0254899D01*
X0144001Y0254899D01*
X0144152Y0254895D01*
X0144303Y0254887D01*
X0144453Y0254875D01*
X0144603Y0254859D01*
X0144752Y0254839D01*
X0144901Y0254815D01*
X0145049Y0254787D01*
X0145196Y0254756D01*
X0145343Y0254720D01*
X0145488Y0254681D01*
X0145633Y0254638D01*
X0145776Y0254591D01*
X0145918Y0254540D01*
X0146058Y0254486D01*
X0146197Y0254428D01*
X0146335Y0254366D01*
X0146471Y0254300D01*
X0146605Y0254232D01*
X0146737Y0254159D01*
X0146867Y0254083D01*
X0146995Y0254004D01*
X0147121Y0253921D01*
X0147245Y0253835D01*
X0147366Y0253746D01*
X0147486Y0253653D01*
X0147602Y0253558D01*
X0147716Y0253459D01*
X0147827Y0253358D01*
X0147936Y0253253D01*
X0148042Y0253146D01*
X0148145Y0253036D01*
X0148245Y0252923D01*
X0148342Y0252808D01*
X0148436Y0252690D01*
X0148527Y0252570D01*
X0148615Y0252447D01*
X0148699Y0252322D01*
X0148780Y0252195D01*
X0148858Y0252066D01*
X0148932Y0251935D01*
X0149002Y0251802D01*
X0149070Y0251667D01*
X0149133Y0251530D01*
X0149193Y0251392D01*
X0149249Y0251252D01*
X0149302Y0251111D01*
X0149351Y0250969D01*
X0149396Y0250825D01*
X0149437Y0250680D01*
X0149475Y0250534D01*
X0149508Y0250387D01*
X0149538Y0250239D01*
X0149564Y0250091D01*
X0149585Y0249941D01*
X0149603Y0249792D01*
X0149617Y0249642D01*
X0149627Y0249491D01*
X0149633Y0249341D01*
X0149635Y0249190D01*
X0149633Y0249039D01*
X0149627Y0248889D01*
X0149617Y0248738D01*
X0149603Y0248588D01*
X0149585Y0248439D01*
X0149564Y0248289D01*
X0149538Y0248141D01*
X0149508Y0247993D01*
X0149475Y0247846D01*
X0149437Y0247700D01*
X0149396Y0247555D01*
X0149351Y0247411D01*
X0149302Y0247269D01*
X0149249Y0247128D01*
X0149193Y0246988D01*
X0149133Y0246850D01*
X0149070Y0246713D01*
X0149002Y0246578D01*
X0148932Y0246445D01*
X0148858Y0246314D01*
X0148780Y0246185D01*
X0148699Y0246058D01*
X0148615Y0245933D01*
X0148527Y0245810D01*
X0148436Y0245690D01*
X0148342Y0245572D01*
X0148245Y0245457D01*
X0148145Y0245344D01*
X0148042Y0245234D01*
X0147936Y0245127D01*
X0147827Y0245022D01*
X0147716Y0244921D01*
X0147602Y0244822D01*
X0147486Y0244727D01*
X0147366Y0244634D01*
X0147245Y0244545D01*
X0147121Y0244459D01*
X0146995Y0244376D01*
X0146867Y0244297D01*
X0146737Y0244221D01*
X0146605Y0244148D01*
X0146471Y0244080D01*
X0146335Y0244014D01*
X0146197Y0243952D01*
X0146058Y0243894D01*
X0145918Y0243840D01*
X0145776Y0243789D01*
X0145633Y0243742D01*
X0145488Y0243699D01*
X0145343Y0243660D01*
X0145196Y0243624D01*
X0145049Y0243593D01*
X0144901Y0243565D01*
X0144752Y0243541D01*
X0144603Y0243521D01*
X0144453Y0243505D01*
X0144303Y0243493D01*
X0144152Y0243485D01*
X0144001Y0243481D01*
X0143851Y0243481D01*
X0143700Y0243485D01*
X0143549Y0243493D01*
X0143399Y0243505D01*
X0143249Y0243521D01*
X0143100Y0243541D01*
X0142951Y0243565D01*
X0142803Y0243593D01*
X0142656Y0243624D01*
X0142509Y0243660D01*
X0142364Y0243699D01*
X0142219Y0243742D01*
X0142076Y0243789D01*
X0141934Y0243840D01*
X0141794Y0243894D01*
X0141655Y0243952D01*
X0141517Y0244014D01*
X0141381Y0244080D01*
X0141247Y0244148D01*
X0141115Y0244221D01*
X0140985Y0244297D01*
X0140857Y0244376D01*
X0140731Y0244459D01*
X0140607Y0244545D01*
X0140486Y0244634D01*
X0140366Y0244727D01*
X0140250Y0244822D01*
X0140136Y0244921D01*
X0140025Y0245022D01*
X0139916Y0245127D01*
X0139810Y0245234D01*
X0139707Y0245344D01*
X0139607Y0245457D01*
X0139510Y0245572D01*
X0139416Y0245690D01*
X0139325Y0245810D01*
X0139237Y0245933D01*
X0139153Y0246058D01*
X0139072Y0246185D01*
X0138994Y0246314D01*
X0138920Y0246445D01*
X0138850Y0246578D01*
X0138782Y0246713D01*
X0138719Y0246850D01*
X0138659Y0246988D01*
X0138603Y0247128D01*
X0138550Y0247269D01*
X0138501Y0247411D01*
X0138456Y0247555D01*
X0138415Y0247700D01*
X0138377Y0247846D01*
X0138344Y0247993D01*
X0138314Y0248141D01*
X0138288Y0248289D01*
X0138267Y0248439D01*
X0138249Y0248588D01*
X0138235Y0248738D01*
X0138225Y0248889D01*
X0138219Y0249039D01*
X0138217Y0249190D01*
X0134582Y0250658D02*
X0134582Y0247589D01*
X0131513Y0250658D01*
X0130746Y0250658D01*
X0129978Y0249891D01*
X0129978Y0248356D01*
X0130746Y0247589D01*
X0136004Y0255096D02*
X0137876Y0255096D01*
X0141127Y0253938D02*
X0141150Y0253915D01*
X0145314Y0253501D02*
X0147382Y0250398D01*
X0148537Y0250398D02*
X0150605Y0250398D01*
X0149571Y0250398D02*
X0149571Y0253501D01*
X0148537Y0252467D01*
X0147382Y0253501D02*
X0145314Y0250398D01*
X0151760Y0251949D02*
X0153828Y0251949D01*
X0153311Y0250398D02*
X0153311Y0253501D01*
X0151760Y0251949D01*
X0138217Y0262970D02*
X0138219Y0263121D01*
X0138225Y0263271D01*
X0138235Y0263422D01*
X0138249Y0263572D01*
X0138267Y0263721D01*
X0138288Y0263871D01*
X0138314Y0264019D01*
X0138344Y0264167D01*
X0138377Y0264314D01*
X0138415Y0264460D01*
X0138456Y0264605D01*
X0138501Y0264749D01*
X0138550Y0264891D01*
X0138603Y0265032D01*
X0138659Y0265172D01*
X0138719Y0265310D01*
X0138782Y0265447D01*
X0138850Y0265582D01*
X0138920Y0265715D01*
X0138994Y0265846D01*
X0139072Y0265975D01*
X0139153Y0266102D01*
X0139237Y0266227D01*
X0139325Y0266350D01*
X0139416Y0266470D01*
X0139510Y0266588D01*
X0139607Y0266703D01*
X0139707Y0266816D01*
X0139810Y0266926D01*
X0139916Y0267033D01*
X0140025Y0267138D01*
X0140136Y0267239D01*
X0140250Y0267338D01*
X0140366Y0267433D01*
X0140486Y0267526D01*
X0140607Y0267615D01*
X0140731Y0267701D01*
X0140857Y0267784D01*
X0140985Y0267863D01*
X0141115Y0267939D01*
X0141247Y0268012D01*
X0141381Y0268080D01*
X0141517Y0268146D01*
X0141655Y0268208D01*
X0141794Y0268266D01*
X0141934Y0268320D01*
X0142076Y0268371D01*
X0142219Y0268418D01*
X0142364Y0268461D01*
X0142509Y0268500D01*
X0142656Y0268536D01*
X0142803Y0268567D01*
X0142951Y0268595D01*
X0143100Y0268619D01*
X0143249Y0268639D01*
X0143399Y0268655D01*
X0143549Y0268667D01*
X0143700Y0268675D01*
X0143851Y0268679D01*
X0144001Y0268679D01*
X0144152Y0268675D01*
X0144303Y0268667D01*
X0144453Y0268655D01*
X0144603Y0268639D01*
X0144752Y0268619D01*
X0144901Y0268595D01*
X0145049Y0268567D01*
X0145196Y0268536D01*
X0145343Y0268500D01*
X0145488Y0268461D01*
X0145633Y0268418D01*
X0145776Y0268371D01*
X0145918Y0268320D01*
X0146058Y0268266D01*
X0146197Y0268208D01*
X0146335Y0268146D01*
X0146471Y0268080D01*
X0146605Y0268012D01*
X0146737Y0267939D01*
X0146867Y0267863D01*
X0146995Y0267784D01*
X0147121Y0267701D01*
X0147245Y0267615D01*
X0147366Y0267526D01*
X0147486Y0267433D01*
X0147602Y0267338D01*
X0147716Y0267239D01*
X0147827Y0267138D01*
X0147936Y0267033D01*
X0148042Y0266926D01*
X0148145Y0266816D01*
X0148245Y0266703D01*
X0148342Y0266588D01*
X0148436Y0266470D01*
X0148527Y0266350D01*
X0148615Y0266227D01*
X0148699Y0266102D01*
X0148780Y0265975D01*
X0148858Y0265846D01*
X0148932Y0265715D01*
X0149002Y0265582D01*
X0149070Y0265447D01*
X0149133Y0265310D01*
X0149193Y0265172D01*
X0149249Y0265032D01*
X0149302Y0264891D01*
X0149351Y0264749D01*
X0149396Y0264605D01*
X0149437Y0264460D01*
X0149475Y0264314D01*
X0149508Y0264167D01*
X0149538Y0264019D01*
X0149564Y0263871D01*
X0149585Y0263721D01*
X0149603Y0263572D01*
X0149617Y0263422D01*
X0149627Y0263271D01*
X0149633Y0263121D01*
X0149635Y0262970D01*
X0149633Y0262819D01*
X0149627Y0262669D01*
X0149617Y0262518D01*
X0149603Y0262368D01*
X0149585Y0262219D01*
X0149564Y0262069D01*
X0149538Y0261921D01*
X0149508Y0261773D01*
X0149475Y0261626D01*
X0149437Y0261480D01*
X0149396Y0261335D01*
X0149351Y0261191D01*
X0149302Y0261049D01*
X0149249Y0260908D01*
X0149193Y0260768D01*
X0149133Y0260630D01*
X0149070Y0260493D01*
X0149002Y0260358D01*
X0148932Y0260225D01*
X0148858Y0260094D01*
X0148780Y0259965D01*
X0148699Y0259838D01*
X0148615Y0259713D01*
X0148527Y0259590D01*
X0148436Y0259470D01*
X0148342Y0259352D01*
X0148245Y0259237D01*
X0148145Y0259124D01*
X0148042Y0259014D01*
X0147936Y0258907D01*
X0147827Y0258802D01*
X0147716Y0258701D01*
X0147602Y0258602D01*
X0147486Y0258507D01*
X0147366Y0258414D01*
X0147245Y0258325D01*
X0147121Y0258239D01*
X0146995Y0258156D01*
X0146867Y0258077D01*
X0146737Y0258001D01*
X0146605Y0257928D01*
X0146471Y0257860D01*
X0146335Y0257794D01*
X0146197Y0257732D01*
X0146058Y0257674D01*
X0145918Y0257620D01*
X0145776Y0257569D01*
X0145633Y0257522D01*
X0145488Y0257479D01*
X0145343Y0257440D01*
X0145196Y0257404D01*
X0145049Y0257373D01*
X0144901Y0257345D01*
X0144752Y0257321D01*
X0144603Y0257301D01*
X0144453Y0257285D01*
X0144303Y0257273D01*
X0144152Y0257265D01*
X0144001Y0257261D01*
X0143851Y0257261D01*
X0143700Y0257265D01*
X0143549Y0257273D01*
X0143399Y0257285D01*
X0143249Y0257301D01*
X0143100Y0257321D01*
X0142951Y0257345D01*
X0142803Y0257373D01*
X0142656Y0257404D01*
X0142509Y0257440D01*
X0142364Y0257479D01*
X0142219Y0257522D01*
X0142076Y0257569D01*
X0141934Y0257620D01*
X0141794Y0257674D01*
X0141655Y0257732D01*
X0141517Y0257794D01*
X0141381Y0257860D01*
X0141247Y0257928D01*
X0141115Y0258001D01*
X0140985Y0258077D01*
X0140857Y0258156D01*
X0140731Y0258239D01*
X0140607Y0258325D01*
X0140486Y0258414D01*
X0140366Y0258507D01*
X0140250Y0258602D01*
X0140136Y0258701D01*
X0140025Y0258802D01*
X0139916Y0258907D01*
X0139810Y0259014D01*
X0139707Y0259124D01*
X0139607Y0259237D01*
X0139510Y0259352D01*
X0139416Y0259470D01*
X0139325Y0259590D01*
X0139237Y0259713D01*
X0139153Y0259838D01*
X0139072Y0259965D01*
X0138994Y0260094D01*
X0138920Y0260225D01*
X0138850Y0260358D01*
X0138782Y0260493D01*
X0138719Y0260630D01*
X0138659Y0260768D01*
X0138603Y0260908D01*
X0138550Y0261049D01*
X0138501Y0261191D01*
X0138456Y0261335D01*
X0138415Y0261480D01*
X0138377Y0261626D01*
X0138344Y0261773D01*
X0138314Y0261921D01*
X0138288Y0262069D01*
X0138267Y0262219D01*
X0138249Y0262368D01*
X0138235Y0262518D01*
X0138225Y0262669D01*
X0138219Y0262819D01*
X0138217Y0262970D01*
X0134582Y0262933D02*
X0129978Y0262933D01*
X0131513Y0261398D01*
X0134582Y0261398D02*
X0134582Y0264467D01*
X0141127Y0267718D02*
X0141150Y0267694D01*
X0138217Y0276749D02*
X0138219Y0276900D01*
X0138225Y0277050D01*
X0138235Y0277201D01*
X0138249Y0277351D01*
X0138267Y0277500D01*
X0138288Y0277650D01*
X0138314Y0277798D01*
X0138344Y0277946D01*
X0138377Y0278093D01*
X0138415Y0278239D01*
X0138456Y0278384D01*
X0138501Y0278528D01*
X0138550Y0278670D01*
X0138603Y0278811D01*
X0138659Y0278951D01*
X0138719Y0279089D01*
X0138782Y0279226D01*
X0138850Y0279361D01*
X0138920Y0279494D01*
X0138994Y0279625D01*
X0139072Y0279754D01*
X0139153Y0279881D01*
X0139237Y0280006D01*
X0139325Y0280129D01*
X0139416Y0280249D01*
X0139510Y0280367D01*
X0139607Y0280482D01*
X0139707Y0280595D01*
X0139810Y0280705D01*
X0139916Y0280812D01*
X0140025Y0280917D01*
X0140136Y0281018D01*
X0140250Y0281117D01*
X0140366Y0281212D01*
X0140486Y0281305D01*
X0140607Y0281394D01*
X0140731Y0281480D01*
X0140857Y0281563D01*
X0140985Y0281642D01*
X0141115Y0281718D01*
X0141247Y0281791D01*
X0141381Y0281859D01*
X0141517Y0281925D01*
X0141655Y0281987D01*
X0141794Y0282045D01*
X0141934Y0282099D01*
X0142076Y0282150D01*
X0142219Y0282197D01*
X0142364Y0282240D01*
X0142509Y0282279D01*
X0142656Y0282315D01*
X0142803Y0282346D01*
X0142951Y0282374D01*
X0143100Y0282398D01*
X0143249Y0282418D01*
X0143399Y0282434D01*
X0143549Y0282446D01*
X0143700Y0282454D01*
X0143851Y0282458D01*
X0144001Y0282458D01*
X0144152Y0282454D01*
X0144303Y0282446D01*
X0144453Y0282434D01*
X0144603Y0282418D01*
X0144752Y0282398D01*
X0144901Y0282374D01*
X0145049Y0282346D01*
X0145196Y0282315D01*
X0145343Y0282279D01*
X0145488Y0282240D01*
X0145633Y0282197D01*
X0145776Y0282150D01*
X0145918Y0282099D01*
X0146058Y0282045D01*
X0146197Y0281987D01*
X0146335Y0281925D01*
X0146471Y0281859D01*
X0146605Y0281791D01*
X0146737Y0281718D01*
X0146867Y0281642D01*
X0146995Y0281563D01*
X0147121Y0281480D01*
X0147245Y0281394D01*
X0147366Y0281305D01*
X0147486Y0281212D01*
X0147602Y0281117D01*
X0147716Y0281018D01*
X0147827Y0280917D01*
X0147936Y0280812D01*
X0148042Y0280705D01*
X0148145Y0280595D01*
X0148245Y0280482D01*
X0148342Y0280367D01*
X0148436Y0280249D01*
X0148527Y0280129D01*
X0148615Y0280006D01*
X0148699Y0279881D01*
X0148780Y0279754D01*
X0148858Y0279625D01*
X0148932Y0279494D01*
X0149002Y0279361D01*
X0149070Y0279226D01*
X0149133Y0279089D01*
X0149193Y0278951D01*
X0149249Y0278811D01*
X0149302Y0278670D01*
X0149351Y0278528D01*
X0149396Y0278384D01*
X0149437Y0278239D01*
X0149475Y0278093D01*
X0149508Y0277946D01*
X0149538Y0277798D01*
X0149564Y0277650D01*
X0149585Y0277500D01*
X0149603Y0277351D01*
X0149617Y0277201D01*
X0149627Y0277050D01*
X0149633Y0276900D01*
X0149635Y0276749D01*
X0149633Y0276598D01*
X0149627Y0276448D01*
X0149617Y0276297D01*
X0149603Y0276147D01*
X0149585Y0275998D01*
X0149564Y0275848D01*
X0149538Y0275700D01*
X0149508Y0275552D01*
X0149475Y0275405D01*
X0149437Y0275259D01*
X0149396Y0275114D01*
X0149351Y0274970D01*
X0149302Y0274828D01*
X0149249Y0274687D01*
X0149193Y0274547D01*
X0149133Y0274409D01*
X0149070Y0274272D01*
X0149002Y0274137D01*
X0148932Y0274004D01*
X0148858Y0273873D01*
X0148780Y0273744D01*
X0148699Y0273617D01*
X0148615Y0273492D01*
X0148527Y0273369D01*
X0148436Y0273249D01*
X0148342Y0273131D01*
X0148245Y0273016D01*
X0148145Y0272903D01*
X0148042Y0272793D01*
X0147936Y0272686D01*
X0147827Y0272581D01*
X0147716Y0272480D01*
X0147602Y0272381D01*
X0147486Y0272286D01*
X0147366Y0272193D01*
X0147245Y0272104D01*
X0147121Y0272018D01*
X0146995Y0271935D01*
X0146867Y0271856D01*
X0146737Y0271780D01*
X0146605Y0271707D01*
X0146471Y0271639D01*
X0146335Y0271573D01*
X0146197Y0271511D01*
X0146058Y0271453D01*
X0145918Y0271399D01*
X0145776Y0271348D01*
X0145633Y0271301D01*
X0145488Y0271258D01*
X0145343Y0271219D01*
X0145196Y0271183D01*
X0145049Y0271152D01*
X0144901Y0271124D01*
X0144752Y0271100D01*
X0144603Y0271080D01*
X0144453Y0271064D01*
X0144303Y0271052D01*
X0144152Y0271044D01*
X0144001Y0271040D01*
X0143851Y0271040D01*
X0143700Y0271044D01*
X0143549Y0271052D01*
X0143399Y0271064D01*
X0143249Y0271080D01*
X0143100Y0271100D01*
X0142951Y0271124D01*
X0142803Y0271152D01*
X0142656Y0271183D01*
X0142509Y0271219D01*
X0142364Y0271258D01*
X0142219Y0271301D01*
X0142076Y0271348D01*
X0141934Y0271399D01*
X0141794Y0271453D01*
X0141655Y0271511D01*
X0141517Y0271573D01*
X0141381Y0271639D01*
X0141247Y0271707D01*
X0141115Y0271780D01*
X0140985Y0271856D01*
X0140857Y0271935D01*
X0140731Y0272018D01*
X0140607Y0272104D01*
X0140486Y0272193D01*
X0140366Y0272286D01*
X0140250Y0272381D01*
X0140136Y0272480D01*
X0140025Y0272581D01*
X0139916Y0272686D01*
X0139810Y0272793D01*
X0139707Y0272903D01*
X0139607Y0273016D01*
X0139510Y0273131D01*
X0139416Y0273249D01*
X0139325Y0273369D01*
X0139237Y0273492D01*
X0139153Y0273617D01*
X0139072Y0273744D01*
X0138994Y0273873D01*
X0138920Y0274004D01*
X0138850Y0274137D01*
X0138782Y0274272D01*
X0138719Y0274409D01*
X0138659Y0274547D01*
X0138603Y0274687D01*
X0138550Y0274828D01*
X0138501Y0274970D01*
X0138456Y0275114D01*
X0138415Y0275259D01*
X0138377Y0275405D01*
X0138344Y0275552D01*
X0138314Y0275700D01*
X0138288Y0275848D01*
X0138267Y0275998D01*
X0138249Y0276147D01*
X0138235Y0276297D01*
X0138225Y0276448D01*
X0138219Y0276598D01*
X0138217Y0276749D01*
X0134582Y0278217D02*
X0134582Y0275148D01*
X0131513Y0278217D01*
X0130746Y0278217D01*
X0129978Y0277450D01*
X0129978Y0275915D01*
X0130746Y0275148D01*
X0141127Y0281497D02*
X0141150Y0281474D01*
X0066661Y0277788D02*
X0066661Y0275203D01*
X0066144Y0274686D01*
X0065109Y0274686D01*
X0064592Y0275203D01*
X0064592Y0277788D01*
X0063438Y0277271D02*
X0062921Y0277788D01*
X0061887Y0277788D01*
X0061369Y0277271D01*
X0061369Y0276754D01*
X0061887Y0276237D01*
X0062921Y0276237D01*
X0063438Y0275720D01*
X0063438Y0275203D01*
X0062921Y0274686D01*
X0061887Y0274686D01*
X0061369Y0275203D01*
X0060215Y0276237D02*
X0059698Y0275720D01*
X0058147Y0275720D01*
X0058147Y0274686D02*
X0058147Y0277788D01*
X0059698Y0277788D01*
X0060215Y0277271D01*
X0060215Y0276237D01*
X0013262Y0180887D02*
X0011710Y0179335D01*
X0013779Y0179335D01*
X0013262Y0177784D02*
X0013262Y0180887D01*
X0010556Y0180370D02*
X0010039Y0180887D01*
X0009005Y0180887D01*
X0008488Y0180370D01*
X0008488Y0178301D01*
X0009005Y0177784D01*
X0010039Y0177784D01*
X0010556Y0178301D01*
X0007373Y0177784D02*
X0006339Y0177784D01*
X0006856Y0177784D02*
X0006856Y0180887D01*
X0006339Y0180887D02*
X0007373Y0180887D01*
X0008657Y0154469D02*
X0009691Y0153434D01*
X0010725Y0154469D01*
X0010725Y0151366D01*
X0011879Y0151366D02*
X0012914Y0151366D01*
X0012397Y0151366D02*
X0012397Y0154469D01*
X0012914Y0154469D02*
X0011879Y0154469D01*
X0014028Y0153951D02*
X0014028Y0153434D01*
X0014545Y0152917D01*
X0015579Y0152917D01*
X0016096Y0152400D01*
X0016096Y0151883D01*
X0015579Y0151366D01*
X0014545Y0151366D01*
X0014028Y0151883D01*
X0014028Y0153951D02*
X0014545Y0154469D01*
X0015579Y0154469D01*
X0016096Y0153951D01*
X0017251Y0153951D02*
X0017251Y0153434D01*
X0017768Y0152917D01*
X0018802Y0152917D01*
X0019319Y0152400D01*
X0019319Y0151883D01*
X0018802Y0151366D01*
X0017768Y0151366D01*
X0017251Y0151883D01*
X0017251Y0153951D02*
X0017768Y0154469D01*
X0018802Y0154469D01*
X0019319Y0153951D01*
X0020473Y0154469D02*
X0021508Y0154469D01*
X0020991Y0154469D02*
X0020991Y0151366D01*
X0021508Y0151366D02*
X0020473Y0151366D01*
X0022622Y0151883D02*
X0023139Y0151366D01*
X0024173Y0151366D01*
X0024690Y0151883D01*
X0024690Y0153951D01*
X0024173Y0154469D01*
X0023139Y0154469D01*
X0022622Y0153951D01*
X0022622Y0151883D01*
X0025845Y0151366D02*
X0025845Y0154469D01*
X0027913Y0151366D01*
X0027913Y0154469D01*
X0045528Y0139271D02*
X0045528Y0137203D01*
X0046045Y0136686D01*
X0047079Y0136686D01*
X0047596Y0137203D01*
X0047596Y0139271D01*
X0047079Y0139788D01*
X0046045Y0139788D01*
X0045528Y0139271D01*
X0046562Y0137720D02*
X0047596Y0136686D01*
X0048750Y0136686D02*
X0050819Y0136686D01*
X0049785Y0136686D02*
X0049785Y0139788D01*
X0048750Y0138754D01*
X0042083Y0099103D02*
X0041566Y0099103D01*
X0041049Y0098586D01*
X0041049Y0098069D01*
X0041049Y0098586D02*
X0040532Y0099103D01*
X0040014Y0099103D01*
X0039497Y0098586D01*
X0039497Y0097551D01*
X0040014Y0097034D01*
X0040014Y0095880D02*
X0039497Y0095363D01*
X0039497Y0094329D01*
X0040014Y0093812D01*
X0042083Y0093812D01*
X0042600Y0094329D01*
X0042600Y0095363D01*
X0042083Y0095880D01*
X0042083Y0097034D02*
X0042600Y0097551D01*
X0042600Y0098586D01*
X0042083Y0099103D01*
X0047722Y0071437D02*
X0047722Y0069368D01*
X0046171Y0070920D01*
X0049273Y0070920D01*
X0049273Y0068214D02*
X0048239Y0067180D01*
X0048239Y0067697D02*
X0048239Y0066146D01*
X0049273Y0066146D02*
X0046171Y0066146D01*
X0046171Y0067697D01*
X0046688Y0068214D01*
X0047722Y0068214D01*
X0048239Y0067697D01*
X0052092Y0046393D02*
X0052609Y0045359D01*
X0053643Y0044325D01*
X0053643Y0045876D01*
X0054160Y0046393D01*
X0054677Y0046393D01*
X0055194Y0045876D01*
X0055194Y0044842D01*
X0054677Y0044325D01*
X0053643Y0044325D01*
X0052609Y0043171D02*
X0052092Y0042654D01*
X0052092Y0041619D01*
X0052609Y0041102D01*
X0054677Y0041102D01*
X0055194Y0041619D01*
X0055194Y0042654D01*
X0054677Y0043171D01*
X0055194Y0039988D02*
X0055194Y0038954D01*
X0055194Y0039471D02*
X0052092Y0039471D01*
X0052092Y0038954D02*
X0052092Y0039988D01*
X0061635Y0042545D02*
X0062152Y0042027D01*
X0064221Y0042027D01*
X0064738Y0042545D01*
X0064738Y0043579D01*
X0064221Y0044096D01*
X0064738Y0045250D02*
X0062669Y0047319D01*
X0062152Y0047319D01*
X0061635Y0046802D01*
X0061635Y0045767D01*
X0062152Y0045250D01*
X0062152Y0044096D02*
X0061635Y0043579D01*
X0061635Y0042545D01*
X0064738Y0045250D02*
X0064738Y0047319D01*
X0063198Y0063571D02*
X0060096Y0063571D01*
X0063198Y0063571D02*
X0063198Y0065640D01*
X0063198Y0066794D02*
X0063198Y0068863D01*
X0063198Y0067828D02*
X0060096Y0067828D01*
X0061130Y0066794D01*
X0062428Y0085701D02*
X0064496Y0085701D01*
X0065013Y0086218D01*
X0065013Y0087252D01*
X0064496Y0087769D01*
X0065013Y0088923D02*
X0065013Y0090992D01*
X0065013Y0089958D02*
X0061911Y0089958D01*
X0062945Y0088923D01*
X0062428Y0087769D02*
X0061911Y0087252D01*
X0061911Y0086218D01*
X0062428Y0085701D01*
X0079701Y0026103D02*
X0080735Y0026103D01*
X0080218Y0026103D02*
X0080218Y0023001D01*
X0079701Y0023001D02*
X0080735Y0023001D01*
X0081850Y0023518D02*
X0082367Y0023001D01*
X0083401Y0023001D01*
X0083918Y0023518D01*
X0085073Y0023518D02*
X0085590Y0023001D01*
X0086624Y0023001D01*
X0087141Y0023518D01*
X0087141Y0024035D01*
X0086624Y0024552D01*
X0086107Y0024552D01*
X0086624Y0024552D02*
X0087141Y0025069D01*
X0087141Y0025586D01*
X0086624Y0026103D01*
X0085590Y0026103D01*
X0085073Y0025586D01*
X0083918Y0025586D02*
X0083401Y0026103D01*
X0082367Y0026103D01*
X0081850Y0025586D01*
X0081850Y0023518D01*
X0129978Y0027884D02*
X0130746Y0027117D01*
X0129978Y0027884D02*
X0129978Y0029419D01*
X0130746Y0030186D01*
X0131513Y0030186D01*
X0134582Y0027117D01*
X0134582Y0030186D01*
X0136004Y0034623D02*
X0137876Y0034623D01*
X0141127Y0033466D02*
X0141150Y0033442D01*
X0138217Y0028718D02*
X0138219Y0028869D01*
X0138225Y0029019D01*
X0138235Y0029170D01*
X0138249Y0029320D01*
X0138267Y0029469D01*
X0138288Y0029619D01*
X0138314Y0029767D01*
X0138344Y0029915D01*
X0138377Y0030062D01*
X0138415Y0030208D01*
X0138456Y0030353D01*
X0138501Y0030497D01*
X0138550Y0030639D01*
X0138603Y0030780D01*
X0138659Y0030920D01*
X0138719Y0031058D01*
X0138782Y0031195D01*
X0138850Y0031330D01*
X0138920Y0031463D01*
X0138994Y0031594D01*
X0139072Y0031723D01*
X0139153Y0031850D01*
X0139237Y0031975D01*
X0139325Y0032098D01*
X0139416Y0032218D01*
X0139510Y0032336D01*
X0139607Y0032451D01*
X0139707Y0032564D01*
X0139810Y0032674D01*
X0139916Y0032781D01*
X0140025Y0032886D01*
X0140136Y0032987D01*
X0140250Y0033086D01*
X0140366Y0033181D01*
X0140486Y0033274D01*
X0140607Y0033363D01*
X0140731Y0033449D01*
X0140857Y0033532D01*
X0140985Y0033611D01*
X0141115Y0033687D01*
X0141247Y0033760D01*
X0141381Y0033828D01*
X0141517Y0033894D01*
X0141655Y0033956D01*
X0141794Y0034014D01*
X0141934Y0034068D01*
X0142076Y0034119D01*
X0142219Y0034166D01*
X0142364Y0034209D01*
X0142509Y0034248D01*
X0142656Y0034284D01*
X0142803Y0034315D01*
X0142951Y0034343D01*
X0143100Y0034367D01*
X0143249Y0034387D01*
X0143399Y0034403D01*
X0143549Y0034415D01*
X0143700Y0034423D01*
X0143851Y0034427D01*
X0144001Y0034427D01*
X0144152Y0034423D01*
X0144303Y0034415D01*
X0144453Y0034403D01*
X0144603Y0034387D01*
X0144752Y0034367D01*
X0144901Y0034343D01*
X0145049Y0034315D01*
X0145196Y0034284D01*
X0145343Y0034248D01*
X0145488Y0034209D01*
X0145633Y0034166D01*
X0145776Y0034119D01*
X0145918Y0034068D01*
X0146058Y0034014D01*
X0146197Y0033956D01*
X0146335Y0033894D01*
X0146471Y0033828D01*
X0146605Y0033760D01*
X0146737Y0033687D01*
X0146867Y0033611D01*
X0146995Y0033532D01*
X0147121Y0033449D01*
X0147245Y0033363D01*
X0147366Y0033274D01*
X0147486Y0033181D01*
X0147602Y0033086D01*
X0147716Y0032987D01*
X0147827Y0032886D01*
X0147936Y0032781D01*
X0148042Y0032674D01*
X0148145Y0032564D01*
X0148245Y0032451D01*
X0148342Y0032336D01*
X0148436Y0032218D01*
X0148527Y0032098D01*
X0148615Y0031975D01*
X0148699Y0031850D01*
X0148780Y0031723D01*
X0148858Y0031594D01*
X0148932Y0031463D01*
X0149002Y0031330D01*
X0149070Y0031195D01*
X0149133Y0031058D01*
X0149193Y0030920D01*
X0149249Y0030780D01*
X0149302Y0030639D01*
X0149351Y0030497D01*
X0149396Y0030353D01*
X0149437Y0030208D01*
X0149475Y0030062D01*
X0149508Y0029915D01*
X0149538Y0029767D01*
X0149564Y0029619D01*
X0149585Y0029469D01*
X0149603Y0029320D01*
X0149617Y0029170D01*
X0149627Y0029019D01*
X0149633Y0028869D01*
X0149635Y0028718D01*
X0149633Y0028567D01*
X0149627Y0028417D01*
X0149617Y0028266D01*
X0149603Y0028116D01*
X0149585Y0027967D01*
X0149564Y0027817D01*
X0149538Y0027669D01*
X0149508Y0027521D01*
X0149475Y0027374D01*
X0149437Y0027228D01*
X0149396Y0027083D01*
X0149351Y0026939D01*
X0149302Y0026797D01*
X0149249Y0026656D01*
X0149193Y0026516D01*
X0149133Y0026378D01*
X0149070Y0026241D01*
X0149002Y0026106D01*
X0148932Y0025973D01*
X0148858Y0025842D01*
X0148780Y0025713D01*
X0148699Y0025586D01*
X0148615Y0025461D01*
X0148527Y0025338D01*
X0148436Y0025218D01*
X0148342Y0025100D01*
X0148245Y0024985D01*
X0148145Y0024872D01*
X0148042Y0024762D01*
X0147936Y0024655D01*
X0147827Y0024550D01*
X0147716Y0024449D01*
X0147602Y0024350D01*
X0147486Y0024255D01*
X0147366Y0024162D01*
X0147245Y0024073D01*
X0147121Y0023987D01*
X0146995Y0023904D01*
X0146867Y0023825D01*
X0146737Y0023749D01*
X0146605Y0023676D01*
X0146471Y0023608D01*
X0146335Y0023542D01*
X0146197Y0023480D01*
X0146058Y0023422D01*
X0145918Y0023368D01*
X0145776Y0023317D01*
X0145633Y0023270D01*
X0145488Y0023227D01*
X0145343Y0023188D01*
X0145196Y0023152D01*
X0145049Y0023121D01*
X0144901Y0023093D01*
X0144752Y0023069D01*
X0144603Y0023049D01*
X0144453Y0023033D01*
X0144303Y0023021D01*
X0144152Y0023013D01*
X0144001Y0023009D01*
X0143851Y0023009D01*
X0143700Y0023013D01*
X0143549Y0023021D01*
X0143399Y0023033D01*
X0143249Y0023049D01*
X0143100Y0023069D01*
X0142951Y0023093D01*
X0142803Y0023121D01*
X0142656Y0023152D01*
X0142509Y0023188D01*
X0142364Y0023227D01*
X0142219Y0023270D01*
X0142076Y0023317D01*
X0141934Y0023368D01*
X0141794Y0023422D01*
X0141655Y0023480D01*
X0141517Y0023542D01*
X0141381Y0023608D01*
X0141247Y0023676D01*
X0141115Y0023749D01*
X0140985Y0023825D01*
X0140857Y0023904D01*
X0140731Y0023987D01*
X0140607Y0024073D01*
X0140486Y0024162D01*
X0140366Y0024255D01*
X0140250Y0024350D01*
X0140136Y0024449D01*
X0140025Y0024550D01*
X0139916Y0024655D01*
X0139810Y0024762D01*
X0139707Y0024872D01*
X0139607Y0024985D01*
X0139510Y0025100D01*
X0139416Y0025218D01*
X0139325Y0025338D01*
X0139237Y0025461D01*
X0139153Y0025586D01*
X0139072Y0025713D01*
X0138994Y0025842D01*
X0138920Y0025973D01*
X0138850Y0026106D01*
X0138782Y0026241D01*
X0138719Y0026378D01*
X0138659Y0026516D01*
X0138603Y0026656D01*
X0138550Y0026797D01*
X0138501Y0026939D01*
X0138456Y0027083D01*
X0138415Y0027228D01*
X0138377Y0027374D01*
X0138344Y0027521D01*
X0138314Y0027669D01*
X0138288Y0027817D01*
X0138267Y0027967D01*
X0138249Y0028116D01*
X0138235Y0028266D01*
X0138225Y0028417D01*
X0138219Y0028567D01*
X0138217Y0028718D01*
X0141127Y0019686D02*
X0141150Y0019663D01*
X0138217Y0014938D02*
X0138219Y0015089D01*
X0138225Y0015239D01*
X0138235Y0015390D01*
X0138249Y0015540D01*
X0138267Y0015689D01*
X0138288Y0015839D01*
X0138314Y0015987D01*
X0138344Y0016135D01*
X0138377Y0016282D01*
X0138415Y0016428D01*
X0138456Y0016573D01*
X0138501Y0016717D01*
X0138550Y0016859D01*
X0138603Y0017000D01*
X0138659Y0017140D01*
X0138719Y0017278D01*
X0138782Y0017415D01*
X0138850Y0017550D01*
X0138920Y0017683D01*
X0138994Y0017814D01*
X0139072Y0017943D01*
X0139153Y0018070D01*
X0139237Y0018195D01*
X0139325Y0018318D01*
X0139416Y0018438D01*
X0139510Y0018556D01*
X0139607Y0018671D01*
X0139707Y0018784D01*
X0139810Y0018894D01*
X0139916Y0019001D01*
X0140025Y0019106D01*
X0140136Y0019207D01*
X0140250Y0019306D01*
X0140366Y0019401D01*
X0140486Y0019494D01*
X0140607Y0019583D01*
X0140731Y0019669D01*
X0140857Y0019752D01*
X0140985Y0019831D01*
X0141115Y0019907D01*
X0141247Y0019980D01*
X0141381Y0020048D01*
X0141517Y0020114D01*
X0141655Y0020176D01*
X0141794Y0020234D01*
X0141934Y0020288D01*
X0142076Y0020339D01*
X0142219Y0020386D01*
X0142364Y0020429D01*
X0142509Y0020468D01*
X0142656Y0020504D01*
X0142803Y0020535D01*
X0142951Y0020563D01*
X0143100Y0020587D01*
X0143249Y0020607D01*
X0143399Y0020623D01*
X0143549Y0020635D01*
X0143700Y0020643D01*
X0143851Y0020647D01*
X0144001Y0020647D01*
X0144152Y0020643D01*
X0144303Y0020635D01*
X0144453Y0020623D01*
X0144603Y0020607D01*
X0144752Y0020587D01*
X0144901Y0020563D01*
X0145049Y0020535D01*
X0145196Y0020504D01*
X0145343Y0020468D01*
X0145488Y0020429D01*
X0145633Y0020386D01*
X0145776Y0020339D01*
X0145918Y0020288D01*
X0146058Y0020234D01*
X0146197Y0020176D01*
X0146335Y0020114D01*
X0146471Y0020048D01*
X0146605Y0019980D01*
X0146737Y0019907D01*
X0146867Y0019831D01*
X0146995Y0019752D01*
X0147121Y0019669D01*
X0147245Y0019583D01*
X0147366Y0019494D01*
X0147486Y0019401D01*
X0147602Y0019306D01*
X0147716Y0019207D01*
X0147827Y0019106D01*
X0147936Y0019001D01*
X0148042Y0018894D01*
X0148145Y0018784D01*
X0148245Y0018671D01*
X0148342Y0018556D01*
X0148436Y0018438D01*
X0148527Y0018318D01*
X0148615Y0018195D01*
X0148699Y0018070D01*
X0148780Y0017943D01*
X0148858Y0017814D01*
X0148932Y0017683D01*
X0149002Y0017550D01*
X0149070Y0017415D01*
X0149133Y0017278D01*
X0149193Y0017140D01*
X0149249Y0017000D01*
X0149302Y0016859D01*
X0149351Y0016717D01*
X0149396Y0016573D01*
X0149437Y0016428D01*
X0149475Y0016282D01*
X0149508Y0016135D01*
X0149538Y0015987D01*
X0149564Y0015839D01*
X0149585Y0015689D01*
X0149603Y0015540D01*
X0149617Y0015390D01*
X0149627Y0015239D01*
X0149633Y0015089D01*
X0149635Y0014938D01*
X0149633Y0014787D01*
X0149627Y0014637D01*
X0149617Y0014486D01*
X0149603Y0014336D01*
X0149585Y0014187D01*
X0149564Y0014037D01*
X0149538Y0013889D01*
X0149508Y0013741D01*
X0149475Y0013594D01*
X0149437Y0013448D01*
X0149396Y0013303D01*
X0149351Y0013159D01*
X0149302Y0013017D01*
X0149249Y0012876D01*
X0149193Y0012736D01*
X0149133Y0012598D01*
X0149070Y0012461D01*
X0149002Y0012326D01*
X0148932Y0012193D01*
X0148858Y0012062D01*
X0148780Y0011933D01*
X0148699Y0011806D01*
X0148615Y0011681D01*
X0148527Y0011558D01*
X0148436Y0011438D01*
X0148342Y0011320D01*
X0148245Y0011205D01*
X0148145Y0011092D01*
X0148042Y0010982D01*
X0147936Y0010875D01*
X0147827Y0010770D01*
X0147716Y0010669D01*
X0147602Y0010570D01*
X0147486Y0010475D01*
X0147366Y0010382D01*
X0147245Y0010293D01*
X0147121Y0010207D01*
X0146995Y0010124D01*
X0146867Y0010045D01*
X0146737Y0009969D01*
X0146605Y0009896D01*
X0146471Y0009828D01*
X0146335Y0009762D01*
X0146197Y0009700D01*
X0146058Y0009642D01*
X0145918Y0009588D01*
X0145776Y0009537D01*
X0145633Y0009490D01*
X0145488Y0009447D01*
X0145343Y0009408D01*
X0145196Y0009372D01*
X0145049Y0009341D01*
X0144901Y0009313D01*
X0144752Y0009289D01*
X0144603Y0009269D01*
X0144453Y0009253D01*
X0144303Y0009241D01*
X0144152Y0009233D01*
X0144001Y0009229D01*
X0143851Y0009229D01*
X0143700Y0009233D01*
X0143549Y0009241D01*
X0143399Y0009253D01*
X0143249Y0009269D01*
X0143100Y0009289D01*
X0142951Y0009313D01*
X0142803Y0009341D01*
X0142656Y0009372D01*
X0142509Y0009408D01*
X0142364Y0009447D01*
X0142219Y0009490D01*
X0142076Y0009537D01*
X0141934Y0009588D01*
X0141794Y0009642D01*
X0141655Y0009700D01*
X0141517Y0009762D01*
X0141381Y0009828D01*
X0141247Y0009896D01*
X0141115Y0009969D01*
X0140985Y0010045D01*
X0140857Y0010124D01*
X0140731Y0010207D01*
X0140607Y0010293D01*
X0140486Y0010382D01*
X0140366Y0010475D01*
X0140250Y0010570D01*
X0140136Y0010669D01*
X0140025Y0010770D01*
X0139916Y0010875D01*
X0139810Y0010982D01*
X0139707Y0011092D01*
X0139607Y0011205D01*
X0139510Y0011320D01*
X0139416Y0011438D01*
X0139325Y0011558D01*
X0139237Y0011681D01*
X0139153Y0011806D01*
X0139072Y0011933D01*
X0138994Y0012062D01*
X0138920Y0012193D01*
X0138850Y0012326D01*
X0138782Y0012461D01*
X0138719Y0012598D01*
X0138659Y0012736D01*
X0138603Y0012876D01*
X0138550Y0013017D01*
X0138501Y0013159D01*
X0138456Y0013303D01*
X0138415Y0013448D01*
X0138377Y0013594D01*
X0138344Y0013741D01*
X0138314Y0013889D01*
X0138288Y0014037D01*
X0138267Y0014187D01*
X0138249Y0014336D01*
X0138235Y0014486D01*
X0138225Y0014637D01*
X0138219Y0014787D01*
X0138217Y0014938D01*
X0134582Y0014901D02*
X0129978Y0014901D01*
X0131513Y0013367D01*
X0134582Y0013367D02*
X0134582Y0016436D01*
X0136004Y0007064D02*
X0137876Y0007064D01*
X0145314Y0005469D02*
X0147382Y0002367D01*
X0148537Y0002367D02*
X0150605Y0004435D01*
X0150605Y0004952D01*
X0150088Y0005469D01*
X0149054Y0005469D01*
X0148537Y0004952D01*
X0147382Y0005469D02*
X0145314Y0002367D01*
X0148537Y0002367D02*
X0150605Y0002367D01*
X0151760Y0002884D02*
X0152277Y0002367D01*
X0153311Y0002367D01*
X0153828Y0002884D01*
X0153828Y0003401D01*
X0153311Y0003918D01*
X0152794Y0003918D01*
X0153311Y0003918D02*
X0153828Y0004435D01*
X0153828Y0004952D01*
X0153311Y0005469D01*
X0152277Y0005469D01*
X0151760Y0004952D01*
X0151760Y0029926D02*
X0153828Y0031994D01*
X0153828Y0032511D01*
X0153311Y0033028D01*
X0152277Y0033028D01*
X0151760Y0032511D01*
X0150605Y0032511D02*
X0150088Y0033028D01*
X0149054Y0033028D01*
X0148537Y0032511D01*
X0147382Y0033028D02*
X0145314Y0029926D01*
X0147382Y0029926D02*
X0145314Y0033028D01*
X0148537Y0029926D02*
X0150605Y0031994D01*
X0150605Y0032511D01*
X0150605Y0029926D02*
X0148537Y0029926D01*
X0151760Y0029926D02*
X0153828Y0029926D01*
X0138217Y0042497D02*
X0138219Y0042648D01*
X0138225Y0042798D01*
X0138235Y0042949D01*
X0138249Y0043099D01*
X0138267Y0043248D01*
X0138288Y0043398D01*
X0138314Y0043546D01*
X0138344Y0043694D01*
X0138377Y0043841D01*
X0138415Y0043987D01*
X0138456Y0044132D01*
X0138501Y0044276D01*
X0138550Y0044418D01*
X0138603Y0044559D01*
X0138659Y0044699D01*
X0138719Y0044837D01*
X0138782Y0044974D01*
X0138850Y0045109D01*
X0138920Y0045242D01*
X0138994Y0045373D01*
X0139072Y0045502D01*
X0139153Y0045629D01*
X0139237Y0045754D01*
X0139325Y0045877D01*
X0139416Y0045997D01*
X0139510Y0046115D01*
X0139607Y0046230D01*
X0139707Y0046343D01*
X0139810Y0046453D01*
X0139916Y0046560D01*
X0140025Y0046665D01*
X0140136Y0046766D01*
X0140250Y0046865D01*
X0140366Y0046960D01*
X0140486Y0047053D01*
X0140607Y0047142D01*
X0140731Y0047228D01*
X0140857Y0047311D01*
X0140985Y0047390D01*
X0141115Y0047466D01*
X0141247Y0047539D01*
X0141381Y0047607D01*
X0141517Y0047673D01*
X0141655Y0047735D01*
X0141794Y0047793D01*
X0141934Y0047847D01*
X0142076Y0047898D01*
X0142219Y0047945D01*
X0142364Y0047988D01*
X0142509Y0048027D01*
X0142656Y0048063D01*
X0142803Y0048094D01*
X0142951Y0048122D01*
X0143100Y0048146D01*
X0143249Y0048166D01*
X0143399Y0048182D01*
X0143549Y0048194D01*
X0143700Y0048202D01*
X0143851Y0048206D01*
X0144001Y0048206D01*
X0144152Y0048202D01*
X0144303Y0048194D01*
X0144453Y0048182D01*
X0144603Y0048166D01*
X0144752Y0048146D01*
X0144901Y0048122D01*
X0145049Y0048094D01*
X0145196Y0048063D01*
X0145343Y0048027D01*
X0145488Y0047988D01*
X0145633Y0047945D01*
X0145776Y0047898D01*
X0145918Y0047847D01*
X0146058Y0047793D01*
X0146197Y0047735D01*
X0146335Y0047673D01*
X0146471Y0047607D01*
X0146605Y0047539D01*
X0146737Y0047466D01*
X0146867Y0047390D01*
X0146995Y0047311D01*
X0147121Y0047228D01*
X0147245Y0047142D01*
X0147366Y0047053D01*
X0147486Y0046960D01*
X0147602Y0046865D01*
X0147716Y0046766D01*
X0147827Y0046665D01*
X0147936Y0046560D01*
X0148042Y0046453D01*
X0148145Y0046343D01*
X0148245Y0046230D01*
X0148342Y0046115D01*
X0148436Y0045997D01*
X0148527Y0045877D01*
X0148615Y0045754D01*
X0148699Y0045629D01*
X0148780Y0045502D01*
X0148858Y0045373D01*
X0148932Y0045242D01*
X0149002Y0045109D01*
X0149070Y0044974D01*
X0149133Y0044837D01*
X0149193Y0044699D01*
X0149249Y0044559D01*
X0149302Y0044418D01*
X0149351Y0044276D01*
X0149396Y0044132D01*
X0149437Y0043987D01*
X0149475Y0043841D01*
X0149508Y0043694D01*
X0149538Y0043546D01*
X0149564Y0043398D01*
X0149585Y0043248D01*
X0149603Y0043099D01*
X0149617Y0042949D01*
X0149627Y0042798D01*
X0149633Y0042648D01*
X0149635Y0042497D01*
X0149633Y0042346D01*
X0149627Y0042196D01*
X0149617Y0042045D01*
X0149603Y0041895D01*
X0149585Y0041746D01*
X0149564Y0041596D01*
X0149538Y0041448D01*
X0149508Y0041300D01*
X0149475Y0041153D01*
X0149437Y0041007D01*
X0149396Y0040862D01*
X0149351Y0040718D01*
X0149302Y0040576D01*
X0149249Y0040435D01*
X0149193Y0040295D01*
X0149133Y0040157D01*
X0149070Y0040020D01*
X0149002Y0039885D01*
X0148932Y0039752D01*
X0148858Y0039621D01*
X0148780Y0039492D01*
X0148699Y0039365D01*
X0148615Y0039240D01*
X0148527Y0039117D01*
X0148436Y0038997D01*
X0148342Y0038879D01*
X0148245Y0038764D01*
X0148145Y0038651D01*
X0148042Y0038541D01*
X0147936Y0038434D01*
X0147827Y0038329D01*
X0147716Y0038228D01*
X0147602Y0038129D01*
X0147486Y0038034D01*
X0147366Y0037941D01*
X0147245Y0037852D01*
X0147121Y0037766D01*
X0146995Y0037683D01*
X0146867Y0037604D01*
X0146737Y0037528D01*
X0146605Y0037455D01*
X0146471Y0037387D01*
X0146335Y0037321D01*
X0146197Y0037259D01*
X0146058Y0037201D01*
X0145918Y0037147D01*
X0145776Y0037096D01*
X0145633Y0037049D01*
X0145488Y0037006D01*
X0145343Y0036967D01*
X0145196Y0036931D01*
X0145049Y0036900D01*
X0144901Y0036872D01*
X0144752Y0036848D01*
X0144603Y0036828D01*
X0144453Y0036812D01*
X0144303Y0036800D01*
X0144152Y0036792D01*
X0144001Y0036788D01*
X0143851Y0036788D01*
X0143700Y0036792D01*
X0143549Y0036800D01*
X0143399Y0036812D01*
X0143249Y0036828D01*
X0143100Y0036848D01*
X0142951Y0036872D01*
X0142803Y0036900D01*
X0142656Y0036931D01*
X0142509Y0036967D01*
X0142364Y0037006D01*
X0142219Y0037049D01*
X0142076Y0037096D01*
X0141934Y0037147D01*
X0141794Y0037201D01*
X0141655Y0037259D01*
X0141517Y0037321D01*
X0141381Y0037387D01*
X0141247Y0037455D01*
X0141115Y0037528D01*
X0140985Y0037604D01*
X0140857Y0037683D01*
X0140731Y0037766D01*
X0140607Y0037852D01*
X0140486Y0037941D01*
X0140366Y0038034D01*
X0140250Y0038129D01*
X0140136Y0038228D01*
X0140025Y0038329D01*
X0139916Y0038434D01*
X0139810Y0038541D01*
X0139707Y0038651D01*
X0139607Y0038764D01*
X0139510Y0038879D01*
X0139416Y0038997D01*
X0139325Y0039117D01*
X0139237Y0039240D01*
X0139153Y0039365D01*
X0139072Y0039492D01*
X0138994Y0039621D01*
X0138920Y0039752D01*
X0138850Y0039885D01*
X0138782Y0040020D01*
X0138719Y0040157D01*
X0138659Y0040295D01*
X0138603Y0040435D01*
X0138550Y0040576D01*
X0138501Y0040718D01*
X0138456Y0040862D01*
X0138415Y0041007D01*
X0138377Y0041153D01*
X0138344Y0041300D01*
X0138314Y0041448D01*
X0138288Y0041596D01*
X0138267Y0041746D01*
X0138249Y0041895D01*
X0138235Y0042045D01*
X0138225Y0042196D01*
X0138219Y0042346D01*
X0138217Y0042497D01*
X0134582Y0042460D02*
X0129978Y0042460D01*
X0131513Y0040926D01*
X0134582Y0040926D02*
X0134582Y0043995D01*
X0134582Y0054676D02*
X0131513Y0057745D01*
X0130746Y0057745D01*
X0129978Y0056978D01*
X0129978Y0055443D01*
X0130746Y0054676D01*
X0134582Y0054676D02*
X0134582Y0057745D01*
X0136004Y0062182D02*
X0137876Y0062182D01*
X0141127Y0061025D02*
X0141150Y0061001D01*
X0138217Y0056277D02*
X0138219Y0056428D01*
X0138225Y0056578D01*
X0138235Y0056729D01*
X0138249Y0056879D01*
X0138267Y0057028D01*
X0138288Y0057178D01*
X0138314Y0057326D01*
X0138344Y0057474D01*
X0138377Y0057621D01*
X0138415Y0057767D01*
X0138456Y0057912D01*
X0138501Y0058056D01*
X0138550Y0058198D01*
X0138603Y0058339D01*
X0138659Y0058479D01*
X0138719Y0058617D01*
X0138782Y0058754D01*
X0138850Y0058889D01*
X0138920Y0059022D01*
X0138994Y0059153D01*
X0139072Y0059282D01*
X0139153Y0059409D01*
X0139237Y0059534D01*
X0139325Y0059657D01*
X0139416Y0059777D01*
X0139510Y0059895D01*
X0139607Y0060010D01*
X0139707Y0060123D01*
X0139810Y0060233D01*
X0139916Y0060340D01*
X0140025Y0060445D01*
X0140136Y0060546D01*
X0140250Y0060645D01*
X0140366Y0060740D01*
X0140486Y0060833D01*
X0140607Y0060922D01*
X0140731Y0061008D01*
X0140857Y0061091D01*
X0140985Y0061170D01*
X0141115Y0061246D01*
X0141247Y0061319D01*
X0141381Y0061387D01*
X0141517Y0061453D01*
X0141655Y0061515D01*
X0141794Y0061573D01*
X0141934Y0061627D01*
X0142076Y0061678D01*
X0142219Y0061725D01*
X0142364Y0061768D01*
X0142509Y0061807D01*
X0142656Y0061843D01*
X0142803Y0061874D01*
X0142951Y0061902D01*
X0143100Y0061926D01*
X0143249Y0061946D01*
X0143399Y0061962D01*
X0143549Y0061974D01*
X0143700Y0061982D01*
X0143851Y0061986D01*
X0144001Y0061986D01*
X0144152Y0061982D01*
X0144303Y0061974D01*
X0144453Y0061962D01*
X0144603Y0061946D01*
X0144752Y0061926D01*
X0144901Y0061902D01*
X0145049Y0061874D01*
X0145196Y0061843D01*
X0145343Y0061807D01*
X0145488Y0061768D01*
X0145633Y0061725D01*
X0145776Y0061678D01*
X0145918Y0061627D01*
X0146058Y0061573D01*
X0146197Y0061515D01*
X0146335Y0061453D01*
X0146471Y0061387D01*
X0146605Y0061319D01*
X0146737Y0061246D01*
X0146867Y0061170D01*
X0146995Y0061091D01*
X0147121Y0061008D01*
X0147245Y0060922D01*
X0147366Y0060833D01*
X0147486Y0060740D01*
X0147602Y0060645D01*
X0147716Y0060546D01*
X0147827Y0060445D01*
X0147936Y0060340D01*
X0148042Y0060233D01*
X0148145Y0060123D01*
X0148245Y0060010D01*
X0148342Y0059895D01*
X0148436Y0059777D01*
X0148527Y0059657D01*
X0148615Y0059534D01*
X0148699Y0059409D01*
X0148780Y0059282D01*
X0148858Y0059153D01*
X0148932Y0059022D01*
X0149002Y0058889D01*
X0149070Y0058754D01*
X0149133Y0058617D01*
X0149193Y0058479D01*
X0149249Y0058339D01*
X0149302Y0058198D01*
X0149351Y0058056D01*
X0149396Y0057912D01*
X0149437Y0057767D01*
X0149475Y0057621D01*
X0149508Y0057474D01*
X0149538Y0057326D01*
X0149564Y0057178D01*
X0149585Y0057028D01*
X0149603Y0056879D01*
X0149617Y0056729D01*
X0149627Y0056578D01*
X0149633Y0056428D01*
X0149635Y0056277D01*
X0149633Y0056126D01*
X0149627Y0055976D01*
X0149617Y0055825D01*
X0149603Y0055675D01*
X0149585Y0055526D01*
X0149564Y0055376D01*
X0149538Y0055228D01*
X0149508Y0055080D01*
X0149475Y0054933D01*
X0149437Y0054787D01*
X0149396Y0054642D01*
X0149351Y0054498D01*
X0149302Y0054356D01*
X0149249Y0054215D01*
X0149193Y0054075D01*
X0149133Y0053937D01*
X0149070Y0053800D01*
X0149002Y0053665D01*
X0148932Y0053532D01*
X0148858Y0053401D01*
X0148780Y0053272D01*
X0148699Y0053145D01*
X0148615Y0053020D01*
X0148527Y0052897D01*
X0148436Y0052777D01*
X0148342Y0052659D01*
X0148245Y0052544D01*
X0148145Y0052431D01*
X0148042Y0052321D01*
X0147936Y0052214D01*
X0147827Y0052109D01*
X0147716Y0052008D01*
X0147602Y0051909D01*
X0147486Y0051814D01*
X0147366Y0051721D01*
X0147245Y0051632D01*
X0147121Y0051546D01*
X0146995Y0051463D01*
X0146867Y0051384D01*
X0146737Y0051308D01*
X0146605Y0051235D01*
X0146471Y0051167D01*
X0146335Y0051101D01*
X0146197Y0051039D01*
X0146058Y0050981D01*
X0145918Y0050927D01*
X0145776Y0050876D01*
X0145633Y0050829D01*
X0145488Y0050786D01*
X0145343Y0050747D01*
X0145196Y0050711D01*
X0145049Y0050680D01*
X0144901Y0050652D01*
X0144752Y0050628D01*
X0144603Y0050608D01*
X0144453Y0050592D01*
X0144303Y0050580D01*
X0144152Y0050572D01*
X0144001Y0050568D01*
X0143851Y0050568D01*
X0143700Y0050572D01*
X0143549Y0050580D01*
X0143399Y0050592D01*
X0143249Y0050608D01*
X0143100Y0050628D01*
X0142951Y0050652D01*
X0142803Y0050680D01*
X0142656Y0050711D01*
X0142509Y0050747D01*
X0142364Y0050786D01*
X0142219Y0050829D01*
X0142076Y0050876D01*
X0141934Y0050927D01*
X0141794Y0050981D01*
X0141655Y0051039D01*
X0141517Y0051101D01*
X0141381Y0051167D01*
X0141247Y0051235D01*
X0141115Y0051308D01*
X0140985Y0051384D01*
X0140857Y0051463D01*
X0140731Y0051546D01*
X0140607Y0051632D01*
X0140486Y0051721D01*
X0140366Y0051814D01*
X0140250Y0051909D01*
X0140136Y0052008D01*
X0140025Y0052109D01*
X0139916Y0052214D01*
X0139810Y0052321D01*
X0139707Y0052431D01*
X0139607Y0052544D01*
X0139510Y0052659D01*
X0139416Y0052777D01*
X0139325Y0052897D01*
X0139237Y0053020D01*
X0139153Y0053145D01*
X0139072Y0053272D01*
X0138994Y0053401D01*
X0138920Y0053532D01*
X0138850Y0053665D01*
X0138782Y0053800D01*
X0138719Y0053937D01*
X0138659Y0054075D01*
X0138603Y0054215D01*
X0138550Y0054356D01*
X0138501Y0054498D01*
X0138456Y0054642D01*
X0138415Y0054787D01*
X0138377Y0054933D01*
X0138344Y0055080D01*
X0138314Y0055228D01*
X0138288Y0055376D01*
X0138267Y0055526D01*
X0138249Y0055675D01*
X0138235Y0055825D01*
X0138225Y0055976D01*
X0138219Y0056126D01*
X0138217Y0056277D01*
X0141127Y0047245D02*
X0141150Y0047222D01*
X0145314Y0057485D02*
X0147382Y0060587D01*
X0148537Y0060070D02*
X0149054Y0060587D01*
X0150088Y0060587D01*
X0150605Y0060070D01*
X0150605Y0059553D01*
X0148537Y0057485D01*
X0150605Y0057485D01*
X0151760Y0057485D02*
X0153828Y0057485D01*
X0152794Y0057485D02*
X0152794Y0060587D01*
X0151760Y0059553D01*
X0147382Y0057485D02*
X0145314Y0060587D01*
X0138217Y0070056D02*
X0138219Y0070207D01*
X0138225Y0070357D01*
X0138235Y0070508D01*
X0138249Y0070658D01*
X0138267Y0070807D01*
X0138288Y0070957D01*
X0138314Y0071105D01*
X0138344Y0071253D01*
X0138377Y0071400D01*
X0138415Y0071546D01*
X0138456Y0071691D01*
X0138501Y0071835D01*
X0138550Y0071977D01*
X0138603Y0072118D01*
X0138659Y0072258D01*
X0138719Y0072396D01*
X0138782Y0072533D01*
X0138850Y0072668D01*
X0138920Y0072801D01*
X0138994Y0072932D01*
X0139072Y0073061D01*
X0139153Y0073188D01*
X0139237Y0073313D01*
X0139325Y0073436D01*
X0139416Y0073556D01*
X0139510Y0073674D01*
X0139607Y0073789D01*
X0139707Y0073902D01*
X0139810Y0074012D01*
X0139916Y0074119D01*
X0140025Y0074224D01*
X0140136Y0074325D01*
X0140250Y0074424D01*
X0140366Y0074519D01*
X0140486Y0074612D01*
X0140607Y0074701D01*
X0140731Y0074787D01*
X0140857Y0074870D01*
X0140985Y0074949D01*
X0141115Y0075025D01*
X0141247Y0075098D01*
X0141381Y0075166D01*
X0141517Y0075232D01*
X0141655Y0075294D01*
X0141794Y0075352D01*
X0141934Y0075406D01*
X0142076Y0075457D01*
X0142219Y0075504D01*
X0142364Y0075547D01*
X0142509Y0075586D01*
X0142656Y0075622D01*
X0142803Y0075653D01*
X0142951Y0075681D01*
X0143100Y0075705D01*
X0143249Y0075725D01*
X0143399Y0075741D01*
X0143549Y0075753D01*
X0143700Y0075761D01*
X0143851Y0075765D01*
X0144001Y0075765D01*
X0144152Y0075761D01*
X0144303Y0075753D01*
X0144453Y0075741D01*
X0144603Y0075725D01*
X0144752Y0075705D01*
X0144901Y0075681D01*
X0145049Y0075653D01*
X0145196Y0075622D01*
X0145343Y0075586D01*
X0145488Y0075547D01*
X0145633Y0075504D01*
X0145776Y0075457D01*
X0145918Y0075406D01*
X0146058Y0075352D01*
X0146197Y0075294D01*
X0146335Y0075232D01*
X0146471Y0075166D01*
X0146605Y0075098D01*
X0146737Y0075025D01*
X0146867Y0074949D01*
X0146995Y0074870D01*
X0147121Y0074787D01*
X0147245Y0074701D01*
X0147366Y0074612D01*
X0147486Y0074519D01*
X0147602Y0074424D01*
X0147716Y0074325D01*
X0147827Y0074224D01*
X0147936Y0074119D01*
X0148042Y0074012D01*
X0148145Y0073902D01*
X0148245Y0073789D01*
X0148342Y0073674D01*
X0148436Y0073556D01*
X0148527Y0073436D01*
X0148615Y0073313D01*
X0148699Y0073188D01*
X0148780Y0073061D01*
X0148858Y0072932D01*
X0148932Y0072801D01*
X0149002Y0072668D01*
X0149070Y0072533D01*
X0149133Y0072396D01*
X0149193Y0072258D01*
X0149249Y0072118D01*
X0149302Y0071977D01*
X0149351Y0071835D01*
X0149396Y0071691D01*
X0149437Y0071546D01*
X0149475Y0071400D01*
X0149508Y0071253D01*
X0149538Y0071105D01*
X0149564Y0070957D01*
X0149585Y0070807D01*
X0149603Y0070658D01*
X0149617Y0070508D01*
X0149627Y0070357D01*
X0149633Y0070207D01*
X0149635Y0070056D01*
X0149633Y0069905D01*
X0149627Y0069755D01*
X0149617Y0069604D01*
X0149603Y0069454D01*
X0149585Y0069305D01*
X0149564Y0069155D01*
X0149538Y0069007D01*
X0149508Y0068859D01*
X0149475Y0068712D01*
X0149437Y0068566D01*
X0149396Y0068421D01*
X0149351Y0068277D01*
X0149302Y0068135D01*
X0149249Y0067994D01*
X0149193Y0067854D01*
X0149133Y0067716D01*
X0149070Y0067579D01*
X0149002Y0067444D01*
X0148932Y0067311D01*
X0148858Y0067180D01*
X0148780Y0067051D01*
X0148699Y0066924D01*
X0148615Y0066799D01*
X0148527Y0066676D01*
X0148436Y0066556D01*
X0148342Y0066438D01*
X0148245Y0066323D01*
X0148145Y0066210D01*
X0148042Y0066100D01*
X0147936Y0065993D01*
X0147827Y0065888D01*
X0147716Y0065787D01*
X0147602Y0065688D01*
X0147486Y0065593D01*
X0147366Y0065500D01*
X0147245Y0065411D01*
X0147121Y0065325D01*
X0146995Y0065242D01*
X0146867Y0065163D01*
X0146737Y0065087D01*
X0146605Y0065014D01*
X0146471Y0064946D01*
X0146335Y0064880D01*
X0146197Y0064818D01*
X0146058Y0064760D01*
X0145918Y0064706D01*
X0145776Y0064655D01*
X0145633Y0064608D01*
X0145488Y0064565D01*
X0145343Y0064526D01*
X0145196Y0064490D01*
X0145049Y0064459D01*
X0144901Y0064431D01*
X0144752Y0064407D01*
X0144603Y0064387D01*
X0144453Y0064371D01*
X0144303Y0064359D01*
X0144152Y0064351D01*
X0144001Y0064347D01*
X0143851Y0064347D01*
X0143700Y0064351D01*
X0143549Y0064359D01*
X0143399Y0064371D01*
X0143249Y0064387D01*
X0143100Y0064407D01*
X0142951Y0064431D01*
X0142803Y0064459D01*
X0142656Y0064490D01*
X0142509Y0064526D01*
X0142364Y0064565D01*
X0142219Y0064608D01*
X0142076Y0064655D01*
X0141934Y0064706D01*
X0141794Y0064760D01*
X0141655Y0064818D01*
X0141517Y0064880D01*
X0141381Y0064946D01*
X0141247Y0065014D01*
X0141115Y0065087D01*
X0140985Y0065163D01*
X0140857Y0065242D01*
X0140731Y0065325D01*
X0140607Y0065411D01*
X0140486Y0065500D01*
X0140366Y0065593D01*
X0140250Y0065688D01*
X0140136Y0065787D01*
X0140025Y0065888D01*
X0139916Y0065993D01*
X0139810Y0066100D01*
X0139707Y0066210D01*
X0139607Y0066323D01*
X0139510Y0066438D01*
X0139416Y0066556D01*
X0139325Y0066676D01*
X0139237Y0066799D01*
X0139153Y0066924D01*
X0139072Y0067051D01*
X0138994Y0067180D01*
X0138920Y0067311D01*
X0138850Y0067444D01*
X0138782Y0067579D01*
X0138719Y0067716D01*
X0138659Y0067854D01*
X0138603Y0067994D01*
X0138550Y0068135D01*
X0138501Y0068277D01*
X0138456Y0068421D01*
X0138415Y0068566D01*
X0138377Y0068712D01*
X0138344Y0068859D01*
X0138314Y0069007D01*
X0138288Y0069155D01*
X0138267Y0069305D01*
X0138249Y0069454D01*
X0138235Y0069604D01*
X0138225Y0069755D01*
X0138219Y0069905D01*
X0138217Y0070056D01*
X0134582Y0070019D02*
X0129978Y0070019D01*
X0131513Y0068485D01*
X0134582Y0068485D02*
X0134582Y0071554D01*
X0141127Y0074804D02*
X0141150Y0074781D01*
X0028773Y0070420D02*
X0025671Y0070420D01*
X0027222Y0068868D01*
X0027222Y0070937D01*
X0028256Y0067714D02*
X0028773Y0067197D01*
X0028773Y0066163D01*
X0028256Y0065646D01*
X0026188Y0065646D01*
X0025671Y0066163D01*
X0025671Y0067197D01*
X0026188Y0067714D01*
X0022139Y0083638D02*
X0021105Y0083638D01*
X0020588Y0084155D01*
X0020588Y0085190D02*
X0021622Y0085707D01*
X0022139Y0085707D01*
X0022656Y0085190D01*
X0022656Y0084155D01*
X0022139Y0083638D01*
X0020588Y0085190D02*
X0020588Y0086741D01*
X0022656Y0086741D01*
X0019433Y0086224D02*
X0018916Y0086741D01*
X0017882Y0086741D01*
X0017365Y0086224D01*
X0017365Y0084155D01*
X0017882Y0083638D01*
X0018916Y0083638D01*
X0019433Y0084155D01*
X0016251Y0083638D02*
X0015217Y0083638D01*
X0015734Y0083638D02*
X0015734Y0086741D01*
X0015217Y0086741D02*
X0016251Y0086741D01*
X0014910Y0071378D02*
X0014393Y0071378D01*
X0013875Y0070861D01*
X0013875Y0070343D01*
X0013875Y0070861D02*
X0013358Y0071378D01*
X0012841Y0071378D01*
X0012324Y0070861D01*
X0012324Y0069826D01*
X0012841Y0069309D01*
X0012841Y0068155D02*
X0013875Y0068155D01*
X0014393Y0067638D01*
X0014393Y0066087D01*
X0014393Y0067121D02*
X0015427Y0068155D01*
X0014910Y0069309D02*
X0015427Y0069826D01*
X0015427Y0070861D01*
X0014910Y0071378D01*
X0012841Y0068155D02*
X0012324Y0067638D01*
X0012324Y0066087D01*
X0015427Y0066087D01*
X0019500Y0110312D02*
X0019500Y0113414D01*
X0021051Y0113414D01*
X0021568Y0112897D01*
X0021568Y0111863D01*
X0021051Y0111346D01*
X0019500Y0111346D01*
X0020534Y0111346D02*
X0021568Y0110312D01*
X0022723Y0110312D02*
X0024791Y0110312D01*
X0023757Y0110312D02*
X0023757Y0113414D01*
X0022723Y0112380D01*
X0022892Y0115812D02*
X0024960Y0117880D01*
X0024960Y0118397D01*
X0024443Y0118914D01*
X0023409Y0118914D01*
X0022892Y0118397D01*
X0021738Y0118397D02*
X0021221Y0118914D01*
X0019669Y0118914D01*
X0019669Y0115812D01*
X0019669Y0116846D02*
X0021221Y0116846D01*
X0021738Y0117363D01*
X0021738Y0118397D01*
X0020704Y0116846D02*
X0021738Y0115812D01*
X0022892Y0115812D02*
X0024960Y0115812D01*
X0008657Y0151366D02*
X0008657Y0154469D01*
D14*
X0056457Y0103151D02*
X0093465Y0103151D01*
X0093465Y0272442D01*
X0087166Y0272442D01*
X0087164Y0272534D01*
X0087158Y0272626D01*
X0087148Y0272717D01*
X0087135Y0272808D01*
X0087117Y0272898D01*
X0087096Y0272988D01*
X0087071Y0273076D01*
X0087042Y0273163D01*
X0087010Y0273249D01*
X0086974Y0273334D01*
X0086934Y0273417D01*
X0086891Y0273498D01*
X0086845Y0273577D01*
X0086795Y0273654D01*
X0086742Y0273729D01*
X0086685Y0273802D01*
X0086626Y0273872D01*
X0086564Y0273940D01*
X0086499Y0274005D01*
X0086431Y0274067D01*
X0086361Y0274126D01*
X0086288Y0274183D01*
X0086213Y0274236D01*
X0086136Y0274286D01*
X0086057Y0274332D01*
X0085976Y0274375D01*
X0085893Y0274415D01*
X0085808Y0274451D01*
X0085722Y0274483D01*
X0085635Y0274512D01*
X0085547Y0274537D01*
X0085457Y0274558D01*
X0085367Y0274576D01*
X0085276Y0274589D01*
X0085185Y0274599D01*
X0085093Y0274605D01*
X0085001Y0274607D01*
X0084909Y0274605D01*
X0084817Y0274599D01*
X0084726Y0274589D01*
X0084635Y0274576D01*
X0084545Y0274558D01*
X0084455Y0274537D01*
X0084367Y0274512D01*
X0084280Y0274483D01*
X0084194Y0274451D01*
X0084109Y0274415D01*
X0084026Y0274375D01*
X0083945Y0274332D01*
X0083866Y0274286D01*
X0083789Y0274236D01*
X0083714Y0274183D01*
X0083641Y0274126D01*
X0083571Y0274067D01*
X0083503Y0274005D01*
X0083438Y0273940D01*
X0083376Y0273872D01*
X0083317Y0273802D01*
X0083260Y0273729D01*
X0083207Y0273654D01*
X0083157Y0273577D01*
X0083111Y0273498D01*
X0083068Y0273417D01*
X0083028Y0273334D01*
X0082992Y0273249D01*
X0082960Y0273163D01*
X0082931Y0273076D01*
X0082906Y0272988D01*
X0082885Y0272898D01*
X0082867Y0272808D01*
X0082854Y0272717D01*
X0082844Y0272626D01*
X0082838Y0272534D01*
X0082836Y0272442D01*
X0082835Y0272442D02*
X0056457Y0272442D01*
X0056457Y0103151D01*
D15*
X0050894Y0049148D02*
X0010894Y0049148D01*
M02*
